G04 EAGLE Gerber RS-274X export*
G75*
%MOMM*%
%FSLAX34Y34*%
%LPD*%
%INBottom Copper*%
%IPPOS*%
%AMOC8*
5,1,8,0,0,1.08239X$1,22.5*%
G01*
%ADD10C,1.930400*%
%ADD11C,1.905000*%
%ADD12C,1.914400*%
%ADD13R,1.914400X1.914400*%
%ADD14C,1.727200*%
%ADD15C,1.651000*%
%ADD16R,1.651000X1.651000*%
%ADD17R,2.214400X2.214400*%
%ADD18C,2.214400*%
%ADD19C,0.508000*%
%ADD20C,1.214400*%

G36*
X267701Y10172D02*
X267701Y10172D01*
X267831Y10174D01*
X267925Y10192D01*
X268020Y10201D01*
X268146Y10235D01*
X268273Y10260D01*
X268362Y10294D01*
X268455Y10319D01*
X268572Y10375D01*
X268693Y10422D01*
X268775Y10472D01*
X268861Y10513D01*
X268967Y10588D01*
X269078Y10656D01*
X269150Y10719D01*
X269227Y10775D01*
X269318Y10868D01*
X269415Y10954D01*
X269475Y11029D01*
X269541Y11097D01*
X269614Y11205D01*
X269695Y11307D01*
X269740Y11391D01*
X269793Y11470D01*
X269846Y11589D01*
X269907Y11704D01*
X269937Y11795D01*
X269976Y11882D01*
X270006Y12009D01*
X270047Y12132D01*
X270060Y12227D01*
X270082Y12320D01*
X270090Y12449D01*
X270108Y12578D01*
X270104Y12674D01*
X270110Y12769D01*
X270095Y12898D01*
X270090Y13028D01*
X270069Y13121D01*
X270058Y13216D01*
X270020Y13341D01*
X269992Y13468D01*
X269955Y13556D01*
X269928Y13647D01*
X269868Y13763D01*
X269818Y13883D01*
X269767Y13963D01*
X269723Y14049D01*
X269645Y14152D01*
X269574Y14261D01*
X269488Y14359D01*
X269451Y14407D01*
X269418Y14438D01*
X269367Y14496D01*
X267503Y16360D01*
X267502Y16360D01*
X241427Y42436D01*
X241301Y42541D01*
X241180Y42653D01*
X241129Y42685D01*
X241082Y42724D01*
X240939Y42806D01*
X240800Y42894D01*
X240744Y42918D01*
X240691Y42948D01*
X240536Y43003D01*
X240384Y43065D01*
X240324Y43078D01*
X240267Y43099D01*
X240104Y43125D01*
X239943Y43160D01*
X239867Y43165D01*
X239822Y43172D01*
X239761Y43171D01*
X239632Y43179D01*
X194056Y43179D01*
X194021Y43176D01*
X193987Y43178D01*
X193798Y43156D01*
X193607Y43139D01*
X193574Y43130D01*
X193540Y43126D01*
X193357Y43071D01*
X193173Y43021D01*
X193142Y43006D01*
X193109Y42996D01*
X192938Y42909D01*
X192766Y42827D01*
X192738Y42807D01*
X192707Y42792D01*
X192555Y42676D01*
X192400Y42565D01*
X192376Y42540D01*
X192349Y42520D01*
X192220Y42380D01*
X192086Y42243D01*
X192067Y42214D01*
X192043Y42188D01*
X191941Y42027D01*
X191834Y41870D01*
X191820Y41838D01*
X191802Y41809D01*
X191729Y41632D01*
X191652Y41458D01*
X191644Y41424D01*
X191631Y41392D01*
X191591Y41205D01*
X191545Y41020D01*
X191543Y40986D01*
X191536Y40952D01*
X191517Y40640D01*
X191517Y39436D01*
X189429Y34394D01*
X185570Y30535D01*
X180528Y28447D01*
X175072Y28447D01*
X170030Y30535D01*
X166896Y33670D01*
X166869Y33692D01*
X166846Y33718D01*
X166697Y33836D01*
X166550Y33959D01*
X166520Y33976D01*
X166493Y33998D01*
X166325Y34088D01*
X166159Y34182D01*
X166127Y34194D01*
X166096Y34210D01*
X165915Y34269D01*
X165735Y34333D01*
X165701Y34339D01*
X165668Y34349D01*
X165479Y34375D01*
X165291Y34407D01*
X165256Y34406D01*
X165222Y34411D01*
X165031Y34403D01*
X164840Y34401D01*
X164806Y34394D01*
X164772Y34393D01*
X164586Y34351D01*
X164398Y34315D01*
X164366Y34302D01*
X164332Y34295D01*
X164157Y34222D01*
X163978Y34153D01*
X163949Y34135D01*
X163917Y34121D01*
X163757Y34018D01*
X163594Y33919D01*
X163568Y33896D01*
X163539Y33877D01*
X163304Y33670D01*
X160170Y30536D01*
X155128Y28447D01*
X149672Y28447D01*
X144630Y30535D01*
X141496Y33670D01*
X141469Y33692D01*
X141446Y33718D01*
X141297Y33836D01*
X141150Y33959D01*
X141120Y33976D01*
X141093Y33998D01*
X140925Y34088D01*
X140759Y34182D01*
X140727Y34194D01*
X140696Y34210D01*
X140515Y34269D01*
X140335Y34333D01*
X140301Y34339D01*
X140268Y34349D01*
X140079Y34375D01*
X139891Y34407D01*
X139856Y34406D01*
X139822Y34411D01*
X139631Y34403D01*
X139440Y34401D01*
X139406Y34394D01*
X139372Y34393D01*
X139186Y34351D01*
X138998Y34315D01*
X138966Y34302D01*
X138932Y34295D01*
X138757Y34222D01*
X138578Y34153D01*
X138549Y34135D01*
X138517Y34121D01*
X138357Y34018D01*
X138194Y33919D01*
X138168Y33896D01*
X138139Y33877D01*
X137904Y33670D01*
X134770Y30536D01*
X129728Y28447D01*
X124272Y28447D01*
X119230Y30535D01*
X115371Y34394D01*
X113283Y39436D01*
X113283Y62164D01*
X115371Y67206D01*
X119230Y71065D01*
X124272Y73153D01*
X129728Y73153D01*
X134770Y71064D01*
X137904Y67930D01*
X137931Y67908D01*
X137954Y67882D01*
X138103Y67763D01*
X138250Y67641D01*
X138280Y67624D01*
X138307Y67602D01*
X138475Y67512D01*
X138641Y67418D01*
X138673Y67406D01*
X138704Y67390D01*
X138885Y67331D01*
X139065Y67267D01*
X139099Y67261D01*
X139132Y67251D01*
X139321Y67224D01*
X139509Y67193D01*
X139544Y67194D01*
X139578Y67189D01*
X139769Y67197D01*
X139959Y67199D01*
X139994Y67206D01*
X140028Y67207D01*
X140214Y67249D01*
X140402Y67285D01*
X140434Y67298D01*
X140468Y67305D01*
X140644Y67379D01*
X140822Y67447D01*
X140851Y67465D01*
X140883Y67479D01*
X141044Y67582D01*
X141206Y67681D01*
X141232Y67704D01*
X141261Y67723D01*
X141496Y67930D01*
X144630Y71065D01*
X149672Y73153D01*
X155128Y73153D01*
X160170Y71064D01*
X163304Y67930D01*
X163331Y67908D01*
X163354Y67882D01*
X163503Y67763D01*
X163650Y67641D01*
X163680Y67624D01*
X163707Y67602D01*
X163875Y67512D01*
X164041Y67418D01*
X164073Y67406D01*
X164104Y67390D01*
X164285Y67331D01*
X164465Y67267D01*
X164499Y67261D01*
X164532Y67251D01*
X164721Y67224D01*
X164909Y67193D01*
X164944Y67194D01*
X164978Y67189D01*
X165169Y67197D01*
X165359Y67199D01*
X165394Y67206D01*
X165428Y67207D01*
X165614Y67249D01*
X165802Y67285D01*
X165834Y67298D01*
X165868Y67305D01*
X166044Y67379D01*
X166222Y67447D01*
X166251Y67465D01*
X166283Y67479D01*
X166444Y67582D01*
X166606Y67681D01*
X166632Y67704D01*
X166661Y67723D01*
X166896Y67930D01*
X170030Y71065D01*
X175072Y73153D01*
X180528Y73153D01*
X185570Y71065D01*
X189429Y67206D01*
X191517Y62164D01*
X191517Y60960D01*
X191520Y60925D01*
X191518Y60891D01*
X191540Y60702D01*
X191557Y60511D01*
X191566Y60478D01*
X191570Y60444D01*
X191625Y60261D01*
X191675Y60077D01*
X191690Y60046D01*
X191700Y60013D01*
X191787Y59842D01*
X191869Y59670D01*
X191889Y59642D01*
X191904Y59611D01*
X192020Y59459D01*
X192131Y59304D01*
X192156Y59280D01*
X192176Y59253D01*
X192316Y59124D01*
X192453Y58990D01*
X192482Y58971D01*
X192508Y58947D01*
X192669Y58845D01*
X192826Y58738D01*
X192858Y58724D01*
X192887Y58706D01*
X193064Y58633D01*
X193238Y58556D01*
X193272Y58548D01*
X193304Y58535D01*
X193491Y58495D01*
X193676Y58449D01*
X193710Y58447D01*
X193744Y58440D01*
X194056Y58421D01*
X245356Y58421D01*
X248157Y57261D01*
X276733Y28684D01*
X276859Y28579D01*
X276980Y28467D01*
X277031Y28435D01*
X277078Y28396D01*
X277221Y28314D01*
X277360Y28226D01*
X277416Y28202D01*
X277469Y28172D01*
X277624Y28117D01*
X277776Y28055D01*
X277836Y28042D01*
X277893Y28021D01*
X278056Y27995D01*
X278217Y27960D01*
X278293Y27955D01*
X278338Y27948D01*
X278399Y27949D01*
X278528Y27941D01*
X452992Y27941D01*
X453155Y27955D01*
X453320Y27962D01*
X453379Y27975D01*
X453440Y27981D01*
X453599Y28024D01*
X453759Y28060D01*
X453816Y28083D01*
X453874Y28099D01*
X454023Y28170D01*
X454175Y28233D01*
X454226Y28266D01*
X454281Y28293D01*
X454415Y28388D01*
X454553Y28478D01*
X454611Y28529D01*
X454647Y28555D01*
X454690Y28598D01*
X454787Y28684D01*
X507256Y81153D01*
X507361Y81279D01*
X507473Y81400D01*
X507505Y81451D01*
X507544Y81498D01*
X507626Y81641D01*
X507714Y81780D01*
X507738Y81836D01*
X507768Y81889D01*
X507823Y82044D01*
X507885Y82196D01*
X507898Y82256D01*
X507919Y82313D01*
X507945Y82476D01*
X507980Y82637D01*
X507985Y82713D01*
X507992Y82758D01*
X507991Y82819D01*
X507999Y82948D01*
X507999Y135492D01*
X507985Y135655D01*
X507978Y135820D01*
X507965Y135879D01*
X507959Y135940D01*
X507916Y136099D01*
X507880Y136259D01*
X507857Y136316D01*
X507841Y136374D01*
X507770Y136523D01*
X507707Y136675D01*
X507674Y136726D01*
X507647Y136781D01*
X507552Y136915D01*
X507462Y137053D01*
X507411Y137111D01*
X507385Y137147D01*
X507342Y137190D01*
X507256Y137287D01*
X471059Y173483D01*
X469899Y176284D01*
X469899Y274320D01*
X469896Y274355D01*
X469898Y274389D01*
X469876Y274578D01*
X469859Y274769D01*
X469850Y274802D01*
X469846Y274836D01*
X469791Y275019D01*
X469741Y275203D01*
X469726Y275234D01*
X469716Y275267D01*
X469629Y275438D01*
X469547Y275610D01*
X469527Y275638D01*
X469512Y275669D01*
X469396Y275821D01*
X469285Y275976D01*
X469260Y276000D01*
X469240Y276027D01*
X469100Y276156D01*
X468963Y276290D01*
X468934Y276309D01*
X468908Y276333D01*
X468747Y276435D01*
X468590Y276542D01*
X468558Y276556D01*
X468529Y276574D01*
X468352Y276647D01*
X468178Y276724D01*
X468144Y276732D01*
X468112Y276745D01*
X467925Y276785D01*
X467740Y276831D01*
X467706Y276833D01*
X467672Y276840D01*
X467360Y276859D01*
X460764Y276859D01*
X457963Y278019D01*
X337076Y398907D01*
X337049Y398929D01*
X337026Y398955D01*
X336877Y399073D01*
X336730Y399196D01*
X336700Y399213D01*
X336673Y399235D01*
X336505Y399325D01*
X336339Y399419D01*
X336307Y399431D01*
X336276Y399447D01*
X336095Y399506D01*
X335915Y399570D01*
X335881Y399576D01*
X335848Y399587D01*
X335659Y399612D01*
X335471Y399644D01*
X335436Y399643D01*
X335402Y399648D01*
X335211Y399640D01*
X335020Y399638D01*
X334986Y399631D01*
X334952Y399630D01*
X334766Y399588D01*
X334578Y399552D01*
X334546Y399540D01*
X334512Y399532D01*
X334336Y399458D01*
X334158Y399390D01*
X334129Y399372D01*
X334097Y399358D01*
X333937Y399255D01*
X333774Y399156D01*
X333748Y399133D01*
X333719Y399114D01*
X333484Y398907D01*
X257542Y322965D01*
X257520Y322938D01*
X257494Y322915D01*
X257376Y322766D01*
X257253Y322619D01*
X257236Y322589D01*
X257214Y322562D01*
X257124Y322394D01*
X257030Y322228D01*
X257018Y322196D01*
X257002Y322165D01*
X256943Y321984D01*
X256879Y321804D01*
X256873Y321770D01*
X256863Y321737D01*
X256837Y321549D01*
X256805Y321360D01*
X256806Y321325D01*
X256801Y321291D01*
X256809Y321100D01*
X256812Y320910D01*
X256818Y320876D01*
X256820Y320841D01*
X256861Y320655D01*
X256897Y320468D01*
X256910Y320435D01*
X256917Y320401D01*
X256991Y320226D01*
X257059Y320048D01*
X257077Y320018D01*
X257091Y319986D01*
X257194Y319826D01*
X257293Y319663D01*
X257316Y319637D01*
X257335Y319608D01*
X257542Y319374D01*
X259081Y317835D01*
X259107Y317813D01*
X259130Y317787D01*
X259279Y317669D01*
X259426Y317546D01*
X259456Y317529D01*
X259483Y317508D01*
X259651Y317418D01*
X259817Y317323D01*
X259849Y317311D01*
X259880Y317295D01*
X260061Y317236D01*
X260241Y317172D01*
X260275Y317166D01*
X260308Y317156D01*
X260497Y317130D01*
X260685Y317099D01*
X260720Y317099D01*
X260754Y317094D01*
X260945Y317102D01*
X261136Y317105D01*
X261170Y317111D01*
X261204Y317113D01*
X261390Y317154D01*
X261578Y317190D01*
X261610Y317203D01*
X261644Y317210D01*
X261820Y317284D01*
X261998Y317352D01*
X262027Y317370D01*
X262059Y317384D01*
X262220Y317487D01*
X262382Y317586D01*
X262408Y317609D01*
X262437Y317628D01*
X262672Y317835D01*
X263920Y319083D01*
X265456Y320200D01*
X267148Y321062D01*
X268954Y321649D01*
X269241Y321694D01*
X269241Y309880D01*
X269241Y298066D01*
X268954Y298111D01*
X267148Y298698D01*
X265456Y299560D01*
X263920Y300677D01*
X262672Y301925D01*
X262645Y301947D01*
X262622Y301973D01*
X262473Y302091D01*
X262326Y302214D01*
X262296Y302231D01*
X262269Y302252D01*
X262101Y302342D01*
X261935Y302437D01*
X261903Y302449D01*
X261872Y302465D01*
X261691Y302524D01*
X261511Y302588D01*
X261477Y302594D01*
X261444Y302604D01*
X261255Y302630D01*
X261067Y302661D01*
X261032Y302661D01*
X260998Y302666D01*
X260807Y302658D01*
X260617Y302655D01*
X260582Y302649D01*
X260548Y302647D01*
X260362Y302606D01*
X260174Y302570D01*
X260142Y302557D01*
X260108Y302550D01*
X259933Y302476D01*
X259754Y302408D01*
X259725Y302389D01*
X259693Y302376D01*
X259533Y302273D01*
X259370Y302174D01*
X259344Y302151D01*
X259315Y302132D01*
X259081Y301925D01*
X254654Y297498D01*
X248934Y295129D01*
X248861Y295091D01*
X248784Y295061D01*
X248662Y294986D01*
X248535Y294920D01*
X248470Y294870D01*
X248399Y294827D01*
X248292Y294732D01*
X248179Y294644D01*
X248124Y294583D01*
X248062Y294529D01*
X247973Y294417D01*
X247877Y294310D01*
X247834Y294240D01*
X247783Y294176D01*
X247715Y294050D01*
X247639Y293928D01*
X247609Y293851D01*
X247570Y293779D01*
X247526Y293643D01*
X247473Y293510D01*
X247456Y293429D01*
X247431Y293351D01*
X247411Y293209D01*
X247382Y293068D01*
X247381Y292986D01*
X247369Y292905D01*
X247375Y292761D01*
X247372Y292618D01*
X247384Y292537D01*
X247388Y292455D01*
X247419Y292315D01*
X247441Y292173D01*
X247467Y292095D01*
X247485Y292015D01*
X247540Y291883D01*
X247587Y291748D01*
X247627Y291676D01*
X247659Y291600D01*
X247737Y291479D01*
X247806Y291354D01*
X247858Y291291D01*
X247903Y291221D01*
X248067Y291036D01*
X248092Y291006D01*
X248100Y290999D01*
X248110Y290987D01*
X413893Y125204D01*
X414019Y125099D01*
X414140Y124987D01*
X414191Y124955D01*
X414238Y124916D01*
X414381Y124834D01*
X414520Y124746D01*
X414576Y124722D01*
X414629Y124692D01*
X414784Y124637D01*
X414936Y124575D01*
X414996Y124562D01*
X415053Y124541D01*
X415216Y124515D01*
X415377Y124480D01*
X415453Y124475D01*
X415498Y124468D01*
X415559Y124469D01*
X415688Y124461D01*
X443476Y124461D01*
X446277Y123301D01*
X478283Y91294D01*
X478336Y91218D01*
X478379Y91176D01*
X478417Y91127D01*
X478539Y91017D01*
X478656Y90901D01*
X478706Y90866D01*
X478751Y90826D01*
X478891Y90739D01*
X479026Y90645D01*
X479095Y90611D01*
X479133Y90588D01*
X479190Y90565D01*
X479307Y90508D01*
X480790Y89894D01*
X485334Y85350D01*
X487793Y79413D01*
X487793Y72987D01*
X485334Y67050D01*
X480790Y62506D01*
X474853Y60047D01*
X468427Y60047D01*
X462490Y62506D01*
X457946Y67050D01*
X455487Y72987D01*
X455487Y79413D01*
X457946Y85350D01*
X458514Y85918D01*
X458536Y85944D01*
X458562Y85967D01*
X458680Y86116D01*
X458803Y86263D01*
X458820Y86293D01*
X458842Y86320D01*
X458932Y86488D01*
X459026Y86654D01*
X459038Y86686D01*
X459054Y86717D01*
X459113Y86898D01*
X459177Y87078D01*
X459183Y87112D01*
X459194Y87145D01*
X459219Y87334D01*
X459251Y87522D01*
X459250Y87557D01*
X459255Y87591D01*
X459247Y87782D01*
X459245Y87973D01*
X459238Y88007D01*
X459237Y88041D01*
X459195Y88227D01*
X459159Y88415D01*
X459146Y88447D01*
X459139Y88481D01*
X459065Y88657D01*
X458997Y88835D01*
X458979Y88864D01*
X458965Y88896D01*
X458862Y89056D01*
X458763Y89219D01*
X458740Y89245D01*
X458721Y89274D01*
X458514Y89509D01*
X439547Y108476D01*
X439421Y108581D01*
X439300Y108693D01*
X439249Y108725D01*
X439202Y108764D01*
X439059Y108846D01*
X438920Y108934D01*
X438864Y108958D01*
X438811Y108988D01*
X438656Y109043D01*
X438504Y109105D01*
X438444Y109118D01*
X438387Y109139D01*
X438224Y109165D01*
X438063Y109200D01*
X437987Y109205D01*
X437942Y109212D01*
X437881Y109211D01*
X437752Y109219D01*
X421640Y109219D01*
X421511Y109208D01*
X421380Y109206D01*
X421287Y109188D01*
X421191Y109179D01*
X421066Y109145D01*
X420938Y109120D01*
X420849Y109086D01*
X420757Y109061D01*
X420640Y109005D01*
X420518Y108958D01*
X420437Y108908D01*
X420350Y108867D01*
X420245Y108792D01*
X420134Y108724D01*
X420062Y108661D01*
X419984Y108605D01*
X419893Y108512D01*
X419796Y108426D01*
X419737Y108351D01*
X419670Y108283D01*
X419597Y108175D01*
X419517Y108073D01*
X419472Y107989D01*
X419418Y107910D01*
X419366Y107791D01*
X419304Y107676D01*
X419275Y107585D01*
X419236Y107498D01*
X419205Y107371D01*
X419165Y107248D01*
X419152Y107153D01*
X419129Y107060D01*
X419121Y106931D01*
X419104Y106802D01*
X419107Y106706D01*
X419102Y106611D01*
X419117Y106482D01*
X419122Y106352D01*
X419143Y106259D01*
X419154Y106164D01*
X419191Y106039D01*
X419220Y105912D01*
X419256Y105824D01*
X419284Y105733D01*
X419343Y105617D01*
X419393Y105497D01*
X419445Y105417D01*
X419488Y105331D01*
X419567Y105228D01*
X419637Y105119D01*
X419724Y105021D01*
X419760Y104973D01*
X419783Y104952D01*
X419788Y104945D01*
X419803Y104931D01*
X419844Y104884D01*
X428101Y96628D01*
X429222Y93920D01*
X429321Y93732D01*
X429417Y93543D01*
X429425Y93533D01*
X429431Y93521D01*
X429561Y93352D01*
X429689Y93185D01*
X429698Y93176D01*
X429706Y93165D01*
X429864Y93023D01*
X430020Y92879D01*
X430031Y92872D01*
X430041Y92864D01*
X430219Y92752D01*
X430400Y92638D01*
X430412Y92633D01*
X430423Y92626D01*
X430620Y92547D01*
X430816Y92467D01*
X430829Y92464D01*
X430841Y92459D01*
X431050Y92416D01*
X431256Y92372D01*
X431272Y92371D01*
X431282Y92369D01*
X431322Y92368D01*
X431568Y92353D01*
X433723Y92353D01*
X435590Y91579D01*
X437019Y90150D01*
X437793Y88283D01*
X437793Y64117D01*
X437019Y62250D01*
X435590Y60821D01*
X433723Y60047D01*
X409557Y60047D01*
X407690Y60821D01*
X406261Y62250D01*
X405487Y64117D01*
X405487Y88283D01*
X406261Y90150D01*
X407847Y91736D01*
X407869Y91763D01*
X407895Y91786D01*
X408013Y91935D01*
X408136Y92082D01*
X408153Y92112D01*
X408175Y92139D01*
X408264Y92307D01*
X408359Y92473D01*
X408371Y92505D01*
X408387Y92536D01*
X408446Y92717D01*
X408510Y92897D01*
X408516Y92931D01*
X408526Y92964D01*
X408552Y93153D01*
X408584Y93341D01*
X408583Y93375D01*
X408588Y93410D01*
X408580Y93601D01*
X408577Y93791D01*
X408571Y93825D01*
X408569Y93860D01*
X408528Y94046D01*
X408492Y94233D01*
X408479Y94266D01*
X408472Y94299D01*
X408398Y94476D01*
X408330Y94653D01*
X408312Y94683D01*
X408298Y94715D01*
X408195Y94875D01*
X408096Y95038D01*
X408073Y95064D01*
X408054Y95093D01*
X407847Y95327D01*
X354056Y149119D01*
X353956Y149202D01*
X353863Y149293D01*
X353783Y149346D01*
X353710Y149408D01*
X353597Y149472D01*
X353490Y149545D01*
X353402Y149584D01*
X353319Y149631D01*
X353197Y149674D01*
X353078Y149727D01*
X352985Y149750D01*
X352895Y149782D01*
X352766Y149803D01*
X352640Y149834D01*
X352545Y149840D01*
X352451Y149855D01*
X352320Y149854D01*
X352191Y149862D01*
X352096Y149850D01*
X352000Y149849D01*
X351873Y149824D01*
X351744Y149809D01*
X351652Y149782D01*
X351558Y149764D01*
X351437Y149717D01*
X351313Y149679D01*
X351228Y149636D01*
X351138Y149601D01*
X351027Y149534D01*
X350911Y149475D01*
X350835Y149417D01*
X350754Y149367D01*
X350656Y149281D01*
X350553Y149203D01*
X350488Y149132D01*
X350416Y149069D01*
X350336Y148967D01*
X350247Y148872D01*
X350196Y148791D01*
X350137Y148716D01*
X350076Y148602D01*
X350006Y148492D01*
X349969Y148403D01*
X349924Y148319D01*
X349884Y148196D01*
X349835Y148075D01*
X349815Y147982D01*
X349785Y147891D01*
X349767Y147762D01*
X349740Y147635D01*
X349732Y147505D01*
X349724Y147445D01*
X349725Y147400D01*
X349721Y147323D01*
X349721Y92224D01*
X349740Y92013D01*
X349756Y91801D01*
X349759Y91788D01*
X349761Y91775D01*
X349817Y91570D01*
X349870Y91365D01*
X349876Y91353D01*
X349879Y91341D01*
X349970Y91151D01*
X350059Y90957D01*
X350067Y90946D01*
X350073Y90934D01*
X350196Y90762D01*
X350318Y90588D01*
X350327Y90579D01*
X350335Y90568D01*
X350487Y90419D01*
X350637Y90271D01*
X350648Y90263D01*
X350657Y90254D01*
X350833Y90135D01*
X351008Y90015D01*
X351022Y90008D01*
X351030Y90002D01*
X351066Y89986D01*
X351244Y89899D01*
X355794Y85350D01*
X358253Y79413D01*
X358253Y72987D01*
X355794Y67050D01*
X351250Y62506D01*
X345313Y60047D01*
X338887Y60047D01*
X332950Y62506D01*
X328406Y67050D01*
X325947Y72987D01*
X325947Y79413D01*
X328406Y85350D01*
X332959Y89902D01*
X333100Y89976D01*
X333289Y90072D01*
X333299Y90080D01*
X333311Y90086D01*
X333478Y90216D01*
X333647Y90344D01*
X333656Y90354D01*
X333667Y90362D01*
X333809Y90519D01*
X333953Y90675D01*
X333960Y90686D01*
X333968Y90696D01*
X334080Y90875D01*
X334194Y91055D01*
X334199Y91067D01*
X334206Y91078D01*
X334284Y91274D01*
X334365Y91472D01*
X334368Y91484D01*
X334373Y91497D01*
X334416Y91705D01*
X334460Y91912D01*
X334461Y91927D01*
X334463Y91938D01*
X334464Y91977D01*
X334479Y92224D01*
X334479Y150660D01*
X334465Y150824D01*
X334458Y150988D01*
X334445Y151048D01*
X334439Y151109D01*
X334396Y151267D01*
X334360Y151428D01*
X334337Y151484D01*
X334321Y151543D01*
X334250Y151691D01*
X334187Y151843D01*
X334154Y151895D01*
X334127Y151950D01*
X334032Y152083D01*
X333942Y152221D01*
X333891Y152279D01*
X333865Y152316D01*
X333822Y152358D01*
X333736Y152456D01*
X316756Y169436D01*
X316656Y169519D01*
X316563Y169610D01*
X316483Y169663D01*
X316410Y169725D01*
X316297Y169789D01*
X316190Y169862D01*
X316102Y169900D01*
X316019Y169948D01*
X315897Y169991D01*
X315778Y170044D01*
X315685Y170067D01*
X315595Y170099D01*
X315466Y170120D01*
X315340Y170151D01*
X315245Y170157D01*
X315151Y170172D01*
X315020Y170170D01*
X314891Y170178D01*
X314796Y170167D01*
X314700Y170166D01*
X314573Y170141D01*
X314444Y170126D01*
X314352Y170099D01*
X314258Y170080D01*
X314137Y170034D01*
X314013Y169996D01*
X313928Y169953D01*
X313838Y169918D01*
X313727Y169851D01*
X313611Y169792D01*
X313535Y169734D01*
X313454Y169684D01*
X313356Y169598D01*
X313253Y169520D01*
X313188Y169449D01*
X313116Y169386D01*
X313036Y169284D01*
X312947Y169189D01*
X312896Y169108D01*
X312837Y169033D01*
X312776Y168918D01*
X312706Y168809D01*
X312669Y168720D01*
X312624Y168636D01*
X312584Y168512D01*
X312535Y168392D01*
X312515Y168299D01*
X312485Y168208D01*
X312467Y168079D01*
X312440Y167952D01*
X312432Y167822D01*
X312424Y167762D01*
X312425Y167717D01*
X312421Y167640D01*
X312421Y87384D01*
X311261Y84583D01*
X308996Y82319D01*
X308891Y82193D01*
X308779Y82072D01*
X308747Y82021D01*
X308708Y81974D01*
X308626Y81831D01*
X308538Y81692D01*
X308514Y81636D01*
X308484Y81583D01*
X308429Y81428D01*
X308367Y81276D01*
X308354Y81216D01*
X308333Y81159D01*
X308307Y80996D01*
X308272Y80835D01*
X308267Y80759D01*
X308260Y80714D01*
X308261Y80653D01*
X308253Y80524D01*
X308253Y64117D01*
X307479Y62250D01*
X306050Y60821D01*
X304183Y60047D01*
X280017Y60047D01*
X278150Y60821D01*
X276721Y62250D01*
X275947Y64117D01*
X275947Y88283D01*
X276721Y90150D01*
X278150Y91579D01*
X280017Y92353D01*
X294640Y92353D01*
X294675Y92356D01*
X294709Y92354D01*
X294898Y92376D01*
X295089Y92393D01*
X295122Y92402D01*
X295156Y92406D01*
X295339Y92461D01*
X295523Y92511D01*
X295554Y92526D01*
X295587Y92536D01*
X295758Y92623D01*
X295930Y92705D01*
X295958Y92725D01*
X295989Y92740D01*
X296141Y92856D01*
X296296Y92967D01*
X296320Y92992D01*
X296347Y93012D01*
X296476Y93152D01*
X296610Y93289D01*
X296629Y93318D01*
X296653Y93344D01*
X296755Y93505D01*
X296862Y93662D01*
X296876Y93694D01*
X296894Y93723D01*
X296966Y93899D01*
X297044Y94074D01*
X297052Y94108D01*
X297065Y94140D01*
X297105Y94327D01*
X297151Y94512D01*
X297153Y94546D01*
X297160Y94580D01*
X297179Y94892D01*
X297179Y173592D01*
X297165Y173755D01*
X297158Y173920D01*
X297145Y173979D01*
X297139Y174040D01*
X297096Y174199D01*
X297060Y174359D01*
X297037Y174416D01*
X297021Y174474D01*
X296950Y174623D01*
X296887Y174775D01*
X296854Y174826D01*
X296827Y174881D01*
X296732Y175015D01*
X296642Y175153D01*
X296591Y175211D01*
X296565Y175247D01*
X296522Y175290D01*
X296436Y175387D01*
X290673Y181150D01*
X290610Y181203D01*
X290553Y181262D01*
X290437Y181347D01*
X290327Y181439D01*
X290256Y181480D01*
X290189Y181528D01*
X290061Y181591D01*
X289936Y181662D01*
X289859Y181690D01*
X289785Y181726D01*
X289647Y181765D01*
X289512Y181813D01*
X289431Y181826D01*
X289352Y181849D01*
X289209Y181863D01*
X289068Y181886D01*
X288986Y181885D01*
X288904Y181894D01*
X288761Y181882D01*
X288618Y181880D01*
X288537Y181865D01*
X288455Y181858D01*
X288316Y181822D01*
X288176Y181795D01*
X288099Y181765D01*
X288019Y181744D01*
X287889Y181684D01*
X287756Y181633D01*
X287685Y181590D01*
X287610Y181555D01*
X287493Y181473D01*
X287371Y181399D01*
X287309Y181344D01*
X287242Y181297D01*
X287141Y181195D01*
X287034Y181100D01*
X286982Y181036D01*
X286924Y180977D01*
X286843Y180860D01*
X286754Y180747D01*
X286715Y180675D01*
X286668Y180607D01*
X286560Y180385D01*
X286541Y180350D01*
X286538Y180340D01*
X286531Y180326D01*
X284162Y174607D01*
X280144Y170589D01*
X280039Y170463D01*
X279927Y170342D01*
X279895Y170290D01*
X279856Y170243D01*
X279774Y170101D01*
X279686Y169962D01*
X279662Y169905D01*
X279632Y169852D01*
X279577Y169698D01*
X279515Y169545D01*
X279502Y169486D01*
X279481Y169428D01*
X279455Y169266D01*
X279420Y169105D01*
X279415Y169028D01*
X279408Y168984D01*
X279409Y168923D01*
X279401Y168793D01*
X279401Y163584D01*
X278241Y160783D01*
X202437Y84979D01*
X199636Y83819D01*
X110244Y83819D01*
X107443Y84979D01*
X49419Y143003D01*
X48259Y145804D01*
X48259Y285352D01*
X48245Y285515D01*
X48238Y285680D01*
X48225Y285739D01*
X48219Y285800D01*
X48176Y285959D01*
X48140Y286119D01*
X48117Y286176D01*
X48101Y286234D01*
X48030Y286383D01*
X47967Y286535D01*
X47934Y286586D01*
X47907Y286641D01*
X47812Y286775D01*
X47722Y286913D01*
X47671Y286971D01*
X47645Y287007D01*
X47602Y287050D01*
X47516Y287147D01*
X41760Y292902D01*
X41115Y293548D01*
X41088Y293570D01*
X41065Y293596D01*
X40915Y293715D01*
X40769Y293837D01*
X40739Y293854D01*
X40712Y293876D01*
X40543Y293966D01*
X40378Y294060D01*
X40346Y294072D01*
X40315Y294088D01*
X40133Y294148D01*
X39954Y294211D01*
X39920Y294217D01*
X39887Y294228D01*
X39697Y294254D01*
X39510Y294285D01*
X39475Y294284D01*
X39441Y294289D01*
X39250Y294281D01*
X39059Y294279D01*
X39025Y294272D01*
X38991Y294271D01*
X38804Y294229D01*
X38617Y294193D01*
X38585Y294181D01*
X38551Y294173D01*
X38375Y294099D01*
X38197Y294031D01*
X38168Y294013D01*
X38136Y293999D01*
X37976Y293896D01*
X37813Y293797D01*
X37787Y293774D01*
X37758Y293755D01*
X37523Y293548D01*
X35331Y291356D01*
X35308Y291329D01*
X35283Y291306D01*
X35165Y291157D01*
X35042Y291010D01*
X35025Y290980D01*
X35003Y290953D01*
X34913Y290785D01*
X34818Y290619D01*
X34807Y290587D01*
X34791Y290556D01*
X34732Y290375D01*
X34668Y290195D01*
X34662Y290161D01*
X34651Y290128D01*
X34625Y289939D01*
X34594Y289751D01*
X34595Y289716D01*
X34590Y289682D01*
X34598Y289491D01*
X34600Y289301D01*
X34607Y289266D01*
X34608Y289232D01*
X34650Y289046D01*
X34686Y288858D01*
X34698Y288826D01*
X34706Y288792D01*
X34780Y288616D01*
X34848Y288438D01*
X34866Y288409D01*
X34879Y288377D01*
X34983Y288216D01*
X35082Y288054D01*
X35105Y288028D01*
X35124Y287999D01*
X35331Y287764D01*
X37890Y285205D01*
X40133Y279791D01*
X40133Y273929D01*
X37890Y268515D01*
X35331Y265956D01*
X35308Y265929D01*
X35283Y265906D01*
X35164Y265757D01*
X35042Y265610D01*
X35025Y265580D01*
X35003Y265553D01*
X34913Y265385D01*
X34818Y265219D01*
X34807Y265187D01*
X34791Y265156D01*
X34732Y264975D01*
X34668Y264795D01*
X34662Y264761D01*
X34651Y264728D01*
X34625Y264539D01*
X34594Y264351D01*
X34595Y264316D01*
X34590Y264282D01*
X34598Y264091D01*
X34600Y263901D01*
X34607Y263866D01*
X34608Y263832D01*
X34650Y263646D01*
X34686Y263458D01*
X34698Y263426D01*
X34706Y263392D01*
X34780Y263216D01*
X34848Y263038D01*
X34866Y263009D01*
X34879Y262977D01*
X34983Y262816D01*
X35082Y262654D01*
X35105Y262628D01*
X35124Y262599D01*
X35331Y262364D01*
X37890Y259805D01*
X40133Y254391D01*
X40133Y248529D01*
X37890Y243115D01*
X35331Y240556D01*
X35308Y240529D01*
X35283Y240506D01*
X35164Y240357D01*
X35042Y240210D01*
X35025Y240180D01*
X35003Y240153D01*
X34913Y239985D01*
X34818Y239819D01*
X34807Y239787D01*
X34791Y239756D01*
X34732Y239575D01*
X34668Y239395D01*
X34662Y239361D01*
X34651Y239328D01*
X34625Y239139D01*
X34594Y238951D01*
X34595Y238916D01*
X34590Y238882D01*
X34598Y238691D01*
X34600Y238501D01*
X34607Y238466D01*
X34608Y238432D01*
X34650Y238246D01*
X34686Y238058D01*
X34698Y238026D01*
X34706Y237992D01*
X34780Y237816D01*
X34848Y237638D01*
X34866Y237609D01*
X34879Y237577D01*
X34983Y237416D01*
X35082Y237254D01*
X35105Y237228D01*
X35124Y237199D01*
X35331Y236964D01*
X37890Y234405D01*
X40133Y228991D01*
X40133Y223129D01*
X37890Y217715D01*
X35331Y215156D01*
X35308Y215129D01*
X35283Y215106D01*
X35164Y214957D01*
X35042Y214810D01*
X35025Y214780D01*
X35003Y214753D01*
X34913Y214585D01*
X34818Y214419D01*
X34807Y214387D01*
X34791Y214356D01*
X34732Y214175D01*
X34668Y213995D01*
X34662Y213961D01*
X34651Y213928D01*
X34625Y213739D01*
X34594Y213551D01*
X34595Y213516D01*
X34590Y213482D01*
X34598Y213291D01*
X34600Y213101D01*
X34607Y213066D01*
X34608Y213032D01*
X34650Y212846D01*
X34686Y212658D01*
X34698Y212626D01*
X34706Y212592D01*
X34780Y212416D01*
X34848Y212238D01*
X34866Y212209D01*
X34879Y212177D01*
X34983Y212016D01*
X35082Y211854D01*
X35105Y211828D01*
X35124Y211799D01*
X35331Y211564D01*
X37890Y209005D01*
X40133Y203591D01*
X40133Y197729D01*
X37890Y192315D01*
X33535Y187959D01*
X33512Y187933D01*
X33487Y187910D01*
X33368Y187760D01*
X33246Y187614D01*
X33229Y187584D01*
X33207Y187557D01*
X33117Y187389D01*
X33022Y187223D01*
X33011Y187191D01*
X32994Y187160D01*
X32936Y186979D01*
X32872Y186799D01*
X32866Y186765D01*
X32855Y186732D01*
X32829Y186543D01*
X32798Y186355D01*
X32799Y186320D01*
X32794Y186286D01*
X32802Y186095D01*
X32804Y185904D01*
X32811Y185870D01*
X32812Y185836D01*
X32854Y185650D01*
X32890Y185462D01*
X32902Y185430D01*
X32910Y185396D01*
X32983Y185220D01*
X33052Y185042D01*
X33070Y185013D01*
X33083Y184981D01*
X33187Y184820D01*
X33286Y184658D01*
X33309Y184632D01*
X33328Y184603D01*
X33535Y184368D01*
X34700Y183203D01*
X35828Y181650D01*
X36700Y179940D01*
X37292Y178115D01*
X37343Y177799D01*
X25400Y177799D01*
X25366Y177796D01*
X25331Y177798D01*
X25142Y177776D01*
X24952Y177759D01*
X24918Y177750D01*
X24884Y177746D01*
X24701Y177691D01*
X24517Y177641D01*
X24486Y177626D01*
X24453Y177616D01*
X24282Y177529D01*
X24111Y177448D01*
X24083Y177427D01*
X24052Y177412D01*
X23900Y177296D01*
X23745Y177185D01*
X23721Y177161D01*
X23693Y177140D01*
X23564Y177000D01*
X23431Y176863D01*
X23411Y176834D01*
X23388Y176809D01*
X23285Y176648D01*
X23179Y176490D01*
X23165Y176458D01*
X23146Y176429D01*
X23074Y176252D01*
X22996Y176078D01*
X22988Y176044D01*
X22975Y176012D01*
X22935Y175826D01*
X22890Y175640D01*
X22888Y175606D01*
X22880Y175572D01*
X22861Y175260D01*
X22864Y175225D01*
X22862Y175191D01*
X22884Y175001D01*
X22901Y174811D01*
X22910Y174778D01*
X22914Y174744D01*
X22969Y174561D01*
X23020Y174377D01*
X23034Y174346D01*
X23044Y174313D01*
X23131Y174142D01*
X23213Y173970D01*
X23233Y173942D01*
X23249Y173911D01*
X23364Y173759D01*
X23475Y173604D01*
X23500Y173580D01*
X23521Y173552D01*
X23661Y173423D01*
X23798Y173290D01*
X23826Y173271D01*
X23852Y173247D01*
X24013Y173145D01*
X24171Y173038D01*
X24202Y173024D01*
X24232Y173005D01*
X24408Y172933D01*
X24583Y172856D01*
X24616Y172848D01*
X24648Y172835D01*
X24835Y172794D01*
X25020Y172749D01*
X25054Y172747D01*
X25088Y172740D01*
X25400Y172721D01*
X37343Y172721D01*
X37292Y172405D01*
X36699Y170580D01*
X35828Y168870D01*
X34700Y167317D01*
X33535Y166152D01*
X33512Y166125D01*
X33486Y166102D01*
X33368Y165953D01*
X33246Y165806D01*
X33229Y165776D01*
X33207Y165749D01*
X33117Y165581D01*
X33022Y165415D01*
X33011Y165383D01*
X32994Y165352D01*
X32936Y165171D01*
X32872Y164991D01*
X32866Y164957D01*
X32855Y164924D01*
X32829Y164735D01*
X32798Y164547D01*
X32799Y164512D01*
X32794Y164478D01*
X32802Y164287D01*
X32804Y164097D01*
X32811Y164062D01*
X32812Y164028D01*
X32854Y163842D01*
X32890Y163654D01*
X32902Y163622D01*
X32910Y163588D01*
X32983Y163413D01*
X33052Y163234D01*
X33070Y163205D01*
X33083Y163173D01*
X33187Y163013D01*
X33286Y162850D01*
X33309Y162824D01*
X33328Y162795D01*
X33535Y162561D01*
X37890Y158205D01*
X40133Y152791D01*
X40133Y146929D01*
X37890Y141515D01*
X35331Y138956D01*
X35308Y138929D01*
X35283Y138906D01*
X35164Y138757D01*
X35042Y138610D01*
X35025Y138580D01*
X35003Y138553D01*
X34913Y138385D01*
X34818Y138219D01*
X34807Y138187D01*
X34791Y138156D01*
X34732Y137975D01*
X34668Y137795D01*
X34662Y137761D01*
X34651Y137728D01*
X34625Y137539D01*
X34594Y137351D01*
X34595Y137316D01*
X34590Y137282D01*
X34598Y137091D01*
X34600Y136901D01*
X34607Y136866D01*
X34608Y136832D01*
X34650Y136646D01*
X34686Y136458D01*
X34698Y136426D01*
X34706Y136392D01*
X34780Y136216D01*
X34848Y136038D01*
X34866Y136009D01*
X34879Y135977D01*
X34983Y135816D01*
X35082Y135654D01*
X35105Y135628D01*
X35124Y135599D01*
X35273Y135430D01*
X35283Y135416D01*
X35293Y135407D01*
X35331Y135364D01*
X37890Y132805D01*
X40133Y127391D01*
X40133Y121529D01*
X37890Y116115D01*
X35331Y113556D01*
X35308Y113529D01*
X35283Y113506D01*
X35164Y113357D01*
X35042Y113210D01*
X35025Y113180D01*
X35003Y113153D01*
X34913Y112985D01*
X34818Y112819D01*
X34807Y112787D01*
X34791Y112756D01*
X34732Y112575D01*
X34668Y112395D01*
X34662Y112361D01*
X34651Y112328D01*
X34625Y112139D01*
X34594Y111951D01*
X34595Y111916D01*
X34590Y111882D01*
X34598Y111691D01*
X34600Y111501D01*
X34607Y111466D01*
X34608Y111432D01*
X34650Y111246D01*
X34686Y111058D01*
X34698Y111026D01*
X34706Y110992D01*
X34780Y110816D01*
X34848Y110638D01*
X34866Y110609D01*
X34879Y110577D01*
X34983Y110416D01*
X35082Y110254D01*
X35105Y110228D01*
X35124Y110199D01*
X35260Y110045D01*
X35276Y110023D01*
X35290Y110010D01*
X35331Y109964D01*
X37890Y107405D01*
X40133Y101991D01*
X40133Y96129D01*
X37890Y90715D01*
X33745Y86570D01*
X28331Y84327D01*
X22469Y84327D01*
X17055Y86570D01*
X14496Y89129D01*
X14396Y89213D01*
X14303Y89303D01*
X14223Y89357D01*
X14150Y89418D01*
X14037Y89483D01*
X13930Y89555D01*
X13842Y89594D01*
X13759Y89642D01*
X13637Y89685D01*
X13518Y89738D01*
X13425Y89760D01*
X13335Y89792D01*
X13207Y89814D01*
X13080Y89844D01*
X12985Y89850D01*
X12891Y89866D01*
X12761Y89864D01*
X12631Y89872D01*
X12536Y89861D01*
X12440Y89860D01*
X12313Y89835D01*
X12184Y89820D01*
X12092Y89792D01*
X11998Y89774D01*
X11877Y89727D01*
X11753Y89690D01*
X11667Y89646D01*
X11578Y89612D01*
X11467Y89544D01*
X11351Y89485D01*
X11275Y89428D01*
X11194Y89378D01*
X11096Y89292D01*
X10993Y89213D01*
X10928Y89143D01*
X10856Y89080D01*
X10776Y88978D01*
X10687Y88882D01*
X10636Y88802D01*
X10577Y88727D01*
X10516Y88612D01*
X10446Y88502D01*
X10409Y88414D01*
X10364Y88330D01*
X10324Y88206D01*
X10275Y88086D01*
X10255Y87992D01*
X10225Y87902D01*
X10207Y87773D01*
X10180Y87646D01*
X10172Y87516D01*
X10164Y87456D01*
X10165Y87411D01*
X10161Y87334D01*
X10161Y12700D01*
X10164Y12665D01*
X10162Y12631D01*
X10184Y12442D01*
X10201Y12251D01*
X10210Y12218D01*
X10214Y12184D01*
X10269Y12001D01*
X10319Y11817D01*
X10334Y11786D01*
X10344Y11753D01*
X10431Y11582D01*
X10513Y11410D01*
X10533Y11382D01*
X10548Y11351D01*
X10664Y11199D01*
X10775Y11044D01*
X10800Y11020D01*
X10820Y10993D01*
X10960Y10864D01*
X11097Y10730D01*
X11126Y10711D01*
X11152Y10687D01*
X11313Y10585D01*
X11470Y10478D01*
X11502Y10464D01*
X11531Y10446D01*
X11708Y10373D01*
X11882Y10296D01*
X11916Y10288D01*
X11948Y10275D01*
X12135Y10235D01*
X12320Y10189D01*
X12354Y10187D01*
X12388Y10180D01*
X12700Y10161D01*
X267572Y10161D01*
X267701Y10172D01*
G37*
G36*
X83984Y288701D02*
X83984Y288701D01*
X84080Y288702D01*
X84207Y288727D01*
X84336Y288742D01*
X84428Y288770D01*
X84522Y288788D01*
X84643Y288835D01*
X84767Y288872D01*
X84852Y288916D01*
X84942Y288950D01*
X85053Y289018D01*
X85169Y289077D01*
X85245Y289134D01*
X85326Y289184D01*
X85424Y289270D01*
X85527Y289349D01*
X85592Y289419D01*
X85664Y289482D01*
X85744Y289584D01*
X85833Y289680D01*
X85884Y289761D01*
X85943Y289835D01*
X86004Y289950D01*
X86074Y290060D01*
X86111Y290148D01*
X86156Y290232D01*
X86196Y290356D01*
X86245Y290476D01*
X86265Y290570D01*
X86295Y290661D01*
X86313Y290789D01*
X86340Y290916D01*
X86348Y291046D01*
X86356Y291107D01*
X86355Y291151D01*
X86359Y291228D01*
X86359Y295793D01*
X86345Y295957D01*
X86338Y296121D01*
X86325Y296181D01*
X86319Y296242D01*
X86276Y296401D01*
X86240Y296561D01*
X86217Y296617D01*
X86201Y296676D01*
X86130Y296824D01*
X86067Y296976D01*
X86034Y297028D01*
X86007Y297083D01*
X85912Y297216D01*
X85822Y297355D01*
X85771Y297412D01*
X85745Y297449D01*
X85702Y297491D01*
X85616Y297589D01*
X81598Y301607D01*
X79374Y306975D01*
X79374Y312785D01*
X81598Y318153D01*
X85616Y322171D01*
X85721Y322297D01*
X85833Y322418D01*
X85865Y322470D01*
X85904Y322517D01*
X85986Y322659D01*
X86074Y322798D01*
X86098Y322855D01*
X86128Y322908D01*
X86183Y323062D01*
X86245Y323215D01*
X86258Y323274D01*
X86279Y323332D01*
X86305Y323494D01*
X86340Y323655D01*
X86345Y323732D01*
X86352Y323776D01*
X86351Y323837D01*
X86359Y323967D01*
X86359Y324096D01*
X87519Y326897D01*
X280163Y519541D01*
X282964Y520701D01*
X453636Y520701D01*
X456437Y519541D01*
X473821Y502157D01*
X474981Y499356D01*
X474981Y415688D01*
X474995Y415525D01*
X475002Y415360D01*
X475015Y415301D01*
X475021Y415240D01*
X475064Y415081D01*
X475100Y414921D01*
X475123Y414864D01*
X475139Y414806D01*
X475210Y414657D01*
X475273Y414505D01*
X475306Y414454D01*
X475333Y414399D01*
X475428Y414265D01*
X475518Y414127D01*
X475569Y414069D01*
X475595Y414033D01*
X475638Y413990D01*
X475724Y413893D01*
X505841Y383776D01*
X505967Y383671D01*
X506088Y383559D01*
X506139Y383527D01*
X506186Y383488D01*
X506329Y383406D01*
X506468Y383318D01*
X506524Y383294D01*
X506577Y383264D01*
X506732Y383209D01*
X506884Y383147D01*
X506944Y383134D01*
X507001Y383113D01*
X507164Y383087D01*
X507325Y383052D01*
X507401Y383047D01*
X507446Y383040D01*
X507507Y383041D01*
X507636Y383033D01*
X510931Y383033D01*
X516345Y380790D01*
X518144Y378991D01*
X518244Y378907D01*
X518337Y378817D01*
X518417Y378763D01*
X518490Y378702D01*
X518603Y378637D01*
X518710Y378565D01*
X518798Y378526D01*
X518881Y378478D01*
X519003Y378435D01*
X519122Y378382D01*
X519215Y378360D01*
X519305Y378328D01*
X519433Y378306D01*
X519560Y378276D01*
X519655Y378270D01*
X519749Y378254D01*
X519879Y378256D01*
X520009Y378248D01*
X520104Y378259D01*
X520200Y378260D01*
X520327Y378285D01*
X520456Y378300D01*
X520548Y378328D01*
X520642Y378346D01*
X520763Y378393D01*
X520887Y378430D01*
X520973Y378474D01*
X521062Y378508D01*
X521173Y378576D01*
X521289Y378635D01*
X521365Y378692D01*
X521446Y378742D01*
X521544Y378828D01*
X521647Y378907D01*
X521712Y378977D01*
X521784Y379040D01*
X521864Y379142D01*
X521953Y379238D01*
X522004Y379318D01*
X522063Y379393D01*
X522125Y379508D01*
X522194Y379618D01*
X522231Y379706D01*
X522276Y379790D01*
X522316Y379914D01*
X522365Y380034D01*
X522385Y380128D01*
X522415Y380218D01*
X522433Y380347D01*
X522460Y380474D01*
X522468Y380604D01*
X522476Y380664D01*
X522475Y380709D01*
X522479Y380786D01*
X522479Y406614D01*
X522468Y406743D01*
X522466Y406873D01*
X522448Y406967D01*
X522439Y407062D01*
X522405Y407188D01*
X522380Y407315D01*
X522346Y407405D01*
X522321Y407497D01*
X522265Y407614D01*
X522218Y407735D01*
X522168Y407817D01*
X522127Y407903D01*
X522052Y408009D01*
X521984Y408120D01*
X521921Y408192D01*
X521865Y408269D01*
X521772Y408360D01*
X521686Y408457D01*
X521611Y408517D01*
X521543Y408583D01*
X521435Y408656D01*
X521333Y408737D01*
X521249Y408782D01*
X521170Y408835D01*
X521051Y408888D01*
X520936Y408950D01*
X520845Y408979D01*
X520758Y409018D01*
X520631Y409049D01*
X520508Y409089D01*
X520413Y409102D01*
X520320Y409124D01*
X520191Y409132D01*
X520062Y409150D01*
X519966Y409146D01*
X519871Y409152D01*
X519742Y409137D01*
X519612Y409132D01*
X519519Y409111D01*
X519424Y409100D01*
X519299Y409062D01*
X519172Y409034D01*
X519084Y408997D01*
X518993Y408970D01*
X518877Y408911D01*
X518757Y408861D01*
X518677Y408809D01*
X518591Y408765D01*
X518488Y408687D01*
X518379Y408616D01*
X518281Y408530D01*
X518233Y408493D01*
X518202Y408460D01*
X518144Y408409D01*
X516345Y406610D01*
X510931Y404367D01*
X505069Y404367D01*
X499655Y406610D01*
X495510Y410755D01*
X493267Y416169D01*
X493267Y422031D01*
X495510Y427445D01*
X498069Y430004D01*
X498092Y430031D01*
X498117Y430054D01*
X498236Y430203D01*
X498358Y430350D01*
X498375Y430380D01*
X498397Y430407D01*
X498487Y430575D01*
X498582Y430741D01*
X498593Y430773D01*
X498609Y430804D01*
X498668Y430985D01*
X498732Y431165D01*
X498738Y431199D01*
X498749Y431232D01*
X498775Y431421D01*
X498806Y431609D01*
X498805Y431644D01*
X498810Y431678D01*
X498802Y431869D01*
X498800Y432059D01*
X498793Y432094D01*
X498792Y432128D01*
X498750Y432314D01*
X498714Y432502D01*
X498702Y432534D01*
X498694Y432568D01*
X498620Y432744D01*
X498552Y432922D01*
X498534Y432951D01*
X498521Y432983D01*
X498417Y433144D01*
X498318Y433306D01*
X498295Y433332D01*
X498276Y433361D01*
X498069Y433596D01*
X495510Y436155D01*
X493267Y441569D01*
X493267Y447431D01*
X495510Y452845D01*
X498069Y455404D01*
X498092Y455431D01*
X498117Y455454D01*
X498236Y455603D01*
X498358Y455750D01*
X498375Y455780D01*
X498397Y455807D01*
X498487Y455975D01*
X498582Y456141D01*
X498593Y456173D01*
X498609Y456204D01*
X498668Y456385D01*
X498732Y456565D01*
X498738Y456599D01*
X498749Y456632D01*
X498775Y456821D01*
X498806Y457009D01*
X498805Y457044D01*
X498810Y457078D01*
X498802Y457269D01*
X498800Y457459D01*
X498793Y457494D01*
X498792Y457528D01*
X498750Y457714D01*
X498714Y457902D01*
X498702Y457934D01*
X498694Y457968D01*
X498620Y458144D01*
X498552Y458322D01*
X498534Y458351D01*
X498521Y458383D01*
X498417Y458544D01*
X498318Y458706D01*
X498295Y458732D01*
X498276Y458761D01*
X498069Y458996D01*
X495510Y461555D01*
X493267Y466969D01*
X493267Y472831D01*
X495510Y478245D01*
X498069Y480804D01*
X498092Y480831D01*
X498117Y480854D01*
X498236Y481003D01*
X498358Y481150D01*
X498375Y481180D01*
X498397Y481207D01*
X498487Y481375D01*
X498582Y481541D01*
X498593Y481573D01*
X498609Y481604D01*
X498668Y481785D01*
X498732Y481965D01*
X498738Y481999D01*
X498749Y482032D01*
X498775Y482221D01*
X498806Y482409D01*
X498805Y482444D01*
X498810Y482478D01*
X498802Y482669D01*
X498800Y482859D01*
X498793Y482894D01*
X498792Y482928D01*
X498750Y483114D01*
X498714Y483302D01*
X498702Y483334D01*
X498694Y483368D01*
X498620Y483544D01*
X498552Y483722D01*
X498534Y483751D01*
X498521Y483783D01*
X498417Y483944D01*
X498318Y484106D01*
X498295Y484132D01*
X498276Y484161D01*
X498069Y484396D01*
X495510Y486955D01*
X493267Y492369D01*
X493267Y498231D01*
X495510Y503645D01*
X498069Y506204D01*
X498092Y506231D01*
X498117Y506254D01*
X498236Y506403D01*
X498358Y506550D01*
X498375Y506580D01*
X498397Y506607D01*
X498487Y506775D01*
X498582Y506941D01*
X498593Y506973D01*
X498609Y507004D01*
X498668Y507185D01*
X498732Y507365D01*
X498738Y507399D01*
X498749Y507432D01*
X498775Y507621D01*
X498806Y507809D01*
X498805Y507844D01*
X498810Y507878D01*
X498802Y508069D01*
X498800Y508259D01*
X498793Y508294D01*
X498792Y508328D01*
X498750Y508514D01*
X498714Y508702D01*
X498702Y508734D01*
X498694Y508768D01*
X498620Y508944D01*
X498552Y509122D01*
X498534Y509151D01*
X498521Y509183D01*
X498417Y509344D01*
X498318Y509506D01*
X498295Y509532D01*
X498276Y509561D01*
X498069Y509796D01*
X495510Y512355D01*
X493267Y517769D01*
X493267Y523631D01*
X495510Y529045D01*
X498069Y531604D01*
X498092Y531631D01*
X498117Y531654D01*
X498236Y531803D01*
X498358Y531950D01*
X498375Y531980D01*
X498397Y532007D01*
X498487Y532175D01*
X498582Y532341D01*
X498593Y532373D01*
X498609Y532404D01*
X498668Y532585D01*
X498732Y532765D01*
X498738Y532799D01*
X498749Y532832D01*
X498775Y533021D01*
X498806Y533209D01*
X498805Y533244D01*
X498810Y533278D01*
X498802Y533469D01*
X498800Y533659D01*
X498793Y533694D01*
X498792Y533728D01*
X498750Y533914D01*
X498714Y534102D01*
X498702Y534134D01*
X498694Y534168D01*
X498620Y534344D01*
X498552Y534522D01*
X498534Y534551D01*
X498521Y534583D01*
X498417Y534744D01*
X498318Y534906D01*
X498295Y534932D01*
X498276Y534961D01*
X498069Y535196D01*
X495510Y537755D01*
X493267Y543169D01*
X493267Y549031D01*
X495510Y554445D01*
X499655Y558590D01*
X505069Y560833D01*
X511055Y560833D01*
X511213Y560813D01*
X511399Y560784D01*
X511436Y560784D01*
X511472Y560780D01*
X511661Y560789D01*
X511849Y560794D01*
X511885Y560801D01*
X511922Y560803D01*
X512105Y560845D01*
X512290Y560883D01*
X512325Y560897D01*
X512361Y560905D01*
X512534Y560979D01*
X512709Y561049D01*
X512740Y561068D01*
X512774Y561083D01*
X512931Y561187D01*
X513092Y561286D01*
X513119Y561311D01*
X513150Y561331D01*
X513286Y561461D01*
X513427Y561587D01*
X513449Y561616D01*
X513476Y561642D01*
X513587Y561794D01*
X513703Y561943D01*
X513720Y561975D01*
X513742Y562005D01*
X513824Y562174D01*
X513912Y562341D01*
X513923Y562377D01*
X513939Y562410D01*
X513991Y562591D01*
X514048Y562771D01*
X514052Y562807D01*
X514062Y562843D01*
X514081Y563030D01*
X514105Y563217D01*
X514103Y563254D01*
X514107Y563291D01*
X514092Y563479D01*
X514083Y563667D01*
X514075Y563703D01*
X514072Y563740D01*
X514024Y563922D01*
X513982Y564106D01*
X513967Y564140D01*
X513958Y564175D01*
X513879Y564346D01*
X513804Y564520D01*
X513784Y564551D01*
X513769Y564584D01*
X513661Y564738D01*
X513557Y564896D01*
X513527Y564929D01*
X513510Y564953D01*
X513467Y564996D01*
X513348Y565128D01*
X479283Y598611D01*
X479165Y598708D01*
X479052Y598813D01*
X478991Y598851D01*
X478936Y598897D01*
X478802Y598972D01*
X478672Y599054D01*
X478605Y599082D01*
X478543Y599117D01*
X478398Y599167D01*
X478256Y599225D01*
X478185Y599240D01*
X478117Y599264D01*
X477966Y599288D01*
X477815Y599320D01*
X477723Y599326D01*
X477672Y599334D01*
X477615Y599332D01*
X477503Y599339D01*
X55868Y599339D01*
X55703Y599325D01*
X55537Y599318D01*
X55479Y599305D01*
X55419Y599299D01*
X55259Y599256D01*
X55098Y599220D01*
X55043Y599197D01*
X54985Y599181D01*
X54836Y599110D01*
X54683Y599046D01*
X54632Y599013D01*
X54578Y598987D01*
X54444Y598891D01*
X54305Y598801D01*
X54248Y598751D01*
X54212Y598725D01*
X54170Y598681D01*
X54071Y598594D01*
X20708Y565166D01*
X20626Y565067D01*
X20536Y564975D01*
X20482Y564894D01*
X20420Y564820D01*
X20356Y564708D01*
X20284Y564602D01*
X20245Y564513D01*
X20197Y564429D01*
X20154Y564307D01*
X20102Y564190D01*
X20079Y564096D01*
X20047Y564004D01*
X20026Y563877D01*
X19995Y563752D01*
X19989Y563656D01*
X19973Y563560D01*
X19975Y563432D01*
X19967Y563303D01*
X19979Y563207D01*
X19980Y563110D01*
X20005Y562984D01*
X20020Y562856D01*
X20048Y562763D01*
X20066Y562668D01*
X20113Y562548D01*
X20150Y562425D01*
X20194Y562338D01*
X20229Y562248D01*
X20296Y562138D01*
X20354Y562023D01*
X20413Y561946D01*
X20463Y561864D01*
X20548Y561767D01*
X20626Y561665D01*
X20697Y561599D01*
X20762Y561527D01*
X20862Y561447D01*
X20957Y561359D01*
X21039Y561307D01*
X21115Y561248D01*
X21228Y561187D01*
X21337Y561118D01*
X21427Y561081D01*
X21512Y561035D01*
X21634Y560996D01*
X21754Y560947D01*
X21848Y560926D01*
X21940Y560896D01*
X22068Y560879D01*
X22194Y560852D01*
X22326Y560844D01*
X22386Y560836D01*
X22430Y560837D01*
X22506Y560833D01*
X28331Y560833D01*
X33745Y558590D01*
X37871Y554464D01*
X37997Y554359D01*
X38118Y554247D01*
X38169Y554215D01*
X38216Y554176D01*
X38359Y554094D01*
X38498Y554006D01*
X38554Y553982D01*
X38607Y553952D01*
X38762Y553897D01*
X38914Y553835D01*
X38974Y553822D01*
X39031Y553801D01*
X39193Y553775D01*
X39354Y553740D01*
X39432Y553735D01*
X39476Y553728D01*
X39536Y553729D01*
X39666Y553721D01*
X166616Y553721D01*
X169417Y552561D01*
X176681Y545296D01*
X176807Y545191D01*
X176928Y545079D01*
X176979Y545047D01*
X177026Y545008D01*
X177169Y544926D01*
X177308Y544838D01*
X177364Y544814D01*
X177417Y544784D01*
X177572Y544729D01*
X177724Y544667D01*
X177784Y544654D01*
X177841Y544633D01*
X178004Y544607D01*
X178165Y544572D01*
X178241Y544567D01*
X178286Y544560D01*
X178347Y544561D01*
X178476Y544553D01*
X180018Y544553D01*
X184117Y542855D01*
X187255Y539717D01*
X188953Y535618D01*
X188953Y531182D01*
X187255Y527083D01*
X184117Y523945D01*
X180018Y522247D01*
X175582Y522247D01*
X171483Y523945D01*
X168345Y527083D01*
X166647Y531182D01*
X166647Y532724D01*
X166633Y532887D01*
X166626Y533052D01*
X166613Y533111D01*
X166607Y533172D01*
X166564Y533331D01*
X166528Y533491D01*
X166505Y533548D01*
X166489Y533606D01*
X166418Y533755D01*
X166355Y533907D01*
X166322Y533958D01*
X166295Y534013D01*
X166200Y534147D01*
X166110Y534285D01*
X166059Y534343D01*
X166033Y534379D01*
X165990Y534422D01*
X165904Y534519D01*
X162687Y537736D01*
X162561Y537841D01*
X162440Y537953D01*
X162389Y537985D01*
X162342Y538024D01*
X162199Y538106D01*
X162060Y538194D01*
X162004Y538218D01*
X161951Y538248D01*
X161796Y538303D01*
X161644Y538365D01*
X161584Y538378D01*
X161527Y538399D01*
X161364Y538425D01*
X161203Y538460D01*
X161127Y538465D01*
X161082Y538472D01*
X161021Y538471D01*
X160892Y538479D01*
X39666Y538479D01*
X39503Y538465D01*
X39338Y538458D01*
X39279Y538445D01*
X39218Y538439D01*
X39059Y538396D01*
X38899Y538360D01*
X38842Y538337D01*
X38783Y538321D01*
X38635Y538250D01*
X38483Y538187D01*
X38432Y538154D01*
X38377Y538127D01*
X38243Y538032D01*
X38105Y537942D01*
X38047Y537891D01*
X38011Y537865D01*
X37968Y537822D01*
X37871Y537736D01*
X35331Y535196D01*
X35308Y535169D01*
X35283Y535146D01*
X35165Y534997D01*
X35042Y534850D01*
X35025Y534820D01*
X35003Y534793D01*
X34913Y534625D01*
X34818Y534459D01*
X34807Y534427D01*
X34791Y534396D01*
X34732Y534215D01*
X34668Y534035D01*
X34662Y534001D01*
X34651Y533968D01*
X34625Y533779D01*
X34594Y533591D01*
X34595Y533556D01*
X34590Y533522D01*
X34598Y533331D01*
X34600Y533140D01*
X34607Y533106D01*
X34608Y533072D01*
X34650Y532886D01*
X34686Y532698D01*
X34698Y532666D01*
X34706Y532632D01*
X34779Y532456D01*
X34848Y532278D01*
X34866Y532249D01*
X34879Y532217D01*
X34983Y532057D01*
X35082Y531894D01*
X35105Y531868D01*
X35124Y531839D01*
X35331Y531604D01*
X37871Y529064D01*
X37997Y528959D01*
X38118Y528847D01*
X38169Y528815D01*
X38216Y528776D01*
X38359Y528694D01*
X38498Y528606D01*
X38554Y528582D01*
X38607Y528552D01*
X38762Y528497D01*
X38914Y528435D01*
X38974Y528422D01*
X39031Y528401D01*
X39194Y528375D01*
X39354Y528340D01*
X39431Y528335D01*
X39476Y528328D01*
X39537Y528329D01*
X39666Y528321D01*
X130497Y528321D01*
X130660Y528335D01*
X130825Y528342D01*
X130884Y528355D01*
X130945Y528361D01*
X131104Y528404D01*
X131264Y528440D01*
X131321Y528463D01*
X131379Y528479D01*
X131528Y528550D01*
X131680Y528613D01*
X131731Y528646D01*
X131786Y528673D01*
X131920Y528768D01*
X132058Y528858D01*
X132116Y528909D01*
X132152Y528935D01*
X132195Y528978D01*
X132292Y529064D01*
X133383Y530155D01*
X137482Y531853D01*
X141918Y531853D01*
X146017Y530155D01*
X149155Y527017D01*
X150853Y522918D01*
X150853Y518482D01*
X149155Y514383D01*
X146017Y511245D01*
X141918Y509547D01*
X137482Y509547D01*
X133383Y511245D01*
X132292Y512336D01*
X132166Y512441D01*
X132045Y512553D01*
X131994Y512585D01*
X131947Y512624D01*
X131804Y512706D01*
X131665Y512794D01*
X131609Y512818D01*
X131556Y512848D01*
X131401Y512903D01*
X131249Y512965D01*
X131189Y512978D01*
X131132Y512999D01*
X130969Y513025D01*
X130808Y513060D01*
X130732Y513065D01*
X130687Y513072D01*
X130626Y513071D01*
X130497Y513079D01*
X39666Y513079D01*
X39503Y513065D01*
X39338Y513058D01*
X39279Y513045D01*
X39218Y513039D01*
X39059Y512996D01*
X38899Y512960D01*
X38842Y512937D01*
X38783Y512921D01*
X38635Y512850D01*
X38483Y512787D01*
X38432Y512754D01*
X38377Y512727D01*
X38243Y512632D01*
X38105Y512542D01*
X38047Y512491D01*
X38011Y512465D01*
X37968Y512422D01*
X37871Y512336D01*
X35331Y509796D01*
X35308Y509769D01*
X35283Y509746D01*
X35165Y509597D01*
X35042Y509450D01*
X35025Y509420D01*
X35003Y509393D01*
X34913Y509225D01*
X34818Y509059D01*
X34807Y509027D01*
X34791Y508996D01*
X34732Y508815D01*
X34668Y508635D01*
X34662Y508601D01*
X34651Y508568D01*
X34625Y508379D01*
X34594Y508191D01*
X34595Y508156D01*
X34590Y508122D01*
X34598Y507931D01*
X34600Y507741D01*
X34607Y507706D01*
X34608Y507672D01*
X34650Y507486D01*
X34686Y507298D01*
X34698Y507266D01*
X34706Y507232D01*
X34780Y507056D01*
X34848Y506878D01*
X34866Y506849D01*
X34879Y506817D01*
X34983Y506656D01*
X35082Y506494D01*
X35105Y506468D01*
X35124Y506439D01*
X35331Y506204D01*
X37871Y503664D01*
X37997Y503559D01*
X38118Y503447D01*
X38169Y503415D01*
X38216Y503376D01*
X38359Y503294D01*
X38498Y503206D01*
X38554Y503182D01*
X38607Y503152D01*
X38762Y503097D01*
X38914Y503035D01*
X38974Y503022D01*
X39031Y503001D01*
X39194Y502975D01*
X39354Y502940D01*
X39431Y502935D01*
X39476Y502928D01*
X39537Y502929D01*
X39607Y502924D01*
X42417Y501761D01*
X62341Y481837D01*
X63501Y479036D01*
X63501Y309008D01*
X63515Y308845D01*
X63522Y308680D01*
X63535Y308621D01*
X63541Y308560D01*
X63584Y308401D01*
X63620Y308241D01*
X63643Y308184D01*
X63659Y308126D01*
X63730Y307977D01*
X63793Y307825D01*
X63826Y307774D01*
X63853Y307719D01*
X63948Y307585D01*
X64038Y307447D01*
X64089Y307389D01*
X64115Y307353D01*
X64158Y307310D01*
X64244Y307213D01*
X82024Y289433D01*
X82124Y289349D01*
X82217Y289259D01*
X82297Y289205D01*
X82370Y289144D01*
X82483Y289079D01*
X82590Y289007D01*
X82678Y288968D01*
X82761Y288921D01*
X82883Y288877D01*
X83002Y288824D01*
X83095Y288802D01*
X83185Y288770D01*
X83314Y288749D01*
X83440Y288718D01*
X83535Y288712D01*
X83629Y288696D01*
X83760Y288698D01*
X83889Y288690D01*
X83984Y288701D01*
G37*
G36*
X166366Y231145D02*
X166366Y231145D01*
X166418Y231143D01*
X166589Y231165D01*
X166762Y231181D01*
X166813Y231194D01*
X166864Y231201D01*
X167029Y231254D01*
X167197Y231299D01*
X167244Y231322D01*
X167293Y231337D01*
X167447Y231418D01*
X167603Y231493D01*
X167646Y231523D01*
X167692Y231547D01*
X167829Y231654D01*
X167969Y231755D01*
X168006Y231792D01*
X168047Y231824D01*
X168163Y231953D01*
X168283Y232077D01*
X168313Y232121D01*
X168347Y232159D01*
X168438Y232307D01*
X168535Y232450D01*
X168557Y232498D01*
X168584Y232542D01*
X168648Y232704D01*
X168718Y232862D01*
X168730Y232913D01*
X168749Y232961D01*
X168783Y233131D01*
X168824Y233300D01*
X168828Y233352D01*
X168838Y233403D01*
X168841Y233576D01*
X168852Y233749D01*
X168846Y233801D01*
X168847Y233853D01*
X168820Y234024D01*
X168800Y234196D01*
X168785Y234246D01*
X168777Y234298D01*
X168720Y234461D01*
X168670Y234627D01*
X168646Y234674D01*
X168629Y234723D01*
X168544Y234874D01*
X168465Y235029D01*
X168434Y235070D01*
X168408Y235115D01*
X168298Y235249D01*
X168193Y235387D01*
X168155Y235423D01*
X168122Y235463D01*
X167990Y235575D01*
X167862Y235692D01*
X167818Y235721D01*
X167778Y235754D01*
X167629Y235841D01*
X167482Y235934D01*
X167434Y235954D01*
X167389Y235980D01*
X167098Y236095D01*
X166236Y236375D01*
X164722Y237147D01*
X163347Y238145D01*
X162145Y239347D01*
X161147Y240722D01*
X160375Y242236D01*
X159854Y243841D01*
X170380Y243841D01*
X170414Y243844D01*
X170449Y243842D01*
X170638Y243864D01*
X170828Y243880D01*
X170862Y243890D01*
X170896Y243894D01*
X171079Y243949D01*
X171263Y243999D01*
X171294Y244014D01*
X171327Y244024D01*
X171498Y244111D01*
X171669Y244192D01*
X171697Y244213D01*
X171728Y244228D01*
X171880Y244343D01*
X172035Y244455D01*
X172059Y244479D01*
X172087Y244500D01*
X172087Y244501D01*
X172216Y244640D01*
X172349Y244777D01*
X172350Y244778D01*
X172369Y244806D01*
X172393Y244832D01*
X172495Y244993D01*
X172602Y245151D01*
X172616Y245182D01*
X172634Y245212D01*
X172707Y245388D01*
X172784Y245563D01*
X172792Y245596D01*
X172805Y245628D01*
X172846Y245815D01*
X172891Y246000D01*
X172893Y246034D01*
X172900Y246068D01*
X172919Y246380D01*
X172919Y256906D01*
X174524Y256385D01*
X176038Y255613D01*
X177413Y254615D01*
X177709Y254318D01*
X177809Y254235D01*
X177902Y254144D01*
X177982Y254090D01*
X178055Y254029D01*
X178168Y253965D01*
X178275Y253892D01*
X178363Y253853D01*
X178446Y253806D01*
X178568Y253762D01*
X178687Y253710D01*
X178780Y253687D01*
X178870Y253655D01*
X178998Y253634D01*
X179125Y253603D01*
X179220Y253597D01*
X179314Y253581D01*
X179444Y253583D01*
X179574Y253575D01*
X179669Y253586D01*
X179764Y253588D01*
X179892Y253612D01*
X180021Y253627D01*
X180113Y253655D01*
X180207Y253673D01*
X180328Y253720D01*
X180452Y253758D01*
X180538Y253801D01*
X180627Y253835D01*
X180738Y253903D01*
X180854Y253962D01*
X180930Y254020D01*
X181011Y254069D01*
X181109Y254155D01*
X181212Y254234D01*
X181277Y254304D01*
X181349Y254367D01*
X181429Y254469D01*
X181518Y254565D01*
X181569Y254646D01*
X181628Y254720D01*
X181690Y254835D01*
X181759Y254945D01*
X181796Y255033D01*
X181841Y255117D01*
X181881Y255241D01*
X181930Y255361D01*
X181934Y255380D01*
X182821Y257520D01*
X182846Y257543D01*
X182965Y257693D01*
X183087Y257839D01*
X183104Y257869D01*
X183126Y257896D01*
X183216Y258064D01*
X183310Y258230D01*
X183322Y258262D01*
X183338Y258293D01*
X183397Y258474D01*
X183461Y258654D01*
X183467Y258688D01*
X183478Y258721D01*
X183504Y258911D01*
X183535Y259098D01*
X183534Y259133D01*
X183539Y259167D01*
X183531Y259358D01*
X183529Y259548D01*
X183522Y259582D01*
X183521Y259617D01*
X183479Y259803D01*
X183443Y259990D01*
X183431Y260023D01*
X183423Y260057D01*
X183350Y260232D01*
X183281Y260410D01*
X183263Y260440D01*
X183249Y260472D01*
X183146Y260632D01*
X183047Y260795D01*
X183024Y260821D01*
X183005Y260850D01*
X182798Y261084D01*
X181143Y262740D01*
X181142Y262740D01*
X149352Y294531D01*
X149226Y294636D01*
X149105Y294748D01*
X149054Y294780D01*
X149007Y294819D01*
X148864Y294901D01*
X148725Y294989D01*
X148669Y295013D01*
X148616Y295043D01*
X148461Y295098D01*
X148309Y295160D01*
X148249Y295173D01*
X148192Y295194D01*
X148029Y295220D01*
X147868Y295255D01*
X147792Y295260D01*
X147747Y295267D01*
X147686Y295266D01*
X147557Y295274D01*
X141875Y295274D01*
X136507Y297498D01*
X132079Y301925D01*
X132053Y301947D01*
X132030Y301973D01*
X131880Y302091D01*
X131734Y302214D01*
X131704Y302231D01*
X131677Y302253D01*
X131509Y302343D01*
X131343Y302437D01*
X131310Y302449D01*
X131280Y302465D01*
X131099Y302524D01*
X130919Y302588D01*
X130885Y302594D01*
X130852Y302604D01*
X130663Y302630D01*
X130475Y302661D01*
X130440Y302661D01*
X130406Y302666D01*
X130215Y302658D01*
X130024Y302655D01*
X129990Y302649D01*
X129956Y302647D01*
X129770Y302606D01*
X129582Y302570D01*
X129550Y302557D01*
X129516Y302550D01*
X129340Y302476D01*
X129162Y302408D01*
X129133Y302389D01*
X129101Y302376D01*
X128941Y302273D01*
X128778Y302174D01*
X128752Y302151D01*
X128723Y302132D01*
X128488Y301925D01*
X127240Y300677D01*
X125704Y299560D01*
X124012Y298698D01*
X122206Y298111D01*
X121919Y298066D01*
X121919Y309880D01*
X121919Y321694D01*
X122206Y321649D01*
X124012Y321062D01*
X125704Y320200D01*
X127240Y319083D01*
X128488Y317835D01*
X128515Y317813D01*
X128538Y317787D01*
X128687Y317669D01*
X128834Y317546D01*
X128864Y317529D01*
X128891Y317508D01*
X129059Y317418D01*
X129225Y317323D01*
X129257Y317311D01*
X129288Y317295D01*
X129469Y317236D01*
X129649Y317172D01*
X129683Y317166D01*
X129716Y317156D01*
X129905Y317130D01*
X130093Y317099D01*
X130128Y317099D01*
X130162Y317094D01*
X130353Y317102D01*
X130543Y317105D01*
X130577Y317111D01*
X130612Y317113D01*
X130798Y317154D01*
X130985Y317190D01*
X131018Y317203D01*
X131052Y317210D01*
X131228Y317284D01*
X131405Y317352D01*
X131435Y317370D01*
X131467Y317384D01*
X131628Y317488D01*
X131790Y317586D01*
X131816Y317609D01*
X131845Y317628D01*
X132079Y317835D01*
X136507Y322262D01*
X141875Y324486D01*
X147685Y324486D01*
X153054Y322262D01*
X155684Y319631D01*
X155711Y319609D01*
X155734Y319583D01*
X155883Y319465D01*
X156030Y319342D01*
X156060Y319325D01*
X156087Y319304D01*
X156255Y319214D01*
X156421Y319119D01*
X156453Y319107D01*
X156484Y319091D01*
X156665Y319032D01*
X156845Y318968D01*
X156879Y318962D01*
X156912Y318952D01*
X157101Y318926D01*
X157289Y318895D01*
X157324Y318895D01*
X157358Y318890D01*
X157549Y318898D01*
X157739Y318901D01*
X157774Y318907D01*
X157808Y318909D01*
X157994Y318950D01*
X158182Y318986D01*
X158214Y318999D01*
X158248Y319006D01*
X158424Y319080D01*
X158602Y319149D01*
X158631Y319166D01*
X158663Y319180D01*
X158824Y319284D01*
X158986Y319382D01*
X159012Y319405D01*
X159041Y319424D01*
X159276Y319631D01*
X161907Y322262D01*
X167275Y324486D01*
X173085Y324486D01*
X178454Y322262D01*
X181084Y319631D01*
X181111Y319609D01*
X181134Y319583D01*
X181283Y319465D01*
X181430Y319342D01*
X181460Y319325D01*
X181487Y319304D01*
X181655Y319214D01*
X181821Y319119D01*
X181853Y319107D01*
X181884Y319091D01*
X182065Y319032D01*
X182245Y318968D01*
X182279Y318962D01*
X182312Y318952D01*
X182501Y318926D01*
X182689Y318895D01*
X182724Y318895D01*
X182758Y318890D01*
X182949Y318898D01*
X183139Y318901D01*
X183174Y318907D01*
X183208Y318909D01*
X183394Y318950D01*
X183582Y318986D01*
X183614Y318999D01*
X183648Y319006D01*
X183824Y319080D01*
X184002Y319149D01*
X184031Y319166D01*
X184063Y319180D01*
X184224Y319284D01*
X184386Y319382D01*
X184412Y319405D01*
X184441Y319424D01*
X184676Y319631D01*
X187307Y322262D01*
X192675Y324486D01*
X198485Y324486D01*
X203854Y322262D01*
X206484Y319631D01*
X206511Y319609D01*
X206534Y319583D01*
X206683Y319465D01*
X206830Y319342D01*
X206860Y319325D01*
X206887Y319304D01*
X207055Y319214D01*
X207221Y319119D01*
X207253Y319107D01*
X207284Y319091D01*
X207465Y319032D01*
X207645Y318968D01*
X207679Y318962D01*
X207712Y318952D01*
X207901Y318926D01*
X208089Y318895D01*
X208124Y318895D01*
X208158Y318890D01*
X208349Y318898D01*
X208539Y318901D01*
X208574Y318907D01*
X208608Y318909D01*
X208794Y318950D01*
X208982Y318986D01*
X209014Y318999D01*
X209048Y319006D01*
X209224Y319080D01*
X209402Y319149D01*
X209431Y319166D01*
X209463Y319180D01*
X209624Y319284D01*
X209786Y319382D01*
X209812Y319405D01*
X209841Y319424D01*
X210076Y319631D01*
X212707Y322262D01*
X218075Y324486D01*
X223885Y324486D01*
X229254Y322262D01*
X231884Y319631D01*
X231911Y319609D01*
X231934Y319583D01*
X232083Y319465D01*
X232230Y319342D01*
X232260Y319325D01*
X232287Y319304D01*
X232455Y319214D01*
X232621Y319119D01*
X232653Y319107D01*
X232684Y319091D01*
X232865Y319032D01*
X233045Y318968D01*
X233079Y318962D01*
X233112Y318952D01*
X233301Y318926D01*
X233489Y318895D01*
X233524Y318895D01*
X233558Y318890D01*
X233749Y318898D01*
X233939Y318901D01*
X233974Y318907D01*
X234008Y318909D01*
X234194Y318950D01*
X234382Y318986D01*
X234414Y318999D01*
X234448Y319006D01*
X234624Y319080D01*
X234802Y319149D01*
X234831Y319166D01*
X234863Y319180D01*
X235024Y319284D01*
X235186Y319382D01*
X235212Y319405D01*
X235241Y319424D01*
X235476Y319631D01*
X238107Y322262D01*
X239732Y322935D01*
X239920Y323034D01*
X240109Y323130D01*
X240119Y323138D01*
X240131Y323144D01*
X240300Y323275D01*
X240467Y323402D01*
X240476Y323411D01*
X240487Y323420D01*
X240629Y323577D01*
X240773Y323733D01*
X240780Y323744D01*
X240788Y323754D01*
X240900Y323933D01*
X241014Y324113D01*
X241019Y324125D01*
X241026Y324136D01*
X241105Y324333D01*
X241185Y324529D01*
X241188Y324542D01*
X241193Y324554D01*
X241236Y324763D01*
X241280Y324969D01*
X241281Y324985D01*
X241283Y324996D01*
X241284Y325035D01*
X241299Y325281D01*
X241299Y326636D01*
X242459Y329437D01*
X331320Y418297D01*
X331320Y418298D01*
X379223Y466201D01*
X382024Y467361D01*
X423997Y467361D01*
X424161Y467375D01*
X424325Y467382D01*
X424384Y467395D01*
X424445Y467401D01*
X424604Y467444D01*
X424765Y467480D01*
X424821Y467503D01*
X424880Y467519D01*
X425028Y467590D01*
X425180Y467653D01*
X425231Y467686D01*
X425286Y467713D01*
X425420Y467808D01*
X425558Y467898D01*
X425616Y467949D01*
X425652Y467975D01*
X425695Y468018D01*
X425792Y468104D01*
X428332Y470644D01*
X428355Y470671D01*
X428381Y470694D01*
X428499Y470843D01*
X428621Y470990D01*
X428639Y471020D01*
X428660Y471047D01*
X428750Y471215D01*
X428845Y471381D01*
X428856Y471413D01*
X428873Y471444D01*
X428931Y471625D01*
X428995Y471805D01*
X429001Y471839D01*
X429012Y471872D01*
X429038Y472061D01*
X429069Y472249D01*
X429068Y472284D01*
X429073Y472318D01*
X429065Y472509D01*
X429063Y472699D01*
X429056Y472734D01*
X429055Y472768D01*
X429014Y472954D01*
X428977Y473142D01*
X428965Y473174D01*
X428957Y473208D01*
X428884Y473384D01*
X428815Y473562D01*
X428797Y473591D01*
X428784Y473623D01*
X428680Y473784D01*
X428581Y473946D01*
X428558Y473972D01*
X428539Y474001D01*
X428332Y474236D01*
X425728Y476840D01*
X423497Y482225D01*
X423497Y488055D01*
X425728Y493440D01*
X429850Y497562D01*
X435235Y499793D01*
X441065Y499793D01*
X446450Y497562D01*
X450572Y493440D01*
X452803Y488055D01*
X452803Y482225D01*
X450572Y476840D01*
X447968Y474236D01*
X447945Y474209D01*
X447919Y474186D01*
X447801Y474037D01*
X447679Y473890D01*
X447661Y473860D01*
X447640Y473833D01*
X447550Y473665D01*
X447455Y473499D01*
X447444Y473467D01*
X447427Y473436D01*
X447368Y473255D01*
X447305Y473075D01*
X447299Y473041D01*
X447288Y473008D01*
X447262Y472819D01*
X447231Y472631D01*
X447232Y472596D01*
X447227Y472562D01*
X447235Y472371D01*
X447237Y472180D01*
X447244Y472146D01*
X447245Y472112D01*
X447286Y471926D01*
X447323Y471738D01*
X447335Y471706D01*
X447343Y471672D01*
X447416Y471497D01*
X447485Y471318D01*
X447503Y471289D01*
X447516Y471257D01*
X447620Y471097D01*
X447719Y470934D01*
X447742Y470908D01*
X447761Y470879D01*
X447968Y470644D01*
X450572Y468040D01*
X452803Y462655D01*
X452803Y456825D01*
X450572Y451440D01*
X446172Y447039D01*
X446149Y447013D01*
X446123Y446990D01*
X446005Y446840D01*
X445883Y446694D01*
X445866Y446664D01*
X445844Y446637D01*
X445754Y446468D01*
X445659Y446303D01*
X445648Y446270D01*
X445631Y446240D01*
X445572Y446059D01*
X445508Y445879D01*
X445503Y445845D01*
X445492Y445812D01*
X445466Y445622D01*
X445435Y445435D01*
X445435Y445400D01*
X445431Y445366D01*
X445439Y445175D01*
X445441Y444984D01*
X445448Y444950D01*
X445449Y444916D01*
X445490Y444729D01*
X445527Y444542D01*
X445539Y444510D01*
X445547Y444476D01*
X445620Y444300D01*
X445689Y444122D01*
X445707Y444093D01*
X445720Y444061D01*
X445824Y443901D01*
X445923Y443738D01*
X445946Y443712D01*
X445965Y443683D01*
X446172Y443448D01*
X447389Y442231D01*
X448510Y440689D01*
X449375Y438990D01*
X449964Y437176D01*
X450012Y436879D01*
X438150Y436879D01*
X426288Y436879D01*
X426336Y437176D01*
X426925Y438990D01*
X427790Y440689D01*
X428911Y442231D01*
X430128Y443448D01*
X430151Y443475D01*
X430177Y443498D01*
X430295Y443647D01*
X430417Y443794D01*
X430435Y443824D01*
X430456Y443851D01*
X430546Y444019D01*
X430641Y444185D01*
X430652Y444217D01*
X430669Y444248D01*
X430727Y444429D01*
X430792Y444609D01*
X430797Y444643D01*
X430808Y444676D01*
X430834Y444865D01*
X430865Y445053D01*
X430865Y445088D01*
X430869Y445122D01*
X430861Y445313D01*
X430859Y445503D01*
X430852Y445537D01*
X430851Y445572D01*
X430810Y445758D01*
X430773Y445946D01*
X430761Y445978D01*
X430753Y446012D01*
X430680Y446188D01*
X430611Y446366D01*
X430593Y446395D01*
X430580Y446427D01*
X430476Y446587D01*
X430377Y446750D01*
X430354Y446776D01*
X430335Y446805D01*
X430128Y447039D01*
X425792Y451376D01*
X425666Y451481D01*
X425545Y451593D01*
X425494Y451625D01*
X425447Y451664D01*
X425304Y451746D01*
X425165Y451834D01*
X425109Y451858D01*
X425056Y451888D01*
X424901Y451943D01*
X424749Y452005D01*
X424689Y452018D01*
X424632Y452039D01*
X424469Y452065D01*
X424309Y452100D01*
X424232Y452105D01*
X424188Y452112D01*
X424127Y452111D01*
X423997Y452119D01*
X387748Y452119D01*
X387585Y452105D01*
X387420Y452098D01*
X387361Y452085D01*
X387300Y452079D01*
X387141Y452036D01*
X386981Y452000D01*
X386924Y451977D01*
X386866Y451961D01*
X386717Y451890D01*
X386565Y451827D01*
X386514Y451794D01*
X386459Y451767D01*
X386325Y451672D01*
X386187Y451582D01*
X386129Y451531D01*
X386093Y451505D01*
X386050Y451462D01*
X385953Y451376D01*
X347853Y413276D01*
X347831Y413249D01*
X347805Y413226D01*
X347687Y413077D01*
X347564Y412930D01*
X347547Y412900D01*
X347525Y412873D01*
X347435Y412705D01*
X347341Y412539D01*
X347329Y412507D01*
X347313Y412476D01*
X347254Y412295D01*
X347190Y412115D01*
X347184Y412081D01*
X347173Y412048D01*
X347148Y411859D01*
X347116Y411671D01*
X347117Y411636D01*
X347112Y411602D01*
X347120Y411411D01*
X347122Y411220D01*
X347129Y411186D01*
X347130Y411152D01*
X347172Y410966D01*
X347208Y410778D01*
X347220Y410746D01*
X347228Y410712D01*
X347302Y410536D01*
X347370Y410358D01*
X347388Y410329D01*
X347402Y410297D01*
X347505Y410137D01*
X347604Y409974D01*
X347627Y409948D01*
X347646Y409919D01*
X347853Y409684D01*
X378212Y379325D01*
X378312Y379241D01*
X378405Y379151D01*
X378485Y379097D01*
X378558Y379036D01*
X378671Y378971D01*
X378778Y378899D01*
X378866Y378860D01*
X378949Y378813D01*
X379071Y378769D01*
X379190Y378716D01*
X379283Y378694D01*
X379373Y378662D01*
X379502Y378641D01*
X379628Y378610D01*
X379723Y378604D01*
X379817Y378588D01*
X379948Y378590D01*
X380077Y378582D01*
X380172Y378593D01*
X380268Y378594D01*
X380395Y378619D01*
X380524Y378634D01*
X380616Y378662D01*
X380710Y378680D01*
X380831Y378727D01*
X380955Y378764D01*
X381040Y378808D01*
X381130Y378842D01*
X381241Y378910D01*
X381357Y378969D01*
X381433Y379026D01*
X381514Y379076D01*
X381612Y379162D01*
X381715Y379241D01*
X381780Y379311D01*
X381852Y379374D01*
X381932Y379476D01*
X382021Y379572D01*
X382072Y379653D01*
X382131Y379727D01*
X382192Y379842D01*
X382262Y379952D01*
X382299Y380040D01*
X382344Y380124D01*
X382384Y380248D01*
X382433Y380368D01*
X382453Y380462D01*
X382483Y380553D01*
X382501Y380681D01*
X382528Y380808D01*
X382536Y380938D01*
X382544Y380999D01*
X382543Y381043D01*
X382547Y381120D01*
X382547Y383218D01*
X384245Y387317D01*
X387383Y390455D01*
X391482Y392153D01*
X395918Y392153D01*
X397847Y391354D01*
X397958Y391319D01*
X398066Y391275D01*
X398173Y391252D01*
X398276Y391219D01*
X398392Y391205D01*
X398507Y391180D01*
X398660Y391170D01*
X398723Y391163D01*
X398759Y391164D01*
X398818Y391161D01*
X423997Y391161D01*
X424161Y391175D01*
X424325Y391182D01*
X424385Y391195D01*
X424445Y391201D01*
X424604Y391244D01*
X424765Y391280D01*
X424821Y391303D01*
X424880Y391319D01*
X425028Y391390D01*
X425180Y391453D01*
X425231Y391486D01*
X425286Y391513D01*
X425420Y391608D01*
X425558Y391698D01*
X425616Y391749D01*
X425652Y391775D01*
X425695Y391818D01*
X425792Y391904D01*
X428332Y394444D01*
X428355Y394471D01*
X428381Y394494D01*
X428499Y394643D01*
X428621Y394790D01*
X428638Y394820D01*
X428660Y394847D01*
X428750Y395015D01*
X428845Y395181D01*
X428856Y395213D01*
X428873Y395244D01*
X428932Y395425D01*
X428995Y395605D01*
X429001Y395639D01*
X429012Y395672D01*
X429038Y395861D01*
X429069Y396049D01*
X429068Y396084D01*
X429073Y396118D01*
X429065Y396309D01*
X429063Y396500D01*
X429056Y396534D01*
X429055Y396568D01*
X429014Y396754D01*
X428977Y396942D01*
X428965Y396974D01*
X428957Y397008D01*
X428884Y397183D01*
X428815Y397362D01*
X428797Y397391D01*
X428784Y397423D01*
X428680Y397583D01*
X428581Y397746D01*
X428558Y397772D01*
X428539Y397801D01*
X428332Y398035D01*
X425792Y400576D01*
X425666Y400681D01*
X425545Y400793D01*
X425494Y400825D01*
X425447Y400864D01*
X425304Y400946D01*
X425166Y401034D01*
X425109Y401058D01*
X425056Y401088D01*
X424901Y401143D01*
X424749Y401205D01*
X424689Y401218D01*
X424632Y401239D01*
X424470Y401265D01*
X424309Y401300D01*
X424232Y401305D01*
X424188Y401312D01*
X424127Y401311D01*
X423997Y401319D01*
X389644Y401319D01*
X386843Y402479D01*
X382119Y407204D01*
X381993Y407309D01*
X381872Y407421D01*
X381821Y407453D01*
X381774Y407492D01*
X381631Y407574D01*
X381492Y407662D01*
X381436Y407686D01*
X381383Y407716D01*
X381228Y407771D01*
X381076Y407833D01*
X381016Y407846D01*
X380959Y407867D01*
X380796Y407893D01*
X380635Y407928D01*
X380559Y407933D01*
X380514Y407940D01*
X380453Y407939D01*
X380324Y407947D01*
X378782Y407947D01*
X374683Y409645D01*
X371545Y412783D01*
X369847Y416882D01*
X369847Y421318D01*
X371545Y425417D01*
X374683Y428555D01*
X378782Y430253D01*
X383218Y430253D01*
X387317Y428555D01*
X390455Y425417D01*
X392153Y421318D01*
X392153Y419776D01*
X392167Y419613D01*
X392174Y419448D01*
X392187Y419389D01*
X392193Y419328D01*
X392236Y419169D01*
X392272Y419009D01*
X392295Y418952D01*
X392311Y418894D01*
X392382Y418745D01*
X392445Y418593D01*
X392478Y418542D01*
X392505Y418487D01*
X392600Y418353D01*
X392690Y418215D01*
X392741Y418157D01*
X392767Y418121D01*
X392810Y418078D01*
X392896Y417981D01*
X393573Y417304D01*
X393699Y417199D01*
X393820Y417087D01*
X393871Y417055D01*
X393918Y417016D01*
X394061Y416934D01*
X394200Y416846D01*
X394256Y416822D01*
X394309Y416792D01*
X394464Y416737D01*
X394616Y416675D01*
X394676Y416662D01*
X394733Y416641D01*
X394896Y416615D01*
X395057Y416580D01*
X395133Y416575D01*
X395178Y416568D01*
X395239Y416569D01*
X395368Y416561D01*
X423997Y416561D01*
X424161Y416575D01*
X424325Y416582D01*
X424385Y416595D01*
X424445Y416601D01*
X424604Y416644D01*
X424765Y416680D01*
X424821Y416703D01*
X424880Y416719D01*
X425028Y416790D01*
X425180Y416853D01*
X425231Y416886D01*
X425286Y416913D01*
X425420Y417008D01*
X425558Y417098D01*
X425616Y417149D01*
X425652Y417175D01*
X425695Y417218D01*
X425792Y417304D01*
X430128Y421641D01*
X430151Y421667D01*
X430177Y421690D01*
X430295Y421840D01*
X430417Y421986D01*
X430435Y422016D01*
X430456Y422043D01*
X430546Y422211D01*
X430641Y422377D01*
X430652Y422409D01*
X430669Y422440D01*
X430728Y422621D01*
X430792Y422801D01*
X430797Y422835D01*
X430808Y422868D01*
X430834Y423057D01*
X430865Y423245D01*
X430865Y423280D01*
X430869Y423314D01*
X430861Y423505D01*
X430859Y423696D01*
X430852Y423730D01*
X430851Y423764D01*
X430810Y423950D01*
X430773Y424138D01*
X430761Y424170D01*
X430753Y424204D01*
X430680Y424379D01*
X430611Y424558D01*
X430593Y424587D01*
X430580Y424619D01*
X430476Y424779D01*
X430377Y424942D01*
X430354Y424968D01*
X430335Y424997D01*
X430128Y425232D01*
X428911Y426449D01*
X427790Y427991D01*
X426925Y429690D01*
X426336Y431504D01*
X426288Y431801D01*
X438150Y431801D01*
X450012Y431801D01*
X449964Y431504D01*
X449375Y429690D01*
X448510Y427991D01*
X447389Y426449D01*
X446172Y425232D01*
X446149Y425205D01*
X446123Y425182D01*
X446005Y425033D01*
X445883Y424886D01*
X445865Y424856D01*
X445844Y424829D01*
X445754Y424661D01*
X445659Y424495D01*
X445648Y424463D01*
X445631Y424432D01*
X445572Y424251D01*
X445508Y424071D01*
X445503Y424037D01*
X445492Y424004D01*
X445466Y423815D01*
X445435Y423627D01*
X445435Y423592D01*
X445431Y423558D01*
X445439Y423367D01*
X445441Y423177D01*
X445448Y423143D01*
X445449Y423108D01*
X445490Y422922D01*
X445527Y422734D01*
X445539Y422702D01*
X445547Y422668D01*
X445620Y422492D01*
X445689Y422314D01*
X445707Y422285D01*
X445720Y422253D01*
X445824Y422093D01*
X445923Y421930D01*
X445946Y421904D01*
X445965Y421875D01*
X446172Y421641D01*
X450572Y417240D01*
X452803Y411855D01*
X452803Y406025D01*
X450572Y400640D01*
X447968Y398036D01*
X447945Y398009D01*
X447919Y397986D01*
X447801Y397837D01*
X447679Y397690D01*
X447661Y397660D01*
X447640Y397633D01*
X447550Y397465D01*
X447455Y397299D01*
X447444Y397267D01*
X447427Y397236D01*
X447368Y397055D01*
X447305Y396875D01*
X447299Y396841D01*
X447288Y396808D01*
X447262Y396619D01*
X447231Y396431D01*
X447232Y396396D01*
X447227Y396362D01*
X447235Y396171D01*
X447237Y395980D01*
X447244Y395946D01*
X447245Y395912D01*
X447286Y395726D01*
X447323Y395538D01*
X447335Y395506D01*
X447343Y395472D01*
X447416Y395297D01*
X447485Y395118D01*
X447503Y395089D01*
X447516Y395057D01*
X447620Y394897D01*
X447719Y394734D01*
X447742Y394708D01*
X447761Y394679D01*
X447968Y394444D01*
X450572Y391840D01*
X452803Y386455D01*
X452803Y380625D01*
X450540Y375163D01*
X450482Y375094D01*
X450465Y375064D01*
X450444Y375036D01*
X450354Y374869D01*
X450259Y374703D01*
X450247Y374670D01*
X450231Y374640D01*
X450172Y374459D01*
X450108Y374279D01*
X450103Y374245D01*
X450092Y374211D01*
X450066Y374022D01*
X450035Y373835D01*
X450035Y373800D01*
X450030Y373765D01*
X450038Y373574D01*
X450041Y373384D01*
X450047Y373350D01*
X450049Y373315D01*
X450090Y373129D01*
X450126Y372942D01*
X450139Y372910D01*
X450146Y372876D01*
X450220Y372700D01*
X450288Y372522D01*
X450307Y372492D01*
X450320Y372460D01*
X450423Y372300D01*
X450522Y372137D01*
X450545Y372111D01*
X450564Y372082D01*
X450771Y371848D01*
X452029Y370590D01*
X452803Y368723D01*
X452803Y347557D01*
X452029Y345690D01*
X450600Y344261D01*
X448733Y343487D01*
X427567Y343487D01*
X425700Y344261D01*
X424271Y345690D01*
X423497Y347557D01*
X423497Y368723D01*
X424271Y370590D01*
X425265Y371584D01*
X425349Y371684D01*
X425439Y371777D01*
X425493Y371857D01*
X425554Y371930D01*
X425619Y372043D01*
X425691Y372150D01*
X425730Y372238D01*
X425778Y372321D01*
X425821Y372443D01*
X425874Y372562D01*
X425896Y372655D01*
X425928Y372745D01*
X425950Y372873D01*
X425980Y373000D01*
X425986Y373095D01*
X426002Y373189D01*
X426000Y373319D01*
X426008Y373449D01*
X425997Y373544D01*
X425996Y373640D01*
X425971Y373767D01*
X425956Y373896D01*
X425928Y373988D01*
X425910Y374082D01*
X425863Y374203D01*
X425826Y374327D01*
X425782Y374413D01*
X425748Y374502D01*
X425680Y374613D01*
X425621Y374729D01*
X425564Y374805D01*
X425514Y374886D01*
X425428Y374984D01*
X425349Y375087D01*
X425279Y375152D01*
X425216Y375224D01*
X425114Y375304D01*
X425018Y375393D01*
X424938Y375444D01*
X424863Y375503D01*
X424748Y375565D01*
X424638Y375634D01*
X424550Y375671D01*
X424466Y375716D01*
X424342Y375756D01*
X424222Y375805D01*
X424128Y375825D01*
X424038Y375855D01*
X423909Y375873D01*
X423782Y375900D01*
X423652Y375908D01*
X423592Y375916D01*
X423547Y375915D01*
X423470Y375919D01*
X405364Y375919D01*
X405152Y375900D01*
X404941Y375884D01*
X404928Y375881D01*
X404915Y375879D01*
X404710Y375823D01*
X404505Y375770D01*
X404494Y375764D01*
X404481Y375761D01*
X404291Y375670D01*
X404097Y375581D01*
X404086Y375573D01*
X404074Y375567D01*
X403903Y375445D01*
X403728Y375322D01*
X403719Y375313D01*
X403708Y375305D01*
X403560Y375153D01*
X403411Y375003D01*
X403403Y374992D01*
X403394Y374983D01*
X403275Y374806D01*
X403267Y374795D01*
X400017Y371545D01*
X395918Y369847D01*
X393820Y369847D01*
X393691Y369836D01*
X393561Y369834D01*
X393467Y369816D01*
X393372Y369807D01*
X393246Y369773D01*
X393119Y369748D01*
X393030Y369714D01*
X392937Y369689D01*
X392820Y369633D01*
X392699Y369586D01*
X392617Y369536D01*
X392531Y369495D01*
X392425Y369420D01*
X392314Y369352D01*
X392242Y369289D01*
X392165Y369233D01*
X392074Y369140D01*
X391977Y369054D01*
X391918Y368979D01*
X391851Y368911D01*
X391778Y368803D01*
X391697Y368701D01*
X391652Y368617D01*
X391599Y368538D01*
X391546Y368419D01*
X391485Y368304D01*
X391455Y368213D01*
X391416Y368126D01*
X391386Y367999D01*
X391345Y367876D01*
X391332Y367781D01*
X391310Y367688D01*
X391302Y367559D01*
X391284Y367430D01*
X391288Y367334D01*
X391282Y367239D01*
X391297Y367110D01*
X391302Y366980D01*
X391323Y366887D01*
X391334Y366792D01*
X391372Y366667D01*
X391400Y366540D01*
X391437Y366452D01*
X391464Y366361D01*
X391523Y366245D01*
X391574Y366125D01*
X391626Y366044D01*
X391669Y365959D01*
X391747Y365856D01*
X391818Y365747D01*
X391904Y365649D01*
X391941Y365601D01*
X391974Y365570D01*
X392025Y365512D01*
X464693Y292844D01*
X464819Y292739D01*
X464940Y292627D01*
X464991Y292595D01*
X465038Y292556D01*
X465181Y292474D01*
X465320Y292386D01*
X465376Y292362D01*
X465429Y292332D01*
X465584Y292277D01*
X465736Y292215D01*
X465796Y292202D01*
X465853Y292181D01*
X466016Y292155D01*
X466177Y292120D01*
X466253Y292115D01*
X466298Y292108D01*
X466359Y292109D01*
X466488Y292101D01*
X478392Y292101D01*
X478555Y292115D01*
X478720Y292122D01*
X478779Y292135D01*
X478840Y292141D01*
X478999Y292184D01*
X479159Y292220D01*
X479216Y292243D01*
X479274Y292259D01*
X479423Y292330D01*
X479575Y292393D01*
X479626Y292426D01*
X479681Y292453D01*
X479815Y292548D01*
X479953Y292638D01*
X480011Y292689D01*
X480047Y292715D01*
X480090Y292758D01*
X480187Y292844D01*
X483363Y296021D01*
X486164Y297181D01*
X492461Y297181D01*
X492673Y297200D01*
X492884Y297216D01*
X492897Y297219D01*
X492910Y297221D01*
X493115Y297277D01*
X493319Y297330D01*
X493331Y297336D01*
X493344Y297339D01*
X493534Y297429D01*
X493728Y297519D01*
X493739Y297527D01*
X493751Y297533D01*
X493922Y297655D01*
X494097Y297778D01*
X494106Y297787D01*
X494117Y297795D01*
X494265Y297947D01*
X494414Y298097D01*
X494422Y298108D01*
X494431Y298117D01*
X494549Y298292D01*
X494670Y298467D01*
X494677Y298482D01*
X494683Y298490D01*
X494699Y298527D01*
X494807Y298748D01*
X495510Y300445D01*
X498069Y303004D01*
X498092Y303031D01*
X498117Y303054D01*
X498236Y303203D01*
X498358Y303350D01*
X498375Y303380D01*
X498397Y303407D01*
X498487Y303575D01*
X498582Y303741D01*
X498593Y303773D01*
X498609Y303804D01*
X498668Y303985D01*
X498732Y304165D01*
X498738Y304199D01*
X498749Y304232D01*
X498775Y304421D01*
X498806Y304609D01*
X498805Y304644D01*
X498810Y304678D01*
X498802Y304869D01*
X498800Y305059D01*
X498793Y305094D01*
X498792Y305128D01*
X498750Y305314D01*
X498714Y305502D01*
X498702Y305534D01*
X498694Y305568D01*
X498620Y305744D01*
X498552Y305922D01*
X498534Y305951D01*
X498521Y305983D01*
X498417Y306144D01*
X498318Y306306D01*
X498295Y306332D01*
X498276Y306361D01*
X498069Y306596D01*
X495510Y309155D01*
X493267Y314569D01*
X493267Y320431D01*
X495510Y325845D01*
X498069Y328404D01*
X498092Y328431D01*
X498117Y328454D01*
X498236Y328603D01*
X498358Y328750D01*
X498375Y328780D01*
X498397Y328807D01*
X498487Y328975D01*
X498582Y329141D01*
X498593Y329173D01*
X498609Y329204D01*
X498668Y329385D01*
X498732Y329565D01*
X498738Y329599D01*
X498749Y329632D01*
X498775Y329821D01*
X498806Y330009D01*
X498805Y330044D01*
X498810Y330078D01*
X498802Y330269D01*
X498800Y330459D01*
X498793Y330494D01*
X498792Y330528D01*
X498750Y330714D01*
X498714Y330902D01*
X498702Y330934D01*
X498694Y330968D01*
X498620Y331144D01*
X498552Y331322D01*
X498534Y331351D01*
X498521Y331383D01*
X498417Y331544D01*
X498318Y331706D01*
X498295Y331732D01*
X498276Y331761D01*
X498069Y331996D01*
X495510Y334555D01*
X493267Y339969D01*
X493267Y345831D01*
X495510Y351245D01*
X498069Y353804D01*
X498092Y353831D01*
X498117Y353854D01*
X498236Y354003D01*
X498358Y354150D01*
X498375Y354180D01*
X498397Y354207D01*
X498487Y354375D01*
X498582Y354541D01*
X498593Y354573D01*
X498609Y354604D01*
X498668Y354785D01*
X498732Y354965D01*
X498738Y354999D01*
X498749Y355032D01*
X498775Y355221D01*
X498806Y355409D01*
X498805Y355444D01*
X498810Y355478D01*
X498802Y355669D01*
X498800Y355859D01*
X498793Y355894D01*
X498792Y355928D01*
X498750Y356114D01*
X498714Y356302D01*
X498702Y356334D01*
X498694Y356368D01*
X498620Y356544D01*
X498552Y356722D01*
X498534Y356751D01*
X498521Y356783D01*
X498417Y356944D01*
X498318Y357106D01*
X498295Y357132D01*
X498276Y357161D01*
X498069Y357396D01*
X495510Y359955D01*
X493267Y365369D01*
X493267Y371230D01*
X493662Y372184D01*
X493726Y372387D01*
X493791Y372588D01*
X493793Y372601D01*
X493797Y372613D01*
X493824Y372825D01*
X493852Y373034D01*
X493852Y373047D01*
X493854Y373060D01*
X493843Y373271D01*
X493834Y373484D01*
X493831Y373497D01*
X493831Y373510D01*
X493783Y373715D01*
X493737Y373923D01*
X493731Y373935D01*
X493728Y373948D01*
X493645Y374142D01*
X493563Y374339D01*
X493556Y374350D01*
X493551Y374362D01*
X493434Y374538D01*
X493319Y374717D01*
X493308Y374729D01*
X493302Y374738D01*
X493275Y374766D01*
X493112Y374951D01*
X460899Y407163D01*
X459739Y409964D01*
X459739Y493632D01*
X459725Y493795D01*
X459718Y493960D01*
X459705Y494019D01*
X459699Y494080D01*
X459656Y494239D01*
X459620Y494399D01*
X459597Y494456D01*
X459581Y494514D01*
X459510Y494663D01*
X459447Y494815D01*
X459414Y494866D01*
X459387Y494921D01*
X459292Y495055D01*
X459202Y495193D01*
X459151Y495251D01*
X459125Y495287D01*
X459082Y495330D01*
X458996Y495427D01*
X449707Y504716D01*
X449581Y504821D01*
X449460Y504933D01*
X449409Y504965D01*
X449362Y505004D01*
X449219Y505086D01*
X449080Y505174D01*
X449024Y505198D01*
X448971Y505228D01*
X448816Y505283D01*
X448664Y505345D01*
X448604Y505358D01*
X448547Y505379D01*
X448384Y505405D01*
X448223Y505440D01*
X448147Y505445D01*
X448102Y505452D01*
X448041Y505451D01*
X447912Y505459D01*
X288688Y505459D01*
X288525Y505445D01*
X288360Y505438D01*
X288301Y505425D01*
X288240Y505419D01*
X288081Y505376D01*
X287921Y505340D01*
X287864Y505317D01*
X287806Y505301D01*
X287657Y505230D01*
X287505Y505167D01*
X287454Y505134D01*
X287399Y505107D01*
X287265Y505012D01*
X287127Y504922D01*
X287069Y504871D01*
X287033Y504845D01*
X286990Y504802D01*
X286893Y504716D01*
X105142Y322965D01*
X105120Y322938D01*
X105094Y322915D01*
X104976Y322766D01*
X104853Y322619D01*
X104836Y322589D01*
X104814Y322562D01*
X104724Y322394D01*
X104630Y322228D01*
X104618Y322196D01*
X104602Y322165D01*
X104543Y321984D01*
X104479Y321804D01*
X104473Y321770D01*
X104463Y321737D01*
X104437Y321548D01*
X104405Y321360D01*
X104406Y321325D01*
X104401Y321291D01*
X104409Y321100D01*
X104412Y320910D01*
X104418Y320876D01*
X104420Y320841D01*
X104461Y320655D01*
X104497Y320468D01*
X104510Y320435D01*
X104517Y320401D01*
X104590Y320226D01*
X104659Y320048D01*
X104677Y320018D01*
X104691Y319986D01*
X104794Y319826D01*
X104893Y319663D01*
X104916Y319637D01*
X104935Y319608D01*
X105142Y319374D01*
X106681Y317835D01*
X106707Y317813D01*
X106730Y317787D01*
X106880Y317668D01*
X107026Y317546D01*
X107056Y317529D01*
X107083Y317507D01*
X107251Y317417D01*
X107417Y317323D01*
X107450Y317311D01*
X107480Y317295D01*
X107661Y317236D01*
X107841Y317172D01*
X107875Y317166D01*
X107908Y317156D01*
X108097Y317130D01*
X108285Y317099D01*
X108320Y317099D01*
X108354Y317094D01*
X108545Y317102D01*
X108736Y317105D01*
X108769Y317111D01*
X108804Y317113D01*
X108991Y317154D01*
X109178Y317190D01*
X109210Y317203D01*
X109244Y317210D01*
X109419Y317284D01*
X109598Y317352D01*
X109627Y317371D01*
X109659Y317384D01*
X109819Y317487D01*
X109982Y317586D01*
X110008Y317609D01*
X110037Y317628D01*
X110272Y317835D01*
X111520Y319083D01*
X113056Y320200D01*
X114748Y321062D01*
X116554Y321649D01*
X116841Y321694D01*
X116841Y309880D01*
X116841Y298066D01*
X116554Y298111D01*
X114748Y298698D01*
X113056Y299560D01*
X111520Y300677D01*
X110272Y301925D01*
X110245Y301947D01*
X110222Y301973D01*
X110073Y302091D01*
X109926Y302214D01*
X109896Y302231D01*
X109869Y302252D01*
X109701Y302342D01*
X109535Y302437D01*
X109503Y302449D01*
X109472Y302465D01*
X109291Y302524D01*
X109111Y302588D01*
X109077Y302594D01*
X109044Y302604D01*
X108855Y302630D01*
X108667Y302661D01*
X108632Y302661D01*
X108598Y302666D01*
X108407Y302658D01*
X108217Y302655D01*
X108183Y302649D01*
X108148Y302647D01*
X107962Y302606D01*
X107775Y302570D01*
X107742Y302557D01*
X107708Y302550D01*
X107532Y302476D01*
X107355Y302408D01*
X107325Y302390D01*
X107293Y302376D01*
X107132Y302272D01*
X106970Y302174D01*
X106944Y302151D01*
X106915Y302132D01*
X106681Y301925D01*
X102344Y297589D01*
X102239Y297463D01*
X102127Y297342D01*
X102095Y297290D01*
X102056Y297243D01*
X101974Y297101D01*
X101886Y296962D01*
X101862Y296905D01*
X101832Y296852D01*
X101777Y296698D01*
X101715Y296545D01*
X101702Y296486D01*
X101681Y296428D01*
X101655Y296266D01*
X101620Y296105D01*
X101615Y296028D01*
X101608Y295984D01*
X101609Y295923D01*
X101601Y295793D01*
X101601Y291228D01*
X101615Y291065D01*
X101622Y290900D01*
X101635Y290841D01*
X101641Y290780D01*
X101684Y290621D01*
X101720Y290461D01*
X101743Y290404D01*
X101759Y290346D01*
X101830Y290197D01*
X101893Y290045D01*
X101926Y289994D01*
X101953Y289939D01*
X102048Y289805D01*
X102138Y289667D01*
X102189Y289609D01*
X102215Y289573D01*
X102258Y289530D01*
X102344Y289433D01*
X159893Y231884D01*
X160019Y231779D01*
X160140Y231667D01*
X160191Y231635D01*
X160238Y231596D01*
X160381Y231514D01*
X160520Y231426D01*
X160576Y231402D01*
X160629Y231372D01*
X160784Y231317D01*
X160936Y231255D01*
X160996Y231242D01*
X161053Y231221D01*
X161216Y231195D01*
X161376Y231160D01*
X161453Y231155D01*
X161498Y231148D01*
X161559Y231149D01*
X161688Y231141D01*
X166314Y231141D01*
X166366Y231145D01*
G37*
G36*
X194075Y99075D02*
X194075Y99075D01*
X194240Y99082D01*
X194299Y99095D01*
X194360Y99101D01*
X194519Y99144D01*
X194679Y99180D01*
X194736Y99203D01*
X194794Y99219D01*
X194943Y99290D01*
X195095Y99353D01*
X195146Y99386D01*
X195201Y99413D01*
X195335Y99508D01*
X195473Y99598D01*
X195531Y99649D01*
X195567Y99675D01*
X195610Y99718D01*
X195707Y99804D01*
X263158Y167255D01*
X263180Y167282D01*
X263206Y167305D01*
X263324Y167454D01*
X263447Y167601D01*
X263464Y167631D01*
X263486Y167658D01*
X263576Y167826D01*
X263670Y167992D01*
X263682Y168024D01*
X263698Y168055D01*
X263757Y168236D01*
X263821Y168416D01*
X263827Y168450D01*
X263837Y168483D01*
X263863Y168671D01*
X263895Y168860D01*
X263894Y168895D01*
X263899Y168929D01*
X263891Y169120D01*
X263888Y169310D01*
X263882Y169344D01*
X263880Y169379D01*
X263839Y169565D01*
X263803Y169752D01*
X263790Y169785D01*
X263783Y169819D01*
X263710Y169994D01*
X263641Y170172D01*
X263623Y170202D01*
X263609Y170234D01*
X263506Y170394D01*
X263407Y170557D01*
X263384Y170583D01*
X263365Y170612D01*
X263158Y170846D01*
X260875Y173129D01*
X260849Y173151D01*
X260826Y173177D01*
X260677Y173295D01*
X260530Y173418D01*
X260500Y173435D01*
X260473Y173456D01*
X260305Y173546D01*
X260139Y173641D01*
X260107Y173653D01*
X260076Y173669D01*
X259895Y173728D01*
X259715Y173792D01*
X259681Y173798D01*
X259648Y173808D01*
X259459Y173834D01*
X259271Y173865D01*
X259236Y173865D01*
X259202Y173870D01*
X259011Y173862D01*
X258820Y173859D01*
X258787Y173853D01*
X258752Y173851D01*
X258565Y173810D01*
X258378Y173774D01*
X258346Y173761D01*
X258312Y173754D01*
X258137Y173680D01*
X257958Y173611D01*
X257929Y173593D01*
X257897Y173580D01*
X257737Y173477D01*
X257574Y173378D01*
X257548Y173355D01*
X257519Y173336D01*
X257284Y173129D01*
X254654Y170498D01*
X249285Y168274D01*
X243475Y168274D01*
X238107Y170498D01*
X235476Y173129D01*
X235449Y173151D01*
X235426Y173177D01*
X235277Y173295D01*
X235130Y173418D01*
X235100Y173435D01*
X235073Y173456D01*
X234905Y173546D01*
X234739Y173641D01*
X234707Y173653D01*
X234676Y173669D01*
X234495Y173728D01*
X234315Y173792D01*
X234281Y173798D01*
X234248Y173808D01*
X234059Y173834D01*
X233871Y173865D01*
X233836Y173865D01*
X233802Y173870D01*
X233611Y173862D01*
X233420Y173859D01*
X233386Y173853D01*
X233352Y173851D01*
X233166Y173810D01*
X232978Y173774D01*
X232946Y173761D01*
X232912Y173754D01*
X232737Y173680D01*
X232558Y173611D01*
X232529Y173593D01*
X232497Y173580D01*
X232337Y173477D01*
X232174Y173378D01*
X232148Y173355D01*
X232119Y173336D01*
X231884Y173129D01*
X229254Y170498D01*
X223885Y168274D01*
X218075Y168274D01*
X212707Y170498D01*
X210076Y173129D01*
X210049Y173151D01*
X210026Y173177D01*
X209877Y173295D01*
X209730Y173418D01*
X209700Y173435D01*
X209673Y173456D01*
X209505Y173546D01*
X209339Y173641D01*
X209307Y173653D01*
X209276Y173669D01*
X209095Y173728D01*
X208915Y173792D01*
X208881Y173798D01*
X208848Y173808D01*
X208659Y173834D01*
X208471Y173865D01*
X208436Y173865D01*
X208402Y173870D01*
X208211Y173862D01*
X208020Y173859D01*
X207986Y173853D01*
X207952Y173851D01*
X207766Y173810D01*
X207578Y173774D01*
X207546Y173761D01*
X207512Y173754D01*
X207337Y173680D01*
X207158Y173611D01*
X207129Y173593D01*
X207097Y173580D01*
X206937Y173477D01*
X206774Y173378D01*
X206748Y173355D01*
X206719Y173336D01*
X206484Y173129D01*
X203854Y170498D01*
X198485Y168274D01*
X192675Y168274D01*
X187307Y170498D01*
X184676Y173129D01*
X184649Y173151D01*
X184626Y173177D01*
X184477Y173295D01*
X184330Y173418D01*
X184300Y173435D01*
X184273Y173456D01*
X184104Y173547D01*
X183939Y173641D01*
X183907Y173653D01*
X183876Y173669D01*
X183695Y173728D01*
X183515Y173792D01*
X183481Y173798D01*
X183448Y173808D01*
X183259Y173834D01*
X183071Y173865D01*
X183036Y173865D01*
X183002Y173870D01*
X182811Y173862D01*
X182620Y173859D01*
X182586Y173853D01*
X182552Y173851D01*
X182366Y173810D01*
X182178Y173774D01*
X182146Y173761D01*
X182112Y173754D01*
X181937Y173680D01*
X181758Y173611D01*
X181729Y173593D01*
X181697Y173580D01*
X181537Y173477D01*
X181374Y173378D01*
X181348Y173355D01*
X181319Y173336D01*
X181084Y173129D01*
X178544Y170589D01*
X178439Y170463D01*
X178327Y170342D01*
X178295Y170290D01*
X178256Y170243D01*
X178174Y170101D01*
X178086Y169962D01*
X178062Y169905D01*
X178032Y169852D01*
X177977Y169698D01*
X177915Y169545D01*
X177902Y169486D01*
X177881Y169428D01*
X177855Y169266D01*
X177820Y169105D01*
X177815Y169028D01*
X177808Y168984D01*
X177809Y168923D01*
X177801Y168793D01*
X177801Y151892D01*
X177804Y151857D01*
X177802Y151823D01*
X177824Y151634D01*
X177841Y151443D01*
X177850Y151410D01*
X177854Y151376D01*
X177909Y151193D01*
X177959Y151009D01*
X177974Y150978D01*
X177984Y150945D01*
X178071Y150774D01*
X178153Y150602D01*
X178173Y150574D01*
X178188Y150543D01*
X178304Y150391D01*
X178415Y150236D01*
X178440Y150212D01*
X178460Y150185D01*
X178600Y150056D01*
X178737Y149922D01*
X178766Y149903D01*
X178792Y149879D01*
X178953Y149777D01*
X179110Y149670D01*
X179142Y149656D01*
X179171Y149638D01*
X179348Y149565D01*
X179522Y149488D01*
X179556Y149480D01*
X179588Y149467D01*
X179775Y149427D01*
X179960Y149381D01*
X179994Y149379D01*
X180028Y149372D01*
X180340Y149353D01*
X180528Y149353D01*
X185570Y147265D01*
X189429Y143406D01*
X191517Y138364D01*
X191517Y115636D01*
X189429Y110594D01*
X185570Y106735D01*
X180528Y104647D01*
X175072Y104647D01*
X170030Y106736D01*
X166896Y109870D01*
X166869Y109892D01*
X166846Y109918D01*
X166697Y110037D01*
X166550Y110159D01*
X166520Y110176D01*
X166493Y110198D01*
X166325Y110288D01*
X166159Y110382D01*
X166127Y110394D01*
X166096Y110410D01*
X165915Y110469D01*
X165735Y110533D01*
X165701Y110539D01*
X165668Y110549D01*
X165479Y110576D01*
X165291Y110607D01*
X165256Y110606D01*
X165222Y110611D01*
X165031Y110603D01*
X164841Y110601D01*
X164806Y110594D01*
X164772Y110593D01*
X164586Y110551D01*
X164398Y110515D01*
X164366Y110502D01*
X164332Y110495D01*
X164156Y110421D01*
X163978Y110353D01*
X163949Y110335D01*
X163917Y110321D01*
X163756Y110218D01*
X163594Y110119D01*
X163568Y110096D01*
X163539Y110077D01*
X163304Y109870D01*
X160170Y106735D01*
X155128Y104647D01*
X149672Y104647D01*
X144630Y106735D01*
X141496Y109870D01*
X141469Y109892D01*
X141446Y109918D01*
X141297Y110036D01*
X141150Y110159D01*
X141120Y110176D01*
X141093Y110198D01*
X140925Y110288D01*
X140759Y110382D01*
X140727Y110394D01*
X140696Y110410D01*
X140515Y110469D01*
X140335Y110533D01*
X140301Y110539D01*
X140268Y110549D01*
X140079Y110575D01*
X139891Y110607D01*
X139856Y110606D01*
X139822Y110611D01*
X139631Y110603D01*
X139440Y110601D01*
X139406Y110594D01*
X139372Y110593D01*
X139186Y110551D01*
X138998Y110515D01*
X138966Y110502D01*
X138932Y110495D01*
X138757Y110422D01*
X138578Y110353D01*
X138549Y110335D01*
X138517Y110321D01*
X138357Y110218D01*
X138194Y110119D01*
X138168Y110096D01*
X138139Y110077D01*
X137904Y109870D01*
X134770Y106736D01*
X129728Y104647D01*
X124272Y104647D01*
X119230Y106735D01*
X115371Y110594D01*
X113283Y115636D01*
X113283Y128920D01*
X113273Y129036D01*
X113273Y129153D01*
X113253Y129260D01*
X113243Y129368D01*
X113213Y129481D01*
X113192Y129596D01*
X113141Y129742D01*
X113125Y129803D01*
X113109Y129835D01*
X113090Y129891D01*
X111759Y133104D01*
X111759Y168793D01*
X111745Y168957D01*
X111738Y169121D01*
X111725Y169181D01*
X111719Y169242D01*
X111676Y169401D01*
X111640Y169561D01*
X111617Y169617D01*
X111601Y169676D01*
X111530Y169824D01*
X111467Y169976D01*
X111434Y170028D01*
X111407Y170083D01*
X111312Y170216D01*
X111222Y170355D01*
X111171Y170412D01*
X111145Y170449D01*
X111102Y170491D01*
X111016Y170589D01*
X108476Y173129D01*
X108449Y173151D01*
X108426Y173177D01*
X108277Y173295D01*
X108130Y173418D01*
X108100Y173435D01*
X108073Y173456D01*
X107905Y173546D01*
X107739Y173641D01*
X107707Y173653D01*
X107676Y173669D01*
X107495Y173728D01*
X107315Y173792D01*
X107281Y173798D01*
X107248Y173808D01*
X107059Y173834D01*
X106871Y173865D01*
X106836Y173865D01*
X106802Y173870D01*
X106611Y173862D01*
X106421Y173859D01*
X106386Y173853D01*
X106352Y173851D01*
X106166Y173810D01*
X105978Y173774D01*
X105946Y173761D01*
X105912Y173754D01*
X105736Y173680D01*
X105558Y173611D01*
X105529Y173594D01*
X105497Y173580D01*
X105336Y173476D01*
X105174Y173378D01*
X105148Y173355D01*
X105119Y173336D01*
X104884Y173129D01*
X102253Y170498D01*
X96885Y168274D01*
X91075Y168274D01*
X85707Y170498D01*
X81598Y174607D01*
X79374Y179975D01*
X79374Y185785D01*
X81598Y191153D01*
X85707Y195262D01*
X91075Y197486D01*
X96885Y197486D01*
X102253Y195262D01*
X104884Y192631D01*
X104911Y192609D01*
X104934Y192583D01*
X105083Y192465D01*
X105230Y192342D01*
X105260Y192325D01*
X105287Y192304D01*
X105455Y192214D01*
X105621Y192119D01*
X105653Y192107D01*
X105684Y192091D01*
X105865Y192032D01*
X106045Y191968D01*
X106079Y191962D01*
X106112Y191952D01*
X106301Y191926D01*
X106489Y191895D01*
X106524Y191895D01*
X106558Y191890D01*
X106749Y191898D01*
X106940Y191901D01*
X106974Y191907D01*
X107008Y191909D01*
X107194Y191950D01*
X107382Y191986D01*
X107414Y191999D01*
X107448Y192006D01*
X107623Y192080D01*
X107802Y192149D01*
X107831Y192167D01*
X107863Y192180D01*
X108023Y192283D01*
X108186Y192382D01*
X108212Y192405D01*
X108241Y192424D01*
X108476Y192631D01*
X111106Y195262D01*
X116475Y197486D01*
X122285Y197486D01*
X127654Y195262D01*
X130284Y192631D01*
X130311Y192609D01*
X130334Y192583D01*
X130483Y192465D01*
X130630Y192342D01*
X130660Y192325D01*
X130687Y192304D01*
X130855Y192214D01*
X131021Y192119D01*
X131053Y192107D01*
X131084Y192091D01*
X131265Y192032D01*
X131445Y191968D01*
X131479Y191962D01*
X131512Y191952D01*
X131701Y191926D01*
X131889Y191895D01*
X131924Y191895D01*
X131958Y191890D01*
X132149Y191898D01*
X132339Y191901D01*
X132374Y191907D01*
X132408Y191909D01*
X132594Y191950D01*
X132782Y191986D01*
X132814Y191999D01*
X132848Y192006D01*
X133024Y192080D01*
X133202Y192149D01*
X133231Y192166D01*
X133263Y192180D01*
X133424Y192284D01*
X133586Y192382D01*
X133612Y192405D01*
X133641Y192424D01*
X133876Y192631D01*
X136507Y195262D01*
X141875Y197486D01*
X147685Y197486D01*
X153054Y195262D01*
X155684Y192631D01*
X155711Y192609D01*
X155734Y192583D01*
X155883Y192465D01*
X156030Y192342D01*
X156060Y192325D01*
X156087Y192304D01*
X156255Y192214D01*
X156421Y192119D01*
X156453Y192107D01*
X156484Y192091D01*
X156665Y192032D01*
X156845Y191968D01*
X156879Y191962D01*
X156912Y191952D01*
X157101Y191926D01*
X157289Y191895D01*
X157324Y191895D01*
X157358Y191890D01*
X157549Y191898D01*
X157739Y191901D01*
X157774Y191907D01*
X157808Y191909D01*
X157994Y191950D01*
X158182Y191986D01*
X158214Y191999D01*
X158248Y192006D01*
X158424Y192080D01*
X158602Y192149D01*
X158631Y192166D01*
X158663Y192180D01*
X158824Y192284D01*
X158986Y192382D01*
X159012Y192405D01*
X159041Y192424D01*
X159276Y192631D01*
X161907Y195262D01*
X167275Y197486D01*
X173085Y197486D01*
X178454Y195262D01*
X181084Y192631D01*
X181111Y192609D01*
X181134Y192583D01*
X181283Y192465D01*
X181430Y192342D01*
X181460Y192325D01*
X181487Y192304D01*
X181655Y192214D01*
X181821Y192119D01*
X181853Y192107D01*
X181884Y192091D01*
X182065Y192032D01*
X182245Y191968D01*
X182279Y191962D01*
X182312Y191952D01*
X182501Y191926D01*
X182689Y191895D01*
X182724Y191895D01*
X182758Y191890D01*
X182949Y191898D01*
X183139Y191901D01*
X183174Y191907D01*
X183208Y191909D01*
X183394Y191950D01*
X183582Y191986D01*
X183614Y191999D01*
X183648Y192006D01*
X183824Y192080D01*
X184002Y192149D01*
X184031Y192166D01*
X184063Y192180D01*
X184224Y192284D01*
X184386Y192382D01*
X184412Y192405D01*
X184441Y192424D01*
X184676Y192631D01*
X187307Y195262D01*
X192675Y197486D01*
X198485Y197486D01*
X203854Y195262D01*
X206484Y192631D01*
X206511Y192609D01*
X206534Y192583D01*
X206683Y192465D01*
X206830Y192342D01*
X206860Y192325D01*
X206887Y192304D01*
X207055Y192214D01*
X207221Y192119D01*
X207253Y192107D01*
X207284Y192091D01*
X207465Y192032D01*
X207645Y191968D01*
X207679Y191962D01*
X207712Y191952D01*
X207901Y191926D01*
X208089Y191895D01*
X208124Y191895D01*
X208158Y191890D01*
X208349Y191898D01*
X208539Y191901D01*
X208574Y191907D01*
X208608Y191909D01*
X208794Y191950D01*
X208982Y191986D01*
X209014Y191999D01*
X209048Y192006D01*
X209224Y192080D01*
X209402Y192149D01*
X209431Y192166D01*
X209463Y192180D01*
X209624Y192284D01*
X209786Y192382D01*
X209812Y192405D01*
X209841Y192424D01*
X210076Y192631D01*
X212707Y195262D01*
X218075Y197486D01*
X223885Y197486D01*
X229254Y195262D01*
X231884Y192631D01*
X231911Y192609D01*
X231934Y192583D01*
X232009Y192524D01*
X232077Y192457D01*
X232156Y192404D01*
X232230Y192342D01*
X232260Y192325D01*
X232287Y192304D01*
X232372Y192258D01*
X232450Y192205D01*
X232537Y192166D01*
X232621Y192119D01*
X232653Y192107D01*
X232684Y192091D01*
X232775Y192061D01*
X232862Y192023D01*
X232955Y192000D01*
X233045Y191968D01*
X233079Y191962D01*
X233112Y191952D01*
X233207Y191939D01*
X233300Y191916D01*
X233395Y191910D01*
X233489Y191895D01*
X233524Y191895D01*
X233558Y191890D01*
X233654Y191894D01*
X233749Y191888D01*
X233844Y191899D01*
X233939Y191901D01*
X233974Y191907D01*
X234008Y191909D01*
X234102Y191929D01*
X234196Y191940D01*
X234288Y191968D01*
X234382Y191986D01*
X234414Y191999D01*
X234448Y192006D01*
X234536Y192043D01*
X234627Y192071D01*
X234712Y192114D01*
X234802Y192149D01*
X234831Y192166D01*
X234863Y192180D01*
X234944Y192232D01*
X235029Y192275D01*
X235105Y192333D01*
X235186Y192382D01*
X235212Y192405D01*
X235241Y192424D01*
X235339Y192510D01*
X235387Y192547D01*
X235418Y192580D01*
X235476Y192631D01*
X235498Y192658D01*
X235524Y192681D01*
X235604Y192783D01*
X235693Y192878D01*
X235725Y192930D01*
X235764Y192977D01*
X235782Y193007D01*
X235803Y193034D01*
X235864Y193148D01*
X235934Y193258D01*
X235958Y193315D01*
X235988Y193368D01*
X235999Y193400D01*
X236016Y193431D01*
X236056Y193554D01*
X236105Y193675D01*
X236118Y193734D01*
X236139Y193792D01*
X236144Y193826D01*
X236155Y193859D01*
X236173Y193987D01*
X236200Y194115D01*
X236205Y194192D01*
X236212Y194236D01*
X236212Y194271D01*
X236216Y194305D01*
X236215Y194349D01*
X236219Y194427D01*
X236219Y198992D01*
X236205Y199155D01*
X236198Y199320D01*
X236185Y199379D01*
X236179Y199440D01*
X236136Y199599D01*
X236100Y199759D01*
X236077Y199816D01*
X236061Y199874D01*
X235990Y200023D01*
X235927Y200175D01*
X235894Y200226D01*
X235867Y200281D01*
X235772Y200415D01*
X235682Y200553D01*
X235631Y200611D01*
X235605Y200647D01*
X235562Y200690D01*
X235476Y200787D01*
X231267Y204996D01*
X231141Y205101D01*
X231020Y205213D01*
X230969Y205245D01*
X230922Y205284D01*
X230779Y205366D01*
X230640Y205454D01*
X230584Y205478D01*
X230531Y205508D01*
X230376Y205563D01*
X230224Y205625D01*
X230164Y205638D01*
X230107Y205659D01*
X229944Y205685D01*
X229783Y205720D01*
X229707Y205725D01*
X229662Y205732D01*
X229601Y205731D01*
X229472Y205739D01*
X145804Y205739D01*
X143003Y206899D01*
X67836Y282067D01*
X67736Y282151D01*
X67643Y282241D01*
X67563Y282295D01*
X67490Y282356D01*
X67377Y282421D01*
X67270Y282493D01*
X67182Y282532D01*
X67099Y282579D01*
X66977Y282623D01*
X66858Y282676D01*
X66765Y282698D01*
X66675Y282730D01*
X66546Y282751D01*
X66420Y282782D01*
X66325Y282788D01*
X66231Y282804D01*
X66100Y282802D01*
X65971Y282810D01*
X65876Y282799D01*
X65780Y282798D01*
X65653Y282773D01*
X65524Y282758D01*
X65432Y282730D01*
X65338Y282712D01*
X65217Y282665D01*
X65093Y282628D01*
X65008Y282584D01*
X64918Y282550D01*
X64807Y282482D01*
X64691Y282423D01*
X64615Y282366D01*
X64534Y282316D01*
X64436Y282230D01*
X64333Y282151D01*
X64268Y282081D01*
X64196Y282018D01*
X64116Y281916D01*
X64027Y281820D01*
X63976Y281739D01*
X63917Y281665D01*
X63856Y281550D01*
X63786Y281440D01*
X63749Y281352D01*
X63704Y281268D01*
X63664Y281144D01*
X63615Y281024D01*
X63595Y280930D01*
X63565Y280839D01*
X63547Y280711D01*
X63520Y280584D01*
X63512Y280454D01*
X63504Y280393D01*
X63505Y280349D01*
X63501Y280272D01*
X63501Y151528D01*
X63515Y151365D01*
X63522Y151200D01*
X63535Y151141D01*
X63541Y151080D01*
X63584Y150921D01*
X63620Y150761D01*
X63643Y150704D01*
X63659Y150646D01*
X63730Y150497D01*
X63793Y150345D01*
X63826Y150294D01*
X63853Y150239D01*
X63948Y150105D01*
X64038Y149967D01*
X64089Y149909D01*
X64115Y149873D01*
X64158Y149830D01*
X64244Y149733D01*
X114173Y99804D01*
X114299Y99699D01*
X114420Y99587D01*
X114471Y99555D01*
X114518Y99516D01*
X114661Y99434D01*
X114800Y99346D01*
X114856Y99322D01*
X114909Y99292D01*
X115064Y99237D01*
X115216Y99175D01*
X115276Y99162D01*
X115333Y99141D01*
X115496Y99115D01*
X115657Y99080D01*
X115733Y99075D01*
X115778Y99068D01*
X115839Y99069D01*
X115968Y99061D01*
X193912Y99061D01*
X194075Y99075D01*
G37*
%LPC*%
G36*
X226170Y532767D02*
X226170Y532767D01*
X220755Y535010D01*
X216610Y539155D01*
X214367Y544570D01*
X214367Y550431D01*
X216610Y555846D01*
X219169Y558405D01*
X219192Y558431D01*
X219218Y558454D01*
X219336Y558604D01*
X219458Y558750D01*
X219475Y558780D01*
X219497Y558807D01*
X219587Y558975D01*
X219682Y559141D01*
X219693Y559173D01*
X219710Y559204D01*
X219768Y559385D01*
X219832Y559565D01*
X219838Y559599D01*
X219849Y559632D01*
X219875Y559821D01*
X219906Y560009D01*
X219905Y560044D01*
X219910Y560078D01*
X219902Y560269D01*
X219900Y560460D01*
X219893Y560494D01*
X219892Y560528D01*
X219851Y560714D01*
X219814Y560902D01*
X219802Y560934D01*
X219794Y560968D01*
X219721Y561144D01*
X219652Y561322D01*
X219634Y561351D01*
X219621Y561383D01*
X219517Y561544D01*
X219418Y561706D01*
X219395Y561732D01*
X219376Y561761D01*
X219169Y561996D01*
X216610Y564555D01*
X214367Y569970D01*
X214367Y575831D01*
X216610Y581245D01*
X220755Y585390D01*
X226170Y587633D01*
X232031Y587633D01*
X237446Y585390D01*
X240005Y582831D01*
X240031Y582809D01*
X240054Y582783D01*
X240204Y582664D01*
X240350Y582542D01*
X240380Y582525D01*
X240407Y582503D01*
X240575Y582413D01*
X240741Y582319D01*
X240774Y582307D01*
X240804Y582291D01*
X240985Y582232D01*
X241165Y582168D01*
X241199Y582162D01*
X241232Y582151D01*
X241421Y582125D01*
X241609Y582094D01*
X241644Y582095D01*
X241678Y582090D01*
X241869Y582098D01*
X242060Y582100D01*
X242094Y582107D01*
X242128Y582108D01*
X242314Y582150D01*
X242502Y582186D01*
X242534Y582198D01*
X242568Y582206D01*
X242744Y582280D01*
X242922Y582348D01*
X242951Y582366D01*
X242983Y582380D01*
X243144Y582483D01*
X243306Y582582D01*
X243332Y582605D01*
X243361Y582624D01*
X243596Y582831D01*
X246155Y585390D01*
X251570Y587633D01*
X257431Y587633D01*
X262846Y585390D01*
X265405Y582831D01*
X265431Y582809D01*
X265454Y582783D01*
X265604Y582664D01*
X265750Y582542D01*
X265780Y582525D01*
X265807Y582503D01*
X265975Y582413D01*
X266141Y582319D01*
X266174Y582307D01*
X266204Y582291D01*
X266385Y582232D01*
X266565Y582168D01*
X266599Y582162D01*
X266632Y582151D01*
X266821Y582125D01*
X267009Y582094D01*
X267044Y582095D01*
X267078Y582090D01*
X267269Y582098D01*
X267460Y582100D01*
X267494Y582107D01*
X267528Y582108D01*
X267714Y582150D01*
X267902Y582186D01*
X267934Y582198D01*
X267968Y582206D01*
X268144Y582280D01*
X268322Y582348D01*
X268351Y582366D01*
X268383Y582380D01*
X268544Y582483D01*
X268706Y582582D01*
X268732Y582605D01*
X268761Y582624D01*
X268996Y582831D01*
X271555Y585390D01*
X276970Y587633D01*
X282831Y587633D01*
X288246Y585390D01*
X292390Y581245D01*
X294633Y575831D01*
X294633Y569970D01*
X292390Y564555D01*
X289831Y561996D01*
X289809Y561969D01*
X289783Y561946D01*
X289665Y561797D01*
X289542Y561650D01*
X289525Y561620D01*
X289503Y561593D01*
X289413Y561425D01*
X289319Y561259D01*
X289307Y561227D01*
X289291Y561196D01*
X289232Y561015D01*
X289168Y560835D01*
X289162Y560801D01*
X289151Y560768D01*
X289126Y560579D01*
X289094Y560391D01*
X289095Y560356D01*
X289090Y560322D01*
X289098Y560131D01*
X289100Y559941D01*
X289107Y559906D01*
X289108Y559872D01*
X289150Y559686D01*
X289186Y559498D01*
X289198Y559466D01*
X289206Y559432D01*
X289279Y559257D01*
X289348Y559078D01*
X289366Y559049D01*
X289380Y559017D01*
X289483Y558857D01*
X289582Y558694D01*
X289605Y558668D01*
X289624Y558639D01*
X289831Y558405D01*
X292390Y555846D01*
X294633Y550431D01*
X294633Y544570D01*
X292390Y539155D01*
X288246Y535010D01*
X282831Y532767D01*
X276970Y532767D01*
X271555Y535010D01*
X268996Y537569D01*
X268969Y537592D01*
X268946Y537618D01*
X268797Y537736D01*
X268650Y537858D01*
X268620Y537875D01*
X268593Y537897D01*
X268425Y537987D01*
X268259Y538082D01*
X268227Y538093D01*
X268196Y538110D01*
X268015Y538168D01*
X267835Y538232D01*
X267801Y538238D01*
X267768Y538249D01*
X267580Y538275D01*
X267391Y538306D01*
X267356Y538305D01*
X267322Y538310D01*
X267131Y538302D01*
X266941Y538300D01*
X266907Y538293D01*
X266872Y538292D01*
X266686Y538250D01*
X266499Y538214D01*
X266466Y538202D01*
X266432Y538194D01*
X266257Y538121D01*
X266079Y538052D01*
X266049Y538034D01*
X266017Y538021D01*
X265857Y537917D01*
X265694Y537818D01*
X265668Y537795D01*
X265639Y537776D01*
X265405Y537569D01*
X262846Y535010D01*
X257431Y532767D01*
X251570Y532767D01*
X246155Y535010D01*
X243596Y537569D01*
X243569Y537592D01*
X243546Y537618D01*
X243397Y537736D01*
X243250Y537858D01*
X243220Y537875D01*
X243193Y537897D01*
X243025Y537987D01*
X242859Y538082D01*
X242827Y538093D01*
X242796Y538110D01*
X242615Y538168D01*
X242435Y538232D01*
X242401Y538238D01*
X242368Y538249D01*
X242180Y538275D01*
X241991Y538306D01*
X241956Y538305D01*
X241922Y538310D01*
X241731Y538302D01*
X241541Y538300D01*
X241507Y538293D01*
X241472Y538292D01*
X241286Y538250D01*
X241099Y538214D01*
X241066Y538202D01*
X241032Y538194D01*
X240857Y538121D01*
X240679Y538052D01*
X240649Y538034D01*
X240617Y538021D01*
X240457Y537917D01*
X240294Y537818D01*
X240268Y537795D01*
X240239Y537776D01*
X240005Y537569D01*
X237446Y535010D01*
X232031Y532767D01*
X226170Y532767D01*
G37*
%LPD*%
%LPC*%
G36*
X274319Y312419D02*
X274319Y312419D01*
X274319Y321694D01*
X274606Y321649D01*
X276412Y321062D01*
X278104Y320200D01*
X279640Y319083D01*
X280983Y317740D01*
X282100Y316204D01*
X282962Y314512D01*
X283549Y312706D01*
X283594Y312419D01*
X274319Y312419D01*
G37*
%LPD*%
%LPC*%
G36*
X274319Y307341D02*
X274319Y307341D01*
X283594Y307341D01*
X283549Y307054D01*
X282962Y305248D01*
X282100Y303556D01*
X280983Y302020D01*
X279640Y300677D01*
X278104Y299560D01*
X276412Y298698D01*
X274606Y298111D01*
X274319Y298066D01*
X274319Y307341D01*
G37*
%LPD*%
%LPC*%
G36*
X159854Y248919D02*
X159854Y248919D01*
X160375Y250524D01*
X161147Y252038D01*
X162145Y253413D01*
X163347Y254615D01*
X164722Y255613D01*
X166236Y256385D01*
X167841Y256906D01*
X167841Y248919D01*
X159854Y248919D01*
G37*
%LPD*%
D10*
X508000Y241300D03*
X508000Y266700D03*
X508000Y292100D03*
X508000Y317500D03*
X508000Y342900D03*
X508000Y368300D03*
X508000Y419100D03*
X508000Y444500D03*
X508000Y469900D03*
X508000Y495300D03*
X508000Y520700D03*
X508000Y546100D03*
X25400Y546100D03*
X25400Y520700D03*
X25400Y495300D03*
X25400Y469900D03*
X25400Y444500D03*
X25400Y419100D03*
X25400Y393700D03*
X25400Y368300D03*
X25400Y327660D03*
X25400Y302260D03*
X25400Y276860D03*
X25400Y251460D03*
X25400Y226060D03*
X25400Y200660D03*
X25400Y175260D03*
X25400Y149860D03*
X25400Y124460D03*
X25400Y99060D03*
X508000Y215900D03*
X508000Y190500D03*
X229100Y547500D03*
X229100Y572900D03*
X254500Y547500D03*
X279900Y547500D03*
X254500Y572900D03*
X279900Y572900D03*
D11*
X119380Y182880D03*
X144780Y182880D03*
X170180Y182880D03*
X195580Y182880D03*
X220980Y182880D03*
X246380Y182880D03*
X271780Y182880D03*
X93980Y182880D03*
X119380Y309880D03*
X144780Y309880D03*
X170180Y309880D03*
X195580Y309880D03*
X220980Y309880D03*
X246380Y309880D03*
X271780Y309880D03*
X93980Y309880D03*
D12*
X438150Y383540D03*
D13*
X438150Y358140D03*
D12*
X438150Y408940D03*
X438150Y434340D03*
X438150Y459740D03*
X438150Y485140D03*
D14*
X127000Y59436D02*
X127000Y42164D01*
X152400Y42164D02*
X152400Y59436D01*
X177800Y59436D02*
X177800Y42164D01*
X177800Y118364D02*
X177800Y135636D01*
X127000Y135636D02*
X127000Y118364D01*
X152400Y118364D02*
X152400Y135636D01*
D15*
X170380Y246380D03*
D16*
X195380Y246380D03*
D17*
X421640Y76200D03*
D18*
X471640Y76200D03*
D17*
X292100Y76200D03*
D18*
X342100Y76200D03*
D19*
X119380Y309880D02*
X152400Y342900D01*
X165100Y342900D01*
D20*
X165100Y342900D03*
X304800Y342900D03*
D19*
X304800Y317500D01*
X297180Y309880D01*
X271780Y309880D01*
D20*
X322548Y540966D03*
X62647Y44869D03*
X381809Y40636D03*
X403820Y240429D03*
X92277Y231963D03*
X143919Y265827D03*
X329320Y474933D03*
X135453Y444456D03*
X456308Y326781D03*
D19*
X152400Y50800D02*
X127000Y50800D01*
X152400Y50800D02*
X177800Y50800D01*
X248920Y309880D02*
X248920Y325120D01*
X335280Y411480D01*
X248920Y309880D02*
X246380Y309880D01*
X487680Y289560D02*
X508000Y289560D01*
X487680Y289560D02*
X482600Y284480D01*
X477520Y284480D02*
X462280Y284480D01*
X477520Y284480D02*
X482600Y284480D01*
X462280Y284480D02*
X335280Y411480D01*
X508000Y292100D02*
X508000Y289560D01*
X243840Y50800D02*
X177800Y50800D01*
X243840Y50800D02*
X274320Y20320D01*
X457200Y20320D01*
X515620Y78740D01*
X515620Y139700D01*
X477520Y177800D01*
X477520Y284480D01*
X438150Y459740D02*
X383540Y459740D01*
X335280Y411480D01*
X220980Y182880D02*
X195580Y182880D01*
X243840Y182880D02*
X243840Y203200D01*
X233680Y213360D01*
X147320Y213360D01*
X55880Y304800D01*
X55880Y477520D01*
X243840Y182880D02*
X246380Y182880D01*
X38100Y495300D02*
X25400Y495300D01*
X38100Y495300D02*
X55880Y477520D01*
X111760Y91440D02*
X198120Y91440D01*
X111760Y91440D02*
X55880Y147320D01*
X55880Y289560D01*
X45720Y299720D01*
X45720Y457200D01*
X271780Y182880D02*
X271780Y165100D01*
X198120Y91440D01*
X33020Y469900D02*
X25400Y469900D01*
X33020Y469900D02*
X45720Y457200D01*
X144780Y309880D02*
X187960Y266700D01*
X215900Y266700D01*
X304800Y88900D02*
X292100Y76200D01*
X304800Y88900D02*
X304800Y177800D01*
X215900Y266700D01*
X220108Y276860D02*
X193040Y276860D01*
X342100Y154868D02*
X342100Y76200D01*
X342100Y154868D02*
X220108Y276860D01*
X170180Y299720D02*
X170180Y309880D01*
X170180Y299720D02*
X193040Y276860D01*
X421640Y92312D02*
X421640Y76200D01*
X215900Y287020D02*
X195580Y307340D01*
X195580Y309880D01*
X226932Y287020D02*
X421640Y92312D01*
X226932Y287020D02*
X215900Y287020D01*
X471640Y87160D02*
X471640Y76200D01*
X471640Y87160D02*
X441960Y116840D01*
X411480Y116840D01*
X220980Y307340D01*
X220980Y309880D01*
X119380Y134620D02*
X127000Y127000D01*
X119380Y134620D02*
X119380Y182880D01*
X144780Y134620D02*
X152400Y127000D01*
X144780Y134620D02*
X144780Y182880D01*
X170180Y134620D02*
X177800Y127000D01*
X170180Y134620D02*
X170180Y182880D01*
X396240Y383540D02*
X438150Y383540D01*
X396240Y383540D02*
X393700Y381000D01*
D20*
X393700Y381000D03*
X139700Y520700D03*
D19*
X25400Y520700D01*
X391160Y408940D02*
X438150Y408940D01*
X391160Y408940D02*
X381000Y419100D01*
D20*
X381000Y419100D03*
X177800Y533400D03*
D19*
X165100Y546100D01*
X25400Y546100D01*
X193040Y243840D02*
X193040Y233680D01*
X182880Y223520D01*
X157480Y223520D01*
X193040Y243840D02*
X195380Y246380D01*
X467360Y411480D02*
X508000Y370840D01*
X467360Y411480D02*
X467360Y497840D01*
X452120Y513080D01*
X284480Y513080D01*
X508000Y370840D02*
X508000Y368300D01*
X93980Y309880D02*
X93980Y287020D01*
X157480Y223520D01*
X93980Y309880D02*
X93980Y322580D01*
X284480Y513080D01*
M02*
