G04 EAGLE Gerber RS-274X export*
G75*
%MOMM*%
%FSLAX34Y34*%
%LPD*%
%INSilkscreen Bottom*%
%IPPOS*%
%AMOC8*
5,1,8,0,0,1.08239X$1,22.5*%
G01*
%ADD10R,0.083819X0.084581*%
%ADD11R,0.086363X0.084581*%
%ADD12R,0.170181X0.084581*%
%ADD13R,0.254000X0.084581*%
%ADD14R,0.170181X0.084838*%
%ADD15R,0.337819X0.084838*%
%ADD16R,0.254000X0.084838*%
%ADD17R,1.099819X0.084838*%
%ADD18R,0.848363X0.084838*%
%ADD19R,0.678181X0.084838*%
%ADD20R,0.086363X0.084838*%
%ADD21R,0.845819X0.084838*%
%ADD22R,0.167637X0.084838*%
%ADD23R,0.337819X0.084581*%
%ADD24R,0.340363X0.084581*%
%ADD25R,1.099819X0.084581*%
%ADD26R,1.183638X0.084581*%
%ADD27R,0.932181X0.084581*%
%ADD28R,0.508000X0.084581*%
%ADD29R,1.016000X0.084581*%
%ADD30R,0.167637X0.084581*%
%ADD31R,0.424181X0.084581*%
%ADD32R,0.340363X0.084838*%
%ADD33R,1.270000X0.084581*%
%ADD34R,0.083819X0.084838*%
%ADD35R,0.508000X0.084838*%
%ADD36R,0.424181X0.084838*%
%ADD37R,0.421637X0.084581*%
%ADD38R,0.591819X0.084581*%
%ADD39R,0.762000X0.084581*%
%ADD40R,0.762000X0.084838*%
%ADD41R,1.016000X0.084838*%
%ADD42R,0.929638X0.084838*%
%ADD43R,0.421637X0.084838*%
%ADD44R,0.594363X0.084838*%
%ADD45R,0.932181X0.084838*%
%ADD46R,0.929638X0.084581*%
%ADD47R,1.353819X0.084581*%
%ADD48R,1.102363X0.084581*%
%ADD49R,0.675638X0.084581*%
%ADD50R,4.150362X0.084838*%
%ADD51R,4.064000X0.084838*%
%ADD52R,4.064000X0.084581*%
%ADD53R,3.980181X0.084581*%
%ADD54R,3.893819X0.084581*%
%ADD55R,3.726181X0.084838*%
%ADD56R,3.810000X0.084838*%
%ADD57R,3.723638X0.084838*%
%ADD58R,3.726181X0.084581*%
%ADD59R,1.440181X0.084581*%
%ADD60R,1.186181X0.084581*%
%ADD61R,1.607819X0.084581*%
%ADD62R,1.610363X0.084581*%
%ADD63R,1.102363X0.084838*%
%ADD64R,1.186181X0.084838*%
%ADD65R,1.524000X0.084581*%
%ADD66R,2.710181X0.084838*%
%ADD67R,2.626362X0.084838*%
%ADD68R,0.675638X0.084838*%
%ADD69R,0.591819X0.084838*%
%ADD70R,0.845819X0.084581*%
%ADD71R,0.594363X0.084581*%
%ADD72R,0.848363X0.084581*%
%ADD73R,0.678181X0.084581*%
%ADD74R,1.440181X0.084838*%


D10*
X332709Y395356D03*
D11*
X319158Y395356D03*
X298838Y395356D03*
D10*
X290367Y395356D03*
D11*
X288678Y395356D03*
D10*
X280207Y395356D03*
X270047Y395356D03*
D11*
X268358Y395356D03*
D10*
X264967Y395356D03*
D12*
X242539Y395356D03*
D11*
X240418Y395356D03*
D13*
X222638Y395356D03*
D11*
X220098Y395356D03*
D10*
X205709Y395356D03*
X193847Y395356D03*
D11*
X184538Y395356D03*
D10*
X182849Y395356D03*
X180309Y395356D03*
D11*
X176918Y395356D03*
D12*
X156179Y395356D03*
X153639Y395356D03*
D11*
X151518Y395356D03*
D10*
X137129Y395356D03*
X120187Y395356D03*
D12*
X118079Y395356D03*
D11*
X103258Y395356D03*
D10*
X87167Y395356D03*
D11*
X85478Y395356D03*
D14*
X332277Y396203D03*
X319577Y396203D03*
D15*
X311119Y396203D03*
D14*
X298419Y396203D03*
D16*
X289516Y396203D03*
X280220Y396203D03*
D17*
X267507Y396203D03*
D18*
X241688Y396203D03*
D19*
X222219Y396203D03*
D20*
X217558Y396203D03*
D16*
X206560Y396203D03*
X193860Y396203D03*
D17*
X180309Y396203D03*
D21*
X154477Y396203D03*
D16*
X136278Y396203D03*
D21*
X118079Y396203D03*
D16*
X103258Y396203D03*
D22*
X86748Y396203D03*
D13*
X331858Y397050D03*
D10*
X325927Y397050D03*
D23*
X319577Y397050D03*
X311119Y397050D03*
X298419Y397050D03*
D24*
X289948Y397050D03*
D23*
X280639Y397050D03*
D25*
X267507Y397050D03*
D26*
X241688Y397050D03*
D27*
X221787Y397050D03*
D13*
X206560Y397050D03*
X193860Y397050D03*
D25*
X180309Y397050D03*
D28*
X157030Y397050D03*
X151086Y397050D03*
D13*
X136278Y397050D03*
D29*
X118066Y397050D03*
D13*
X103258Y397050D03*
D24*
X86748Y397050D03*
D13*
X332696Y397896D03*
D11*
X326778Y397896D03*
D13*
X319996Y397896D03*
X310700Y397896D03*
X298838Y397896D03*
D30*
X289948Y397896D03*
D23*
X281477Y397896D03*
X271317Y397896D03*
D11*
X268358Y397896D03*
X265818Y397896D03*
D10*
X264129Y397896D03*
D23*
X245079Y397896D03*
X237459Y397896D03*
X225597Y397896D03*
X217977Y397896D03*
D13*
X206560Y397896D03*
D10*
X200629Y397896D03*
D13*
X193860Y397896D03*
X183700Y397896D03*
D10*
X180309Y397896D03*
X178607Y397896D03*
X176067Y397896D03*
D24*
X157868Y397896D03*
D11*
X154058Y397896D03*
D10*
X152369Y397896D03*
D13*
X149816Y397896D03*
D12*
X136697Y397896D03*
D31*
X121889Y397896D03*
X114269Y397896D03*
D23*
X102839Y397896D03*
D13*
X87180Y397896D03*
D15*
X332277Y398743D03*
D16*
X325940Y398743D03*
X319158Y398743D03*
X309836Y398743D03*
X299676Y398743D03*
D32*
X289948Y398743D03*
X282328Y398743D03*
D16*
X271736Y398743D03*
D22*
X246768Y398743D03*
D32*
X236608Y398743D03*
X226448Y398743D03*
D15*
X217139Y398743D03*
D16*
X206560Y398743D03*
X199778Y398743D03*
X193860Y398743D03*
X184538Y398743D03*
X159138Y398743D03*
D15*
X149397Y398743D03*
X136697Y398743D03*
D16*
X122740Y398743D03*
X113418Y398743D03*
X103258Y398743D03*
D22*
X86748Y398743D03*
D12*
X332277Y399590D03*
D31*
X325927Y399590D03*
D13*
X319996Y399590D03*
D33*
X304756Y399590D03*
D13*
X289516Y399590D03*
D31*
X282747Y399590D03*
D13*
X271736Y399590D03*
X236176Y399590D03*
X226880Y399590D03*
D24*
X216288Y399590D03*
D13*
X206560Y399590D03*
D23*
X200197Y399590D03*
D13*
X193860Y399590D03*
X184538Y399590D03*
X148978Y399590D03*
X136278Y399590D03*
X122740Y399590D03*
X113418Y399590D03*
X103258Y399590D03*
D24*
X86748Y399590D03*
D12*
X332277Y400436D03*
D31*
X325927Y400436D03*
D13*
X319158Y400436D03*
D33*
X304756Y400436D03*
D24*
X289948Y400436D03*
D28*
X284030Y400436D03*
D23*
X271317Y400436D03*
D13*
X237040Y400436D03*
D23*
X227299Y400436D03*
D24*
X216288Y400436D03*
D13*
X206560Y400436D03*
D28*
X200210Y400436D03*
D13*
X193860Y400436D03*
X183700Y400436D03*
X148978Y400436D03*
D23*
X136697Y400436D03*
D13*
X122740Y400436D03*
D23*
X112999Y400436D03*
X102839Y400436D03*
D24*
X86748Y400436D03*
D15*
X332277Y401283D03*
D22*
X328048Y401283D03*
D15*
X324657Y401283D03*
D16*
X319996Y401283D03*
X308998Y401283D03*
D20*
X306458Y401283D03*
D34*
X304769Y401283D03*
X303067Y401283D03*
D16*
X300540Y401283D03*
X289516Y401283D03*
D32*
X284868Y401283D03*
D16*
X271736Y401283D03*
D35*
X237446Y401283D03*
D15*
X227299Y401283D03*
D32*
X216288Y401283D03*
D16*
X206560Y401283D03*
D35*
X200210Y401283D03*
D16*
X193860Y401283D03*
X184538Y401283D03*
D36*
X149829Y401283D03*
D16*
X136278Y401283D03*
X123578Y401283D03*
X113418Y401283D03*
X103258Y401283D03*
D34*
X99029Y401283D03*
D16*
X87180Y401283D03*
D13*
X332696Y402130D03*
D24*
X328048Y402130D03*
D12*
X323819Y402130D03*
D23*
X319577Y402130D03*
X308579Y402130D03*
X300959Y402130D03*
D13*
X290380Y402130D03*
D37*
X286138Y402130D03*
D13*
X271736Y402130D03*
D10*
X267507Y402130D03*
D30*
X264548Y402130D03*
D11*
X242958Y402130D03*
D38*
X238729Y402130D03*
D23*
X228137Y402130D03*
D13*
X215856Y402130D03*
X206560Y402130D03*
X202318Y402130D03*
X198076Y402130D03*
X193860Y402130D03*
D23*
X184119Y402130D03*
D10*
X181147Y402130D03*
D11*
X179458Y402130D03*
D10*
X177769Y402130D03*
X154909Y402130D03*
D28*
X151086Y402130D03*
D23*
X136697Y402130D03*
X123159Y402130D03*
D13*
X112580Y402130D03*
D23*
X102839Y402130D03*
D10*
X97327Y402130D03*
D24*
X86748Y402130D03*
D11*
X82938Y402130D03*
D10*
X78709Y402130D03*
D13*
X331858Y402976D03*
D30*
X328048Y402976D03*
D13*
X323400Y402976D03*
D12*
X319577Y402976D03*
D13*
X308160Y402976D03*
X301378Y402976D03*
D28*
X288246Y402976D03*
D29*
X267926Y402976D03*
D39*
X240418Y402976D03*
D13*
X227718Y402976D03*
X215856Y402976D03*
X206560Y402976D03*
X202318Y402976D03*
X198076Y402976D03*
X193860Y402976D03*
D29*
X180728Y402976D03*
D39*
X153220Y402976D03*
D13*
X136278Y402976D03*
X122740Y402976D03*
D23*
X112999Y402976D03*
D29*
X99448Y402976D03*
X83370Y402976D03*
D14*
X332277Y403823D03*
D16*
X328480Y403823D03*
X323400Y403823D03*
D15*
X319577Y403823D03*
D16*
X308160Y403823D03*
D15*
X301797Y403823D03*
D40*
X287840Y403823D03*
D41*
X267926Y403823D03*
D19*
X242539Y403823D03*
D16*
X227718Y403823D03*
D32*
X216288Y403823D03*
D16*
X206560Y403823D03*
X203156Y403823D03*
X197238Y403823D03*
X193860Y403823D03*
D41*
X179890Y403823D03*
D19*
X154477Y403823D03*
D16*
X136278Y403823D03*
X123578Y403823D03*
X112580Y403823D03*
D41*
X99448Y403823D03*
D42*
X82938Y403823D03*
D38*
X331007Y404670D03*
D13*
X322536Y404670D03*
D12*
X319577Y404670D03*
D24*
X307728Y404670D03*
D13*
X302216Y404670D03*
X289516Y404670D03*
X286138Y404670D03*
D23*
X271317Y404670D03*
D11*
X268358Y404670D03*
D10*
X266669Y404670D03*
X264967Y404670D03*
D31*
X244647Y404670D03*
D13*
X227718Y404670D03*
X215856Y404670D03*
X206560Y404670D03*
X203156Y404670D03*
D12*
X196819Y404670D03*
D13*
X193860Y404670D03*
D23*
X184119Y404670D03*
D10*
X181147Y404670D03*
D11*
X179458Y404670D03*
D28*
X157030Y404670D03*
D23*
X136697Y404670D03*
X123159Y404670D03*
X112999Y404670D03*
X102839Y404670D03*
D10*
X99029Y404670D03*
X96489Y404670D03*
D13*
X87180Y404670D03*
D10*
X84627Y404670D03*
D11*
X82938Y404670D03*
D10*
X81249Y404670D03*
X79547Y404670D03*
D28*
X330588Y405516D03*
X321266Y405516D03*
D13*
X307296Y405516D03*
X302216Y405516D03*
D24*
X289948Y405516D03*
D31*
X285287Y405516D03*
D13*
X271736Y405516D03*
D23*
X245079Y405516D03*
D13*
X227718Y405516D03*
X215856Y405516D03*
D28*
X205290Y405516D03*
D38*
X195549Y405516D03*
D13*
X184538Y405516D03*
D24*
X157868Y405516D03*
D13*
X137116Y405516D03*
X122740Y405516D03*
D12*
X112999Y405516D03*
D13*
X103258Y405516D03*
X87180Y405516D03*
D35*
X331426Y406363D03*
X320428Y406363D03*
D16*
X306458Y406363D03*
X303080Y406363D03*
X289516Y406363D03*
D15*
X284017Y406363D03*
X271317Y406363D03*
D16*
X245498Y406363D03*
D15*
X227299Y406363D03*
D32*
X216288Y406363D03*
D35*
X205290Y406363D03*
D43*
X194698Y406363D03*
D15*
X184119Y406363D03*
D14*
X158719Y406363D03*
D20*
X156598Y406363D03*
D16*
X136278Y406363D03*
D14*
X123997Y406363D03*
D34*
X121889Y406363D03*
D16*
X112580Y406363D03*
D15*
X102839Y406363D03*
D32*
X86748Y406363D03*
D31*
X331007Y407210D03*
X320847Y407210D03*
D13*
X306458Y407210D03*
X303080Y407210D03*
X289516Y407210D03*
D23*
X283179Y407210D03*
D13*
X271736Y407210D03*
X245498Y407210D03*
D10*
X236189Y407210D03*
D24*
X226448Y407210D03*
D13*
X216720Y407210D03*
D31*
X205709Y407210D03*
D37*
X194698Y407210D03*
D13*
X183700Y407210D03*
D24*
X157868Y407210D03*
D13*
X137116Y407210D03*
D23*
X123159Y407210D03*
X112999Y407210D03*
D13*
X103258Y407210D03*
D24*
X86748Y407210D03*
D23*
X332277Y408056D03*
D24*
X320428Y408056D03*
D28*
X305188Y408056D03*
D24*
X289948Y408056D03*
X282328Y408056D03*
D13*
X271736Y408056D03*
X245498Y408056D03*
D30*
X236608Y408056D03*
D24*
X226448Y408056D03*
D37*
X217558Y408056D03*
D31*
X205709Y408056D03*
D37*
X194698Y408056D03*
D13*
X184538Y408056D03*
X157436Y408056D03*
D23*
X149397Y408056D03*
D13*
X136278Y408056D03*
X122740Y408056D03*
D23*
X112999Y408056D03*
D13*
X103258Y408056D03*
D30*
X86748Y408056D03*
D15*
X331439Y408903D03*
D36*
X320009Y408903D03*
X304769Y408903D03*
D32*
X289948Y408903D03*
D15*
X281477Y408903D03*
X271317Y408903D03*
D20*
X268358Y408903D03*
D34*
X266669Y408903D03*
X264967Y408903D03*
D20*
X263278Y408903D03*
D35*
X244228Y408903D03*
D44*
X237878Y408903D03*
D43*
X225178Y408903D03*
D34*
X221787Y408903D03*
D36*
X218409Y408903D03*
D32*
X206128Y408903D03*
D15*
X194279Y408903D03*
X184119Y408903D03*
D34*
X181147Y408903D03*
D14*
X179039Y408903D03*
D20*
X176918Y408903D03*
D34*
X175229Y408903D03*
D35*
X157030Y408903D03*
D34*
X152369Y408903D03*
D15*
X149397Y408903D03*
D16*
X141358Y408903D03*
D45*
X134589Y408903D03*
D15*
X123159Y408903D03*
D16*
X112580Y408903D03*
D36*
X102407Y408903D03*
D34*
X99029Y408903D03*
D15*
X96057Y408903D03*
D32*
X86748Y408903D03*
D14*
X83357Y408903D03*
D34*
X81249Y408903D03*
X79547Y408903D03*
D23*
X332277Y409750D03*
D13*
X319996Y409750D03*
X304756Y409750D03*
X289516Y409750D03*
D23*
X280639Y409750D03*
D25*
X267507Y409750D03*
D46*
X240418Y409750D03*
D27*
X221787Y409750D03*
D24*
X206128Y409750D03*
D13*
X193860Y409750D03*
D25*
X180309Y409750D03*
D27*
X153207Y409750D03*
D47*
X136697Y409750D03*
D23*
X123159Y409750D03*
X112999Y409750D03*
D29*
X99448Y409750D03*
D48*
X82938Y409750D03*
D12*
X332277Y410596D03*
X319577Y410596D03*
D13*
X304756Y410596D03*
X289516Y410596D03*
X280220Y410596D03*
D29*
X267088Y410596D03*
D38*
X241269Y410596D03*
D10*
X237027Y410596D03*
D38*
X221787Y410596D03*
D13*
X206560Y410596D03*
X193860Y410596D03*
D29*
X179890Y410596D03*
D49*
X152788Y410596D03*
D33*
X136278Y410596D03*
D12*
X123159Y410596D03*
X112999Y410596D03*
D29*
X99448Y410596D03*
D46*
X82938Y410596D03*
D34*
X241269Y411443D03*
D10*
X302229Y417370D03*
D11*
X298838Y417370D03*
D10*
X294609Y417370D03*
X286989Y417370D03*
X216707Y417370D03*
D11*
X212478Y417370D03*
X314078Y418216D03*
D10*
X307309Y418216D03*
X304769Y418216D03*
X300527Y418216D03*
D11*
X296298Y418216D03*
X291218Y418216D03*
D10*
X285287Y418216D03*
X282747Y418216D03*
X280207Y418216D03*
D11*
X278518Y418216D03*
D10*
X275127Y418216D03*
X272587Y418216D03*
D11*
X270898Y418216D03*
D10*
X224327Y418216D03*
X220949Y418216D03*
X218409Y418216D03*
X214167Y418216D03*
D11*
X209938Y418216D03*
D10*
X205709Y418216D03*
D11*
X202318Y418216D03*
D10*
X198927Y418216D03*
X195549Y418216D03*
X193847Y418216D03*
X191307Y418216D03*
X188767Y418216D03*
X178607Y418216D03*
X139669Y418216D03*
X137967Y418216D03*
D11*
X136278Y418216D03*
X133738Y418216D03*
D10*
X130347Y418216D03*
X127807Y418216D03*
X125267Y418216D03*
D11*
X118498Y418216D03*
X115958Y418216D03*
D10*
X114269Y418216D03*
X111729Y418216D03*
X110027Y418216D03*
D11*
X108338Y418216D03*
D10*
X106649Y418216D03*
X104109Y418216D03*
X101569Y418216D03*
X99867Y418216D03*
D34*
X314929Y419063D03*
D50*
X288678Y419063D03*
D16*
X263278Y419063D03*
D20*
X230258Y419063D03*
D51*
X204426Y419063D03*
D34*
X178607Y419063D03*
D22*
X145168Y419063D03*
D51*
X119768Y419063D03*
D22*
X94368Y419063D03*
D12*
X314497Y419910D03*
D52*
X289110Y419910D03*
D11*
X263278Y419910D03*
D12*
X229839Y419910D03*
D52*
X204426Y419910D03*
D12*
X179039Y419910D03*
X146019Y419910D03*
D53*
X120187Y419910D03*
D10*
X93949Y419910D03*
X314929Y420756D03*
D54*
X289097Y420756D03*
D12*
X262859Y420756D03*
D11*
X230258Y420756D03*
D54*
X204439Y420756D03*
D10*
X178607Y420756D03*
X145587Y420756D03*
D53*
X120187Y420756D03*
D30*
X94368Y420756D03*
D14*
X314497Y421603D03*
D55*
X289097Y421603D03*
D14*
X263697Y421603D03*
D20*
X230258Y421603D03*
D56*
X204858Y421603D03*
D14*
X179039Y421603D03*
D34*
X145587Y421603D03*
D57*
X119768Y421603D03*
D34*
X93949Y421603D03*
D10*
X314929Y422450D03*
D58*
X289097Y422450D03*
D11*
X263278Y422450D03*
D12*
X229839Y422450D03*
D58*
X204439Y422450D03*
D10*
X178607Y422450D03*
X145587Y422450D03*
D59*
X132049Y422450D03*
D60*
X118079Y422450D03*
D27*
X106649Y422450D03*
D30*
X94368Y422450D03*
D11*
X314078Y423296D03*
D13*
X305620Y423296D03*
D30*
X302648Y423296D03*
D10*
X300527Y423296D03*
D11*
X298838Y423296D03*
D13*
X296298Y423296D03*
X292920Y423296D03*
X289516Y423296D03*
X286138Y423296D03*
D11*
X283598Y423296D03*
D10*
X281909Y423296D03*
X280207Y423296D03*
D11*
X278518Y423296D03*
D10*
X276829Y423296D03*
D30*
X274708Y423296D03*
X272168Y423296D03*
D11*
X263278Y423296D03*
D12*
X230677Y423296D03*
D11*
X222638Y423296D03*
D12*
X219679Y423296D03*
D11*
X217558Y423296D03*
D12*
X215437Y423296D03*
X212897Y423296D03*
D10*
X210789Y423296D03*
D30*
X208668Y423296D03*
D13*
X205696Y423296D03*
D12*
X202737Y423296D03*
D10*
X200629Y423296D03*
X198927Y423296D03*
D11*
X197238Y423296D03*
D12*
X195117Y423296D03*
D10*
X193009Y423296D03*
X191307Y423296D03*
D11*
X189618Y423296D03*
D12*
X187497Y423296D03*
X179039Y423296D03*
D30*
X145168Y423296D03*
D12*
X136697Y423296D03*
D10*
X134589Y423296D03*
X132887Y423296D03*
D11*
X131198Y423296D03*
D12*
X129077Y423296D03*
D29*
X122308Y423296D03*
D12*
X115539Y423296D03*
D11*
X113418Y423296D03*
D13*
X110878Y423296D03*
D11*
X108338Y423296D03*
D10*
X106649Y423296D03*
X104947Y423296D03*
D12*
X102839Y423296D03*
D10*
X93949Y423296D03*
D14*
X314497Y424143D03*
X262859Y424143D03*
D20*
X230258Y424143D03*
D34*
X220949Y424143D03*
X178607Y424143D03*
D14*
X146019Y424143D03*
D22*
X94368Y424143D03*
D10*
X314929Y424990D03*
X305607Y424990D03*
D11*
X278518Y424990D03*
D12*
X275559Y424990D03*
X263697Y424990D03*
D10*
X231109Y424990D03*
X190469Y424990D03*
D12*
X179039Y424990D03*
D10*
X145587Y424990D03*
D12*
X107919Y424990D03*
D11*
X105798Y424990D03*
D30*
X94368Y424990D03*
D10*
X315767Y425836D03*
D11*
X314078Y425836D03*
D13*
X276816Y425836D03*
D10*
X274289Y425836D03*
D11*
X263278Y425836D03*
D12*
X229839Y425836D03*
D23*
X192577Y425836D03*
D11*
X189618Y425836D03*
D10*
X178607Y425836D03*
D11*
X146438Y425836D03*
X136278Y425836D03*
D12*
X108757Y425836D03*
X106217Y425836D03*
D10*
X94787Y425836D03*
D20*
X314078Y426683D03*
D34*
X307309Y426683D03*
X304769Y426683D03*
D32*
X277248Y426683D03*
D34*
X274289Y426683D03*
D20*
X270898Y426683D03*
X263278Y426683D03*
X230258Y426683D03*
D34*
X221787Y426683D03*
D20*
X220098Y426683D03*
D34*
X209087Y426683D03*
X206547Y426683D03*
D20*
X202318Y426683D03*
D34*
X193847Y426683D03*
D14*
X191739Y426683D03*
X189199Y426683D03*
X179039Y426683D03*
D22*
X145168Y426683D03*
D34*
X137967Y426683D03*
X109189Y426683D03*
D22*
X107068Y426683D03*
D34*
X104947Y426683D03*
X93949Y426683D03*
D12*
X314497Y427530D03*
X306877Y427530D03*
D10*
X304769Y427530D03*
D61*
X289529Y427530D03*
D11*
X278518Y427530D03*
D13*
X275978Y427530D03*
D24*
X272168Y427530D03*
D12*
X262859Y427530D03*
D11*
X230258Y427530D03*
D12*
X222219Y427530D03*
D11*
X220098Y427530D03*
D62*
X204858Y427530D03*
D38*
X191307Y427530D03*
D12*
X186659Y427530D03*
D10*
X178607Y427530D03*
X145587Y427530D03*
D11*
X138818Y427530D03*
D13*
X136278Y427530D03*
D61*
X120187Y427530D03*
D31*
X107487Y427530D03*
D23*
X102839Y427530D03*
D10*
X93949Y427530D03*
X314929Y428376D03*
X308147Y428376D03*
D30*
X305188Y428376D03*
D10*
X297149Y428376D03*
D12*
X281477Y428376D03*
D10*
X276829Y428376D03*
D11*
X273438Y428376D03*
D10*
X270047Y428376D03*
D12*
X263697Y428376D03*
X229839Y428376D03*
D10*
X223489Y428376D03*
D12*
X220517Y428376D03*
X212897Y428376D03*
X196819Y428376D03*
D11*
X192158Y428376D03*
D10*
X188767Y428376D03*
X185389Y428376D03*
D12*
X179039Y428376D03*
X146019Y428376D03*
D10*
X139669Y428376D03*
D11*
X136278Y428376D03*
D12*
X128239Y428376D03*
D10*
X112567Y428376D03*
X107487Y428376D03*
X104109Y428376D03*
X101569Y428376D03*
D30*
X94368Y428376D03*
D34*
X314929Y429223D03*
D14*
X308579Y429223D03*
X306039Y429223D03*
D20*
X303918Y429223D03*
D22*
X297568Y429223D03*
D20*
X281058Y429223D03*
D16*
X271736Y429223D03*
D20*
X263278Y429223D03*
X230258Y429223D03*
D16*
X223476Y429223D03*
D34*
X220949Y429223D03*
X219247Y429223D03*
X213329Y429223D03*
X196387Y429223D03*
D15*
X186659Y429223D03*
D34*
X178607Y429223D03*
X145587Y429223D03*
D19*
X136697Y429223D03*
D20*
X128658Y429223D03*
D22*
X112148Y429223D03*
D14*
X103677Y429223D03*
X101137Y429223D03*
D34*
X93949Y429223D03*
D12*
X314497Y430070D03*
X308579Y430070D03*
D11*
X306458Y430070D03*
D13*
X303918Y430070D03*
D10*
X297987Y430070D03*
X280207Y430070D03*
D30*
X269628Y430070D03*
D11*
X263278Y430070D03*
X230258Y430070D03*
D13*
X224340Y430070D03*
D23*
X219679Y430070D03*
D30*
X213748Y430070D03*
D10*
X196387Y430070D03*
D11*
X187078Y430070D03*
D10*
X185389Y430070D03*
D12*
X179039Y430070D03*
D10*
X145587Y430070D03*
D30*
X140088Y430070D03*
D10*
X137129Y430070D03*
D30*
X135008Y430070D03*
D11*
X128658Y430070D03*
D10*
X111729Y430070D03*
D12*
X101137Y430070D03*
D30*
X94368Y430070D03*
D12*
X314497Y430916D03*
X309417Y430916D03*
X304337Y430916D03*
D10*
X297987Y430916D03*
D12*
X280639Y430916D03*
X268777Y430916D03*
X262859Y430916D03*
X229839Y430916D03*
D11*
X225178Y430916D03*
D10*
X220949Y430916D03*
X219247Y430916D03*
X213329Y430916D03*
D30*
X195968Y430916D03*
D12*
X184119Y430916D03*
X179039Y430916D03*
D13*
X145600Y430916D03*
D10*
X140507Y430916D03*
D30*
X135008Y430916D03*
D11*
X128658Y430916D03*
D30*
X112148Y430916D03*
D10*
X99867Y430916D03*
X94787Y430916D03*
D34*
X314929Y431763D03*
X309849Y431763D03*
D16*
X303918Y431763D03*
D34*
X297987Y431763D03*
D20*
X281058Y431763D03*
D34*
X269209Y431763D03*
D14*
X263697Y431763D03*
D20*
X230258Y431763D03*
X225178Y431763D03*
X220098Y431763D03*
D34*
X218409Y431763D03*
X213329Y431763D03*
X196387Y431763D03*
D20*
X184538Y431763D03*
D34*
X178607Y431763D03*
X145587Y431763D03*
D14*
X140939Y431763D03*
D34*
X135427Y431763D03*
X130347Y431763D03*
D20*
X128658Y431763D03*
D34*
X111729Y431763D03*
D22*
X99448Y431763D03*
X94368Y431763D03*
D11*
X314078Y432610D03*
D30*
X310268Y432610D03*
D10*
X303067Y432610D03*
X297987Y432610D03*
D11*
X281058Y432610D03*
D12*
X268777Y432610D03*
D11*
X263278Y432610D03*
X230258Y432610D03*
D13*
X226016Y432610D03*
D30*
X218828Y432610D03*
D10*
X213329Y432610D03*
X196387Y432610D03*
X183687Y432610D03*
D12*
X179039Y432610D03*
D10*
X145587Y432610D03*
D11*
X141358Y432610D03*
D12*
X134157Y432610D03*
D11*
X128658Y432610D03*
D10*
X111729Y432610D03*
X99867Y432610D03*
X93949Y432610D03*
D12*
X314497Y433456D03*
D10*
X309849Y433456D03*
X303067Y433456D03*
D30*
X297568Y433456D03*
D10*
X280207Y433456D03*
D11*
X268358Y433456D03*
X263278Y433456D03*
D12*
X229839Y433456D03*
D11*
X225178Y433456D03*
D10*
X218409Y433456D03*
X213329Y433456D03*
X196387Y433456D03*
D12*
X184119Y433456D03*
D10*
X178607Y433456D03*
D12*
X146019Y433456D03*
D10*
X140507Y433456D03*
D11*
X133738Y433456D03*
X128658Y433456D03*
D10*
X111729Y433456D03*
X99867Y433456D03*
D30*
X94368Y433456D03*
D34*
X314929Y434303D03*
X309849Y434303D03*
X297987Y434303D03*
D14*
X280639Y434303D03*
X268777Y434303D03*
X262859Y434303D03*
D20*
X230258Y434303D03*
X225178Y434303D03*
D34*
X218409Y434303D03*
X213329Y434303D03*
D22*
X195968Y434303D03*
D14*
X184119Y434303D03*
X179039Y434303D03*
D34*
X145587Y434303D03*
D14*
X140939Y434303D03*
D20*
X133738Y434303D03*
X128658Y434303D03*
D34*
X111729Y434303D03*
X99867Y434303D03*
D22*
X94368Y434303D03*
D12*
X314497Y435150D03*
D30*
X310268Y435150D03*
D10*
X302229Y435150D03*
X297987Y435150D03*
D11*
X281058Y435150D03*
X268358Y435150D03*
D12*
X263697Y435150D03*
D11*
X230258Y435150D03*
D12*
X225597Y435150D03*
D11*
X217558Y435150D03*
D10*
X213329Y435150D03*
X196387Y435150D03*
D11*
X184538Y435150D03*
D10*
X178607Y435150D03*
X145587Y435150D03*
X140507Y435150D03*
X132887Y435150D03*
D11*
X128658Y435150D03*
D10*
X111729Y435150D03*
D30*
X99448Y435150D03*
D10*
X94787Y435150D03*
X314929Y435996D03*
X309849Y435996D03*
X297987Y435996D03*
D11*
X281058Y435996D03*
D12*
X268777Y435996D03*
D11*
X263278Y435996D03*
D12*
X229839Y435996D03*
D11*
X225178Y435996D03*
D10*
X213329Y435996D03*
X196387Y435996D03*
D12*
X184119Y435996D03*
X179039Y435996D03*
X146019Y435996D03*
X140939Y435996D03*
D11*
X128658Y435996D03*
D30*
X112148Y435996D03*
D10*
X99867Y435996D03*
X93949Y435996D03*
D14*
X314497Y436843D03*
D34*
X309849Y436843D03*
D22*
X297568Y436843D03*
D20*
X281058Y436843D03*
D14*
X268777Y436843D03*
D20*
X263278Y436843D03*
D14*
X230677Y436843D03*
D20*
X225178Y436843D03*
D34*
X213329Y436843D03*
X196387Y436843D03*
D20*
X184538Y436843D03*
D34*
X178607Y436843D03*
X145587Y436843D03*
D14*
X140939Y436843D03*
D20*
X128658Y436843D03*
D34*
X111729Y436843D03*
D14*
X100299Y436843D03*
D22*
X94368Y436843D03*
D10*
X314929Y437690D03*
D12*
X309417Y437690D03*
D10*
X297987Y437690D03*
D12*
X280639Y437690D03*
D30*
X269628Y437690D03*
D12*
X262859Y437690D03*
D11*
X230258Y437690D03*
D12*
X224759Y437690D03*
D10*
X213329Y437690D03*
X196387Y437690D03*
D12*
X184957Y437690D03*
X179039Y437690D03*
D10*
X145587Y437690D03*
X140507Y437690D03*
D11*
X128658Y437690D03*
D10*
X111729Y437690D03*
D11*
X100718Y437690D03*
D30*
X94368Y437690D03*
D12*
X314497Y438536D03*
D13*
X308160Y438536D03*
D10*
X297987Y438536D03*
D11*
X281058Y438536D03*
D13*
X270060Y438536D03*
D12*
X263697Y438536D03*
D10*
X231109Y438536D03*
D13*
X224340Y438536D03*
D10*
X213329Y438536D03*
X196387Y438536D03*
D30*
X185808Y438536D03*
D10*
X178607Y438536D03*
D12*
X146019Y438536D03*
X139237Y438536D03*
D11*
X128658Y438536D03*
D10*
X111729Y438536D03*
D12*
X101137Y438536D03*
D10*
X94787Y438536D03*
D34*
X314929Y439383D03*
D17*
X303067Y439383D03*
D63*
X275978Y439383D03*
D20*
X263278Y439383D03*
D14*
X229839Y439383D03*
D17*
X218409Y439383D03*
X191307Y439383D03*
D14*
X179039Y439383D03*
D22*
X145168Y439383D03*
D64*
X134157Y439383D03*
D17*
X106649Y439383D03*
D22*
X94368Y439383D03*
D12*
X314497Y440230D03*
D10*
X302229Y440230D03*
X300527Y440230D03*
D11*
X298838Y440230D03*
D12*
X296717Y440230D03*
D10*
X292907Y440230D03*
X289529Y440230D03*
X287827Y440230D03*
X285287Y440230D03*
D13*
X281058Y440230D03*
D10*
X277667Y440230D03*
D11*
X275978Y440230D03*
D10*
X272587Y440230D03*
D11*
X263278Y440230D03*
X230258Y440230D03*
D10*
X220949Y440230D03*
X218409Y440230D03*
X215869Y440230D03*
X214167Y440230D03*
D12*
X212059Y440230D03*
D10*
X208249Y440230D03*
X206547Y440230D03*
D11*
X204858Y440230D03*
D10*
X201467Y440230D03*
D12*
X196819Y440230D03*
D11*
X194698Y440230D03*
D10*
X193009Y440230D03*
X190469Y440230D03*
X188767Y440230D03*
X178607Y440230D03*
D12*
X146019Y440230D03*
D11*
X136278Y440230D03*
D10*
X134589Y440230D03*
X132887Y440230D03*
D11*
X131198Y440230D03*
D23*
X128239Y440230D03*
D10*
X124429Y440230D03*
X121889Y440230D03*
X119349Y440230D03*
X117647Y440230D03*
D11*
X115958Y440230D03*
D30*
X112148Y440230D03*
D10*
X110027Y440230D03*
D11*
X108338Y440230D03*
D10*
X106649Y440230D03*
X93949Y440230D03*
X314929Y441076D03*
D61*
X289529Y441076D03*
D12*
X262859Y441076D03*
X229839Y441076D03*
D62*
X204858Y441076D03*
D10*
X178607Y441076D03*
X145587Y441076D03*
D65*
X119768Y441076D03*
D10*
X93949Y441076D03*
D14*
X314497Y441923D03*
D22*
X295028Y441923D03*
D34*
X290367Y441923D03*
D20*
X283598Y441923D03*
D14*
X263697Y441923D03*
D20*
X230258Y441923D03*
D14*
X210357Y441923D03*
D34*
X198927Y441923D03*
D14*
X179039Y441923D03*
D34*
X145587Y441923D03*
D14*
X126537Y441923D03*
D34*
X114269Y441923D03*
D22*
X94368Y441923D03*
D10*
X314929Y442770D03*
X295447Y442770D03*
D12*
X283179Y442770D03*
D11*
X263278Y442770D03*
X230258Y442770D03*
D10*
X210789Y442770D03*
D30*
X198508Y442770D03*
D10*
X178607Y442770D03*
D12*
X146019Y442770D03*
D11*
X126118Y442770D03*
D10*
X114269Y442770D03*
X93949Y442770D03*
D12*
X314497Y443616D03*
D10*
X300527Y443616D03*
X295447Y443616D03*
D11*
X293758Y443616D03*
X291218Y443616D03*
X288678Y443616D03*
D10*
X286989Y443616D03*
X285287Y443616D03*
D12*
X283179Y443616D03*
D10*
X280207Y443616D03*
D11*
X263278Y443616D03*
X230258Y443616D03*
D10*
X215869Y443616D03*
D30*
X211208Y443616D03*
D10*
X208249Y443616D03*
X206547Y443616D03*
D11*
X204858Y443616D03*
D10*
X203169Y443616D03*
D30*
X201048Y443616D03*
X198508Y443616D03*
D12*
X179039Y443616D03*
D10*
X145587Y443616D03*
D11*
X131198Y443616D03*
D12*
X126537Y443616D03*
D10*
X124429Y443616D03*
X122727Y443616D03*
D11*
X121038Y443616D03*
D10*
X119349Y443616D03*
X117647Y443616D03*
D11*
X115958Y443616D03*
D12*
X113837Y443616D03*
D10*
X111729Y443616D03*
D30*
X94368Y443616D03*
D34*
X314929Y444463D03*
D66*
X289097Y444463D03*
D14*
X262859Y444463D03*
X229839Y444463D03*
D67*
X204858Y444463D03*
D34*
X178607Y444463D03*
D14*
X146019Y444463D03*
D66*
X120619Y444463D03*
D22*
X94368Y444463D03*
D12*
X314497Y445310D03*
D13*
X303080Y445310D03*
D10*
X276829Y445310D03*
D30*
X274708Y445310D03*
D11*
X263278Y445310D03*
X230258Y445310D03*
D13*
X218396Y445310D03*
D11*
X194698Y445310D03*
D24*
X190888Y445310D03*
D12*
X179039Y445310D03*
D10*
X145587Y445310D03*
D12*
X134157Y445310D03*
D11*
X108338Y445310D03*
D12*
X106217Y445310D03*
D10*
X93949Y445310D03*
X314929Y446156D03*
D12*
X304337Y446156D03*
D13*
X274276Y446156D03*
D12*
X263697Y446156D03*
D11*
X230258Y446156D03*
D12*
X219679Y446156D03*
X190037Y446156D03*
D10*
X178607Y446156D03*
X145587Y446156D03*
D30*
X135008Y446156D03*
D13*
X104960Y446156D03*
D10*
X94787Y446156D03*
D14*
X314497Y447003D03*
D22*
X305188Y447003D03*
D14*
X289097Y447003D03*
X273019Y447003D03*
D20*
X263278Y447003D03*
D14*
X229839Y447003D03*
X220517Y447003D03*
D20*
X204858Y447003D03*
D22*
X188348Y447003D03*
D14*
X179039Y447003D03*
D22*
X145168Y447003D03*
D14*
X135859Y447003D03*
D34*
X119349Y447003D03*
X104109Y447003D03*
D22*
X94368Y447003D03*
D12*
X314497Y447850D03*
D10*
X305607Y447850D03*
D13*
X289516Y447850D03*
D10*
X272587Y447850D03*
D11*
X263278Y447850D03*
X230258Y447850D03*
D30*
X221368Y447850D03*
D23*
X204439Y447850D03*
D10*
X187929Y447850D03*
X178607Y447850D03*
D12*
X146019Y447850D03*
D10*
X137129Y447850D03*
D13*
X120200Y447850D03*
D12*
X103677Y447850D03*
D30*
X94368Y447850D03*
D10*
X314929Y448696D03*
D12*
X306039Y448696D03*
X290799Y448696D03*
D30*
X287408Y448696D03*
X272168Y448696D03*
D12*
X262859Y448696D03*
D11*
X230258Y448696D03*
D10*
X221787Y448696D03*
D30*
X206128Y448696D03*
D10*
X203169Y448696D03*
D12*
X187497Y448696D03*
D10*
X178607Y448696D03*
X145587Y448696D03*
D12*
X136697Y448696D03*
X121457Y448696D03*
X118917Y448696D03*
X102839Y448696D03*
D10*
X94787Y448696D03*
D34*
X314929Y449543D03*
D20*
X306458Y449543D03*
D14*
X291637Y449543D03*
D22*
X287408Y449543D03*
D34*
X271749Y449543D03*
X264129Y449543D03*
D16*
X230258Y449543D03*
D14*
X222219Y449543D03*
X206979Y449543D03*
X202737Y449543D03*
X187497Y449543D03*
X179039Y449543D03*
X146019Y449543D03*
D34*
X137967Y449543D03*
D22*
X122308Y449543D03*
D16*
X117660Y449543D03*
D20*
X103258Y449543D03*
D34*
X93949Y449543D03*
D12*
X314497Y450390D03*
D11*
X306458Y450390D03*
D30*
X292488Y450390D03*
D12*
X285719Y450390D03*
D10*
X271749Y450390D03*
D12*
X262859Y450390D03*
D11*
X230258Y450390D03*
D10*
X221787Y450390D03*
D12*
X207817Y450390D03*
D10*
X201467Y450390D03*
D11*
X187078Y450390D03*
D10*
X178607Y450390D03*
X145587Y450390D03*
X137129Y450390D03*
D12*
X123159Y450390D03*
D10*
X116809Y450390D03*
X102407Y450390D03*
D30*
X94368Y450390D03*
D10*
X314929Y451236D03*
D11*
X306458Y451236D03*
D12*
X293339Y451236D03*
D30*
X284868Y451236D03*
D12*
X271317Y451236D03*
D11*
X263278Y451236D03*
X230258Y451236D03*
D10*
X221787Y451236D03*
D30*
X208668Y451236D03*
D13*
X200616Y451236D03*
D11*
X187078Y451236D03*
D12*
X179039Y451236D03*
D10*
X145587Y451236D03*
X137129Y451236D03*
D12*
X123997Y451236D03*
X116377Y451236D03*
D10*
X102407Y451236D03*
D30*
X94368Y451236D03*
D14*
X314497Y452083D03*
X306877Y452083D03*
X294177Y452083D03*
D34*
X284449Y452083D03*
D22*
X272168Y452083D03*
D14*
X263697Y452083D03*
X229839Y452083D03*
D34*
X221787Y452083D03*
D14*
X209519Y452083D03*
D20*
X199778Y452083D03*
D14*
X187497Y452083D03*
D34*
X178607Y452083D03*
D14*
X146019Y452083D03*
D34*
X137129Y452083D03*
D22*
X124848Y452083D03*
D14*
X115539Y452083D03*
X102839Y452083D03*
D34*
X94787Y452083D03*
D10*
X314929Y452930D03*
D11*
X306458Y452930D03*
X293758Y452930D03*
X283598Y452930D03*
D10*
X271749Y452930D03*
D11*
X263278Y452930D03*
X230258Y452930D03*
D12*
X222219Y452930D03*
D11*
X199778Y452930D03*
X187078Y452930D03*
D12*
X179039Y452930D03*
D10*
X145587Y452930D03*
D30*
X137548Y452930D03*
D10*
X125267Y452930D03*
X115107Y452930D03*
X102407Y452930D03*
X93949Y452930D03*
X314929Y453776D03*
D11*
X306458Y453776D03*
D10*
X300527Y453776D03*
D12*
X298419Y453776D03*
X278937Y453776D03*
D10*
X271749Y453776D03*
D12*
X262859Y453776D03*
D11*
X230258Y453776D03*
D10*
X221787Y453776D03*
X214167Y453776D03*
X195549Y453776D03*
X193847Y453776D03*
D12*
X187497Y453776D03*
D10*
X178607Y453776D03*
X145587Y453776D03*
X137967Y453776D03*
D11*
X131198Y453776D03*
D10*
X129509Y453776D03*
D11*
X110878Y453776D03*
D10*
X109189Y453776D03*
X102407Y453776D03*
D30*
X94368Y453776D03*
D14*
X314497Y454623D03*
D20*
X306458Y454623D03*
D36*
X300527Y454623D03*
D14*
X296717Y454623D03*
D19*
X278937Y454623D03*
D34*
X271749Y454623D03*
D20*
X263278Y454623D03*
D14*
X229839Y454623D03*
D34*
X221787Y454623D03*
D44*
X215018Y454623D03*
X194698Y454623D03*
D20*
X187078Y454623D03*
D14*
X179039Y454623D03*
D34*
X145587Y454623D03*
D22*
X137548Y454623D03*
D68*
X129928Y454623D03*
D69*
X110027Y454623D03*
D14*
X102839Y454623D03*
D34*
X93949Y454623D03*
D10*
X314929Y455470D03*
D12*
X306877Y455470D03*
D13*
X302216Y455470D03*
D10*
X297987Y455470D03*
D12*
X295879Y455470D03*
X283179Y455470D03*
X275559Y455470D03*
X271317Y455470D03*
X263697Y455470D03*
X230677Y455470D03*
X222219Y455470D03*
X217977Y455470D03*
D24*
X211208Y455470D03*
D13*
X198076Y455470D03*
D12*
X191739Y455470D03*
D11*
X187078Y455470D03*
D10*
X178607Y455470D03*
D13*
X145600Y455470D03*
D10*
X137129Y455470D03*
D13*
X133738Y455470D03*
X126956Y455470D03*
X113418Y455470D03*
D30*
X107068Y455470D03*
D10*
X102407Y455470D03*
D30*
X94368Y455470D03*
D12*
X314497Y456316D03*
D11*
X306458Y456316D03*
D10*
X303067Y456316D03*
D13*
X294596Y456316D03*
X284436Y456316D03*
D10*
X281909Y456316D03*
X275127Y456316D03*
X271749Y456316D03*
D11*
X263278Y456316D03*
X230258Y456316D03*
D10*
X221787Y456316D03*
X218409Y456316D03*
D23*
X209519Y456316D03*
D13*
X199778Y456316D03*
D30*
X190888Y456316D03*
D12*
X187497Y456316D03*
X179039Y456316D03*
D10*
X145587Y456316D03*
D30*
X137548Y456316D03*
D11*
X133738Y456316D03*
D13*
X125280Y456316D03*
D30*
X114688Y456316D03*
D12*
X106217Y456316D03*
X102839Y456316D03*
D10*
X94787Y456316D03*
D34*
X314929Y457163D03*
D20*
X306458Y457163D03*
D34*
X303067Y457163D03*
D16*
X292056Y457163D03*
X285300Y457163D03*
D34*
X275127Y457163D03*
X271749Y457163D03*
D20*
X263278Y457163D03*
D14*
X229839Y457163D03*
D34*
X221787Y457163D03*
D22*
X218828Y457163D03*
D34*
X208249Y457163D03*
X206547Y457163D03*
D16*
X201480Y457163D03*
D34*
X190469Y457163D03*
D20*
X187078Y457163D03*
D34*
X178607Y457163D03*
D14*
X146019Y457163D03*
D34*
X137129Y457163D03*
D14*
X134157Y457163D03*
X123159Y457163D03*
D16*
X115958Y457163D03*
D20*
X105798Y457163D03*
D34*
X102407Y457163D03*
D22*
X94368Y457163D03*
D12*
X314497Y458010D03*
D11*
X306458Y458010D03*
D12*
X303499Y458010D03*
X291637Y458010D03*
D10*
X289529Y458010D03*
D13*
X286976Y458010D03*
D30*
X274708Y458010D03*
D10*
X271749Y458010D03*
D12*
X262859Y458010D03*
D11*
X230258Y458010D03*
D12*
X222219Y458010D03*
D10*
X219247Y458010D03*
D13*
X206560Y458010D03*
D30*
X203588Y458010D03*
D10*
X201467Y458010D03*
X190469Y458010D03*
D11*
X187078Y458010D03*
D12*
X179039Y458010D03*
D10*
X145587Y458010D03*
D30*
X137548Y458010D03*
D10*
X134589Y458010D03*
D23*
X121457Y458010D03*
D13*
X117660Y458010D03*
D12*
X105379Y458010D03*
D10*
X102407Y458010D03*
X94787Y458010D03*
X314929Y458856D03*
D12*
X306877Y458856D03*
D11*
X303918Y458856D03*
D23*
X289097Y458856D03*
D10*
X275127Y458856D03*
D13*
X271736Y458856D03*
D12*
X263697Y458856D03*
D11*
X230258Y458856D03*
D10*
X221787Y458856D03*
D30*
X218828Y458856D03*
D13*
X204858Y458856D03*
D11*
X202318Y458856D03*
D12*
X190037Y458856D03*
X187497Y458856D03*
D10*
X178607Y458856D03*
X145587Y458856D03*
X137967Y458856D03*
X134589Y458856D03*
D24*
X119768Y458856D03*
D11*
X105798Y458856D03*
D12*
X102839Y458856D03*
D30*
X94368Y458856D03*
D34*
X314929Y459703D03*
D20*
X306458Y459703D03*
D14*
X303499Y459703D03*
D22*
X274708Y459703D03*
D34*
X271749Y459703D03*
D20*
X263278Y459703D03*
D14*
X229839Y459703D03*
X222219Y459703D03*
D34*
X219247Y459703D03*
X204007Y459703D03*
X190469Y459703D03*
D20*
X187078Y459703D03*
D14*
X179039Y459703D03*
X146019Y459703D03*
D20*
X138818Y459703D03*
D34*
X137129Y459703D03*
X134589Y459703D03*
D20*
X105798Y459703D03*
D34*
X102407Y459703D03*
X93949Y459703D03*
D12*
X314497Y460550D03*
D11*
X306458Y460550D03*
X303918Y460550D03*
D10*
X274289Y460550D03*
X271749Y460550D03*
D11*
X263278Y460550D03*
X230258Y460550D03*
D10*
X221787Y460550D03*
X219247Y460550D03*
D12*
X190037Y460550D03*
D11*
X187078Y460550D03*
D10*
X178607Y460550D03*
X145587Y460550D03*
X137129Y460550D03*
X134589Y460550D03*
X104947Y460550D03*
D12*
X102839Y460550D03*
D30*
X94368Y460550D03*
D10*
X314929Y461396D03*
D12*
X306877Y461396D03*
D11*
X303918Y461396D03*
D12*
X273857Y461396D03*
D10*
X271749Y461396D03*
D12*
X262859Y461396D03*
D11*
X230258Y461396D03*
D10*
X221787Y461396D03*
X219247Y461396D03*
D11*
X189618Y461396D03*
D12*
X186659Y461396D03*
X179039Y461396D03*
X146019Y461396D03*
D10*
X137967Y461396D03*
D30*
X135008Y461396D03*
D10*
X104947Y461396D03*
X102407Y461396D03*
X94787Y461396D03*
D14*
X314497Y462243D03*
D20*
X306458Y462243D03*
D14*
X304337Y462243D03*
D34*
X274289Y462243D03*
X271749Y462243D03*
D14*
X263697Y462243D03*
X229839Y462243D03*
D34*
X221787Y462243D03*
X219247Y462243D03*
D14*
X190037Y462243D03*
D20*
X187078Y462243D03*
D34*
X178607Y462243D03*
X145587Y462243D03*
X137129Y462243D03*
X134589Y462243D03*
D14*
X105379Y462243D03*
X102839Y462243D03*
D22*
X94368Y462243D03*
D10*
X314929Y463090D03*
D11*
X306458Y463090D03*
D13*
X303080Y463090D03*
D12*
X289097Y463090D03*
D13*
X275140Y463090D03*
D12*
X271317Y463090D03*
D11*
X263278Y463090D03*
X230258Y463090D03*
D12*
X222219Y463090D03*
D13*
X219260Y463090D03*
D11*
X204858Y463090D03*
D13*
X190456Y463090D03*
D12*
X187497Y463090D03*
X179039Y463090D03*
X146019Y463090D03*
D30*
X137548Y463090D03*
D23*
X134157Y463090D03*
D10*
X120187Y463090D03*
D13*
X105798Y463090D03*
D10*
X102407Y463090D03*
X93949Y463090D03*
X314929Y463936D03*
D12*
X306877Y463936D03*
D11*
X303918Y463936D03*
D12*
X301797Y463936D03*
X289097Y463936D03*
D11*
X275978Y463936D03*
D12*
X273857Y463936D03*
D10*
X271749Y463936D03*
D11*
X263278Y463936D03*
X230258Y463936D03*
D10*
X221787Y463936D03*
D11*
X220098Y463936D03*
D12*
X217139Y463936D03*
D13*
X204858Y463936D03*
D12*
X191739Y463936D03*
D11*
X189618Y463936D03*
X187078Y463936D03*
D10*
X178607Y463936D03*
X145587Y463936D03*
X137129Y463936D03*
X135427Y463936D03*
X132887Y463936D03*
D13*
X120200Y463936D03*
D30*
X107068Y463936D03*
D10*
X104947Y463936D03*
X102407Y463936D03*
D30*
X94368Y463936D03*
D14*
X314497Y464783D03*
D20*
X306458Y464783D03*
D14*
X301797Y464783D03*
D34*
X297987Y464783D03*
D16*
X290380Y464783D03*
D22*
X287408Y464783D03*
D20*
X281058Y464783D03*
D14*
X276397Y464783D03*
D34*
X274289Y464783D03*
X271749Y464783D03*
D14*
X262859Y464783D03*
X229839Y464783D03*
D34*
X221787Y464783D03*
D14*
X217139Y464783D03*
D20*
X212478Y464783D03*
D34*
X210789Y464783D03*
D22*
X206128Y464783D03*
D16*
X203156Y464783D03*
D14*
X192577Y464783D03*
D20*
X187078Y464783D03*
D14*
X179039Y464783D03*
D34*
X145587Y464783D03*
X137129Y464783D03*
D22*
X132468Y464783D03*
D34*
X129509Y464783D03*
D14*
X121457Y464783D03*
D16*
X118498Y464783D03*
D34*
X107487Y464783D03*
D14*
X102839Y464783D03*
D34*
X94787Y464783D03*
D10*
X314929Y465630D03*
D11*
X306458Y465630D03*
D48*
X296298Y465630D03*
D28*
X284868Y465630D03*
X278950Y465630D03*
D10*
X271749Y465630D03*
D12*
X263697Y465630D03*
D11*
X230258Y465630D03*
D10*
X221787Y465630D03*
D60*
X212059Y465630D03*
D48*
X197238Y465630D03*
D11*
X187078Y465630D03*
D10*
X178607Y465630D03*
X145587Y465630D03*
D30*
X137548Y465630D03*
D26*
X127388Y465630D03*
D11*
X118498Y465630D03*
D29*
X112148Y465630D03*
D10*
X102407Y465630D03*
X93949Y465630D03*
X314929Y466476D03*
D13*
X307296Y466476D03*
D10*
X292907Y466476D03*
D11*
X286138Y466476D03*
X283598Y466476D03*
D10*
X281909Y466476D03*
X279369Y466476D03*
X271749Y466476D03*
D30*
X269628Y466476D03*
D11*
X263278Y466476D03*
X230258Y466476D03*
D13*
X222638Y466476D03*
D11*
X215018Y466476D03*
D10*
X208249Y466476D03*
D11*
X197238Y466476D03*
X194698Y466476D03*
D12*
X187497Y466476D03*
D10*
X185389Y466476D03*
D12*
X179039Y466476D03*
X146019Y466476D03*
X139237Y466476D03*
D10*
X137129Y466476D03*
X126969Y466476D03*
X124429Y466476D03*
X117647Y466476D03*
X114269Y466476D03*
X112567Y466476D03*
X109189Y466476D03*
D11*
X103258Y466476D03*
D12*
X101137Y466476D03*
D30*
X94368Y466476D03*
D14*
X314497Y467323D03*
D16*
X308998Y467323D03*
D20*
X306458Y467323D03*
D34*
X271749Y467323D03*
D22*
X269628Y467323D03*
D20*
X263278Y467323D03*
X230258Y467323D03*
D22*
X223908Y467323D03*
D34*
X221787Y467323D03*
D20*
X187078Y467323D03*
D14*
X184957Y467323D03*
D34*
X178607Y467323D03*
X145587Y467323D03*
D22*
X140088Y467323D03*
X137548Y467323D03*
D34*
X102407Y467323D03*
D22*
X99448Y467323D03*
X94368Y467323D03*
D11*
X314078Y468170D03*
D30*
X310268Y468170D03*
D11*
X306458Y468170D03*
D10*
X271749Y468170D03*
D12*
X267939Y468170D03*
X262859Y468170D03*
X229839Y468170D03*
D13*
X225178Y468170D03*
D10*
X221787Y468170D03*
D12*
X187497Y468170D03*
D30*
X183268Y468170D03*
D10*
X178607Y468170D03*
D12*
X146019Y468170D03*
X140939Y468170D03*
D10*
X137129Y468170D03*
D12*
X102839Y468170D03*
D30*
X99448Y468170D03*
D10*
X94787Y468170D03*
X314929Y469016D03*
D30*
X310268Y469016D03*
D12*
X306039Y469016D03*
D30*
X272168Y469016D03*
X267088Y469016D03*
D11*
X263278Y469016D03*
D12*
X230677Y469016D03*
D30*
X226448Y469016D03*
X221368Y469016D03*
D10*
X187929Y469016D03*
D30*
X183268Y469016D03*
D12*
X179039Y469016D03*
D10*
X145587Y469016D03*
D12*
X141777Y469016D03*
X136697Y469016D03*
D11*
X103258Y469016D03*
D12*
X98597Y469016D03*
D10*
X93949Y469016D03*
D14*
X314497Y469863D03*
D20*
X311538Y469863D03*
D34*
X305607Y469863D03*
D14*
X273019Y469863D03*
D34*
X266669Y469863D03*
D14*
X263697Y469863D03*
D20*
X230258Y469863D03*
D14*
X227299Y469863D03*
X220517Y469863D03*
D22*
X188348Y469863D03*
D14*
X181579Y469863D03*
D34*
X178607Y469863D03*
X145587Y469863D03*
D22*
X142628Y469863D03*
D20*
X136278Y469863D03*
D14*
X103677Y469863D03*
D22*
X96908Y469863D03*
X94368Y469863D03*
D10*
X314929Y470710D03*
D13*
X312376Y470710D03*
D10*
X304769Y470710D03*
D12*
X273857Y470710D03*
D13*
X265818Y470710D03*
D11*
X263278Y470710D03*
X230258Y470710D03*
D12*
X228137Y470710D03*
D11*
X220098Y470710D03*
D12*
X189199Y470710D03*
X181579Y470710D03*
D10*
X178607Y470710D03*
X145587Y470710D03*
D12*
X143479Y470710D03*
X135859Y470710D03*
D30*
X104528Y470710D03*
X96908Y470710D03*
D10*
X93949Y470710D03*
D13*
X314078Y471556D03*
D23*
X303499Y471556D03*
D30*
X274708Y471556D03*
D13*
X264116Y471556D03*
X229420Y471556D03*
D11*
X220098Y471556D03*
D10*
X218409Y471556D03*
D12*
X190037Y471556D03*
D13*
X179458Y471556D03*
X144736Y471556D03*
X134576Y471556D03*
X105798Y471556D03*
D10*
X96489Y471556D03*
D30*
X94368Y471556D03*
D14*
X314497Y472403D03*
D22*
X302648Y472403D03*
X300108Y472403D03*
D43*
X296298Y472403D03*
D22*
X292488Y472403D03*
X289948Y472403D03*
X287408Y472403D03*
X284868Y472403D03*
X282328Y472403D03*
X279788Y472403D03*
X277248Y472403D03*
D34*
X275127Y472403D03*
D14*
X263697Y472403D03*
X229839Y472403D03*
D43*
X217558Y472403D03*
D22*
X213748Y472403D03*
D32*
X208668Y472403D03*
D15*
X204439Y472403D03*
D22*
X201048Y472403D03*
D15*
X197657Y472403D03*
D35*
X192590Y472403D03*
D16*
X179458Y472403D03*
X145600Y472403D03*
D32*
X132468Y472403D03*
D34*
X129509Y472403D03*
D15*
X126537Y472403D03*
D14*
X123159Y472403D03*
X120619Y472403D03*
D20*
X118498Y472403D03*
D14*
X116377Y472403D03*
D34*
X114269Y472403D03*
D22*
X112148Y472403D03*
D34*
X110027Y472403D03*
D16*
X107500Y472403D03*
X94800Y472403D03*
D10*
X314929Y473250D03*
D12*
X300959Y473250D03*
X298419Y473250D03*
D11*
X296298Y473250D03*
D13*
X293758Y473250D03*
D12*
X290799Y473250D03*
X288259Y473250D03*
X285719Y473250D03*
X283179Y473250D03*
X280639Y473250D03*
X278099Y473250D03*
D11*
X275978Y473250D03*
X263278Y473250D03*
X230258Y473250D03*
D10*
X216707Y473250D03*
D12*
X214599Y473250D03*
D24*
X211208Y473250D03*
D10*
X208249Y473250D03*
D30*
X206128Y473250D03*
D10*
X204007Y473250D03*
D12*
X201899Y473250D03*
X199359Y473250D03*
D11*
X197238Y473250D03*
D12*
X195117Y473250D03*
D10*
X193009Y473250D03*
X178607Y473250D03*
X145587Y473250D03*
X132049Y473250D03*
D23*
X129077Y473250D03*
D11*
X126118Y473250D03*
D12*
X123997Y473250D03*
X121457Y473250D03*
D13*
X118498Y473250D03*
D12*
X115539Y473250D03*
X112999Y473250D03*
D13*
X110040Y473250D03*
D10*
X107487Y473250D03*
X94787Y473250D03*
D30*
X403389Y110906D03*
D12*
X394918Y110906D03*
D13*
X387717Y110906D03*
D31*
X365708Y110906D03*
D13*
X352157Y110906D03*
X347940Y110906D03*
D12*
X340739Y110906D03*
D30*
X332269Y110906D03*
D37*
X318299Y110906D03*
D16*
X402957Y111753D03*
D15*
X394918Y111753D03*
D16*
X387717Y111753D03*
D45*
X365708Y111753D03*
D21*
X350899Y111753D03*
D16*
X340320Y111753D03*
X332700Y111753D03*
D40*
X318299Y111753D03*
D13*
X402957Y112600D03*
X395337Y112600D03*
X387717Y112600D03*
D28*
X368667Y112600D03*
X362749Y112600D03*
D46*
X351319Y112600D03*
D13*
X340320Y112600D03*
D24*
X332269Y112600D03*
D37*
X320839Y112600D03*
X315759Y112600D03*
D13*
X402957Y113446D03*
X395337Y113446D03*
X387717Y113446D03*
D24*
X370369Y113446D03*
D13*
X361479Y113446D03*
D24*
X355129Y113446D03*
D23*
X348359Y113446D03*
X340739Y113446D03*
D30*
X332269Y113446D03*
D13*
X321677Y113446D03*
X314920Y113446D03*
D32*
X403389Y114293D03*
D15*
X394918Y114293D03*
X387298Y114293D03*
X371219Y114293D03*
D16*
X354697Y114293D03*
X347940Y114293D03*
X340320Y114293D03*
D32*
X332269Y114293D03*
D16*
X322540Y114293D03*
D32*
X314489Y114293D03*
D13*
X402957Y115140D03*
X395337Y115140D03*
X387717Y115140D03*
X371639Y115140D03*
D23*
X354278Y115140D03*
D13*
X347940Y115140D03*
X340320Y115140D03*
X332700Y115140D03*
D24*
X322109Y115140D03*
D13*
X314057Y115140D03*
X402957Y115986D03*
X394499Y115986D03*
D23*
X387298Y115986D03*
D13*
X371639Y115986D03*
D70*
X350899Y115986D03*
D13*
X340320Y115986D03*
D24*
X332269Y115986D03*
D13*
X322540Y115986D03*
X314057Y115986D03*
D16*
X402957Y116833D03*
X395337Y116833D03*
X387717Y116833D03*
X371639Y116833D03*
D20*
X353859Y116833D03*
D69*
X349629Y116833D03*
D16*
X340320Y116833D03*
X332700Y116833D03*
X322540Y116833D03*
D32*
X314489Y116833D03*
D24*
X403389Y117680D03*
D23*
X394918Y117680D03*
D24*
X388149Y117680D03*
D23*
X372058Y117680D03*
D13*
X347940Y117680D03*
X340320Y117680D03*
X331837Y117680D03*
D24*
X322109Y117680D03*
D13*
X314057Y117680D03*
X402957Y118526D03*
X394499Y118526D03*
X387717Y118526D03*
X371639Y118526D03*
X347940Y118526D03*
X340320Y118526D03*
D31*
X331849Y118526D03*
D13*
X321677Y118526D03*
D24*
X314489Y118526D03*
D32*
X403389Y119373D03*
D35*
X394067Y119373D03*
D36*
X388568Y119373D03*
D15*
X372058Y119373D03*
X354278Y119373D03*
D20*
X351319Y119373D03*
D16*
X348779Y119373D03*
X340320Y119373D03*
D44*
X330999Y119373D03*
D43*
X320839Y119373D03*
X315759Y119373D03*
D13*
X402957Y120220D03*
D46*
X391959Y120220D03*
D13*
X371639Y120220D03*
D70*
X351738Y120220D03*
D13*
X340320Y120220D03*
D39*
X330160Y120220D03*
X318299Y120220D03*
D24*
X403389Y121066D03*
D13*
X395337Y121066D03*
D31*
X390269Y121066D03*
D13*
X371639Y121066D03*
D71*
X351319Y121066D03*
D13*
X340320Y121066D03*
D30*
X332269Y121066D03*
D23*
X328039Y121066D03*
D11*
X320839Y121066D03*
D23*
X317879Y121066D03*
D16*
X402957Y121913D03*
D15*
X371219Y121913D03*
D24*
X403389Y122760D03*
X370369Y122760D03*
D13*
X361479Y122760D03*
X402957Y123606D03*
D28*
X368667Y123606D03*
X362749Y123606D03*
D13*
X340320Y123606D03*
D32*
X403389Y124453D03*
D41*
X366127Y124453D03*
D15*
X340739Y124453D03*
D30*
X403389Y125300D03*
D38*
X365708Y125300D03*
D13*
X340320Y125300D03*
D71*
X422439Y133766D03*
D21*
X422019Y134613D03*
D23*
X425398Y135460D03*
D11*
X422439Y135460D03*
D31*
X419048Y135460D03*
D10*
X425829Y136306D03*
D13*
X418197Y136306D03*
D15*
X417778Y137153D03*
D70*
X475359Y138000D03*
D31*
X456309Y138000D03*
D38*
X443609Y138000D03*
D13*
X433437Y138000D03*
D37*
X422439Y138000D03*
D12*
X417778Y138000D03*
D13*
X409739Y138000D03*
D12*
X402538Y138000D03*
D28*
X391527Y138000D03*
D31*
X377569Y138000D03*
D30*
X372909Y138000D03*
X352589Y138000D03*
X342429Y138000D03*
X329729Y138000D03*
D23*
X318718Y138000D03*
D13*
X311517Y138000D03*
D30*
X304329Y138000D03*
D27*
X283589Y138000D03*
D11*
X272579Y138000D03*
D23*
X269619Y138000D03*
D13*
X255637Y138000D03*
D37*
X242099Y138000D03*
D29*
X475347Y138846D03*
D39*
X456297Y138846D03*
D72*
X444029Y138846D03*
D13*
X433437Y138846D03*
D71*
X422439Y138846D03*
D13*
X417359Y138846D03*
X409739Y138846D03*
D23*
X402538Y138846D03*
D72*
X390689Y138846D03*
D28*
X377989Y138846D03*
D24*
X372909Y138846D03*
D13*
X353020Y138846D03*
D24*
X342429Y138846D03*
D13*
X330160Y138846D03*
D28*
X319569Y138846D03*
D13*
X311517Y138846D03*
D24*
X304329Y138846D03*
D29*
X284009Y138846D03*
D70*
X269619Y138846D03*
D24*
X256069Y138846D03*
D39*
X241260Y138846D03*
D43*
X478319Y139693D03*
D34*
X474928Y139693D03*
D35*
X471130Y139693D03*
D32*
X459269Y139693D03*
D34*
X456309Y139693D03*
D16*
X453757Y139693D03*
D36*
X446149Y139693D03*
D32*
X441489Y139693D03*
D16*
X433437Y139693D03*
D15*
X424559Y139693D03*
D35*
X418629Y139693D03*
D15*
X410158Y139693D03*
D14*
X402538Y139693D03*
D15*
X394079Y139693D03*
D34*
X391108Y139693D03*
D32*
X388149Y139693D03*
D15*
X379678Y139693D03*
D20*
X376719Y139693D03*
D15*
X373759Y139693D03*
D36*
X352169Y139693D03*
X342009Y139693D03*
D32*
X329729Y139693D03*
D36*
X319988Y139693D03*
D16*
X311517Y139693D03*
X303897Y139693D03*
D45*
X284428Y139693D03*
D43*
X272579Y139693D03*
X267499Y139693D03*
D36*
X255649Y139693D03*
D15*
X244219Y139693D03*
D36*
X238708Y139693D03*
D13*
X479157Y140540D03*
D31*
X469848Y140540D03*
D23*
X460119Y140540D03*
D10*
X453769Y140540D03*
D11*
X447839Y140540D03*
D13*
X440219Y140540D03*
D24*
X433869Y140540D03*
D23*
X425398Y140540D03*
X417778Y140540D03*
D13*
X409739Y140540D03*
D23*
X402538Y140540D03*
D13*
X394499Y140540D03*
D10*
X387729Y140540D03*
D24*
X380529Y140540D03*
D31*
X373328Y140540D03*
X353008Y140540D03*
X342009Y140540D03*
D13*
X330160Y140540D03*
X321677Y140540D03*
D24*
X311949Y140540D03*
D30*
X304329Y140540D03*
D23*
X287399Y140540D03*
D13*
X273417Y140540D03*
X266660Y140540D03*
D28*
X256069Y140540D03*
D23*
X245058Y140540D03*
D10*
X238708Y140540D03*
D13*
X479157Y141386D03*
D23*
X468578Y141386D03*
D13*
X460539Y141386D03*
X441057Y141386D03*
X433437Y141386D03*
X425817Y141386D03*
X417359Y141386D03*
X409739Y141386D03*
X402119Y141386D03*
X395337Y141386D03*
D23*
X381379Y141386D03*
D13*
X373340Y141386D03*
D28*
X352589Y141386D03*
X342429Y141386D03*
D24*
X329729Y141386D03*
D23*
X321258Y141386D03*
D13*
X311517Y141386D03*
D24*
X304329Y141386D03*
D13*
X287819Y141386D03*
X274280Y141386D03*
X265797Y141386D03*
X257339Y141386D03*
X253960Y141386D03*
X245477Y141386D03*
D15*
X478738Y142233D03*
X468578Y142233D03*
X460958Y142233D03*
D34*
X444448Y142233D03*
D36*
X441069Y142233D03*
D16*
X433437Y142233D03*
D32*
X426249Y142233D03*
D15*
X417778Y142233D03*
D16*
X409739Y142233D03*
D15*
X402538Y142233D03*
X394918Y142233D03*
D16*
X380960Y142233D03*
D32*
X372909Y142233D03*
D68*
X352589Y142233D03*
D16*
X343699Y142233D03*
X340320Y142233D03*
X330160Y142233D03*
X321677Y142233D03*
X311517Y142233D03*
X303897Y142233D03*
D15*
X287399Y142233D03*
D32*
X273849Y142233D03*
D16*
X265797Y142233D03*
X257339Y142233D03*
X253960Y142233D03*
X245477Y142233D03*
D13*
X479157Y143080D03*
X468159Y143080D03*
D27*
X457148Y143080D03*
D38*
X443609Y143080D03*
D13*
X433437Y143080D03*
X425817Y143080D03*
D23*
X417778Y143080D03*
D13*
X409739Y143080D03*
D12*
X402538Y143080D03*
D29*
X391527Y143080D03*
D12*
X381379Y143080D03*
D13*
X372477Y143080D03*
X354697Y143080D03*
X350480Y143080D03*
X343699Y143080D03*
X340320Y143080D03*
X330160Y143080D03*
D23*
X321258Y143080D03*
D13*
X311517Y143080D03*
D24*
X304329Y143080D03*
D13*
X287819Y143080D03*
X274280Y143080D03*
X265797Y143080D03*
X258177Y143080D03*
X253097Y143080D03*
D46*
X242099Y143080D03*
D23*
X478738Y143926D03*
D13*
X468159Y143926D03*
D25*
X457148Y143926D03*
D71*
X445299Y143926D03*
D24*
X433869Y143926D03*
X426249Y143926D03*
D12*
X417778Y143926D03*
D13*
X409739Y143926D03*
X402119Y143926D03*
D29*
X391527Y143926D03*
D23*
X381379Y143926D03*
D24*
X372909Y143926D03*
D13*
X354697Y143926D03*
X350480Y143926D03*
X344537Y143926D03*
X340320Y143926D03*
X329297Y143926D03*
X321677Y143926D03*
D24*
X311949Y143926D03*
D13*
X303897Y143926D03*
X287819Y143926D03*
X274280Y143926D03*
D24*
X266229Y143926D03*
D13*
X258177Y143926D03*
X253097Y143926D03*
D48*
X242099Y143926D03*
D16*
X479157Y144773D03*
D15*
X467739Y144773D03*
D16*
X460539Y144773D03*
D14*
X453338Y144773D03*
D16*
X446137Y144773D03*
X433437Y144773D03*
X425817Y144773D03*
D15*
X417778Y144773D03*
X410158Y144773D03*
X402538Y144773D03*
D16*
X395337Y144773D03*
X387717Y144773D03*
X380960Y144773D03*
X373340Y144773D03*
X354697Y144773D03*
X350480Y144773D03*
D32*
X344969Y144773D03*
D16*
X339457Y144773D03*
X330160Y144773D03*
X321677Y144773D03*
X311517Y144773D03*
X304760Y144773D03*
D15*
X287399Y144773D03*
D32*
X273849Y144773D03*
D16*
X265797Y144773D03*
D32*
X258609Y144773D03*
D15*
X252678Y144773D03*
D16*
X245477Y144773D03*
D22*
X238289Y144773D03*
D23*
X478738Y145620D03*
D13*
X468159Y145620D03*
X460539Y145620D03*
X453757Y145620D03*
X447000Y145620D03*
X433437Y145620D03*
X425817Y145620D03*
D31*
X418209Y145620D03*
D23*
X409319Y145620D03*
X402538Y145620D03*
D13*
X394499Y145620D03*
X388580Y145620D03*
D24*
X380529Y145620D03*
D31*
X373328Y145620D03*
D13*
X355560Y145620D03*
X349617Y145620D03*
X344537Y145620D03*
X339457Y145620D03*
D24*
X329729Y145620D03*
D23*
X321258Y145620D03*
D13*
X311517Y145620D03*
D24*
X304329Y145620D03*
D13*
X287819Y145620D03*
X273417Y145620D03*
D24*
X266229Y145620D03*
D13*
X259040Y145620D03*
X252259Y145620D03*
D23*
X245058Y145620D03*
D13*
X238720Y145620D03*
X479157Y146466D03*
X468159Y146466D03*
D24*
X459269Y146466D03*
X454189Y146466D03*
D23*
X445718Y146466D03*
X440638Y146466D03*
D13*
X433437Y146466D03*
D31*
X424128Y146466D03*
D28*
X418629Y146466D03*
X408469Y146466D03*
D24*
X403389Y146466D03*
D23*
X394079Y146466D03*
D10*
X391108Y146466D03*
D13*
X388580Y146466D03*
D37*
X379259Y146466D03*
X374179Y146466D03*
D13*
X355560Y146466D03*
X349617Y146466D03*
X345400Y146466D03*
X338619Y146466D03*
X330160Y146466D03*
D31*
X321689Y146466D03*
D11*
X318299Y146466D03*
D28*
X310247Y146466D03*
D23*
X305179Y146466D03*
X287399Y146466D03*
X272998Y146466D03*
D11*
X270039Y146466D03*
D23*
X267079Y146466D03*
X259459Y146466D03*
D13*
X251420Y146466D03*
X244639Y146466D03*
D11*
X242099Y146466D03*
D23*
X239139Y146466D03*
D15*
X478738Y147313D03*
X468578Y147313D03*
D40*
X457160Y147313D03*
X443597Y147313D03*
D16*
X433437Y147313D03*
D19*
X422858Y147313D03*
D16*
X417359Y147313D03*
D45*
X406348Y147313D03*
D19*
X391539Y147313D03*
D68*
X377989Y147313D03*
D16*
X372477Y147313D03*
D15*
X355979Y147313D03*
D14*
X349198Y147313D03*
D15*
X345819Y147313D03*
X339038Y147313D03*
D32*
X329729Y147313D03*
D21*
X321258Y147313D03*
D41*
X308570Y147313D03*
D16*
X287819Y147313D03*
D40*
X270039Y147313D03*
D16*
X259879Y147313D03*
X251420Y147313D03*
D40*
X242099Y147313D03*
D13*
X479157Y148160D03*
X468159Y148160D03*
D31*
X457148Y148160D03*
X443609Y148160D03*
D13*
X433437Y148160D03*
D37*
X422439Y148160D03*
D12*
X417778Y148160D03*
X410158Y148160D03*
D23*
X405078Y148160D03*
D31*
X391108Y148160D03*
D24*
X377989Y148160D03*
X372909Y148160D03*
D13*
X356399Y148160D03*
D28*
X347509Y148160D03*
D13*
X338619Y148160D03*
D30*
X329729Y148160D03*
D39*
X320839Y148160D03*
D13*
X311517Y148160D03*
D24*
X306869Y148160D03*
D23*
X287399Y148160D03*
D28*
X270470Y148160D03*
D12*
X260298Y148160D03*
X251839Y148160D03*
D37*
X242099Y148160D03*
D23*
X478738Y149006D03*
X468578Y149006D03*
D13*
X373340Y149006D03*
X356399Y149006D03*
D28*
X347509Y149006D03*
D13*
X337780Y149006D03*
X321677Y149006D03*
X311517Y149006D03*
X287819Y149006D03*
D16*
X479157Y149853D03*
D32*
X469429Y149853D03*
D16*
X373340Y149853D03*
D15*
X356818Y149853D03*
D35*
X347509Y149853D03*
D16*
X337780Y149853D03*
D15*
X321258Y149853D03*
D16*
X311517Y149853D03*
X287819Y149853D03*
D23*
X478738Y150700D03*
D10*
X474928Y150700D03*
D28*
X471130Y150700D03*
D13*
X433437Y150700D03*
D24*
X372909Y150700D03*
D13*
X357237Y150700D03*
D24*
X347509Y150700D03*
D13*
X337780Y150700D03*
X330160Y150700D03*
X321677Y150700D03*
X311517Y150700D03*
D23*
X287399Y150700D03*
D25*
X474928Y151546D03*
D24*
X433869Y151546D03*
X372909Y151546D03*
X357669Y151546D03*
D13*
X347077Y151546D03*
X336917Y151546D03*
D24*
X329729Y151546D03*
D12*
X321258Y151546D03*
D13*
X311517Y151546D03*
X287819Y151546D03*
D21*
X476198Y152393D03*
D16*
X433437Y152393D03*
D22*
X372909Y152393D03*
X357669Y152393D03*
X347509Y152393D03*
D16*
X336917Y152393D03*
X330160Y152393D03*
X311517Y152393D03*
D14*
X287399Y152393D03*
D28*
X294165Y12704D03*
D72*
X294165Y13550D03*
D14*
X297556Y14397D03*
D20*
X295435Y14397D03*
D34*
X293746Y14397D03*
D16*
X291193Y14397D03*
D13*
X290355Y15244D03*
D12*
X493136Y16090D03*
D30*
X487205Y16090D03*
D12*
X481274Y16090D03*
D24*
X471965Y16090D03*
D12*
X467736Y16090D03*
X460954Y16090D03*
D30*
X454185Y16090D03*
D37*
X445295Y16090D03*
D31*
X434284Y16090D03*
X420746Y16090D03*
D30*
X411005Y16090D03*
D12*
X405074Y16090D03*
D30*
X398305Y16090D03*
D31*
X388564Y16090D03*
D37*
X376715Y16090D03*
D23*
X364434Y16090D03*
X355976Y16090D03*
D12*
X351734Y16090D03*
X344114Y16090D03*
D30*
X334805Y16090D03*
X327185Y16090D03*
D24*
X317025Y16090D03*
D30*
X306865Y16090D03*
D23*
X295016Y16090D03*
D13*
X290355Y16090D03*
D15*
X493136Y16937D03*
D16*
X487637Y16937D03*
X480855Y16937D03*
D40*
X470695Y16937D03*
D16*
X461373Y16937D03*
D15*
X455036Y16937D03*
D40*
X445295Y16937D03*
D68*
X433865Y16937D03*
X421165Y16937D03*
D16*
X411437Y16937D03*
X404655Y16937D03*
X398737Y16937D03*
D40*
X388577Y16937D03*
X376715Y16937D03*
D36*
X364866Y16937D03*
D45*
X354706Y16937D03*
D16*
X343695Y16937D03*
D22*
X334805Y16937D03*
D16*
X326753Y16937D03*
D68*
X317025Y16937D03*
D16*
X306433Y16937D03*
D21*
X293314Y16937D03*
D13*
X493555Y17784D03*
X486773Y17784D03*
X480855Y17784D03*
D23*
X473654Y17784D03*
X468574Y17784D03*
D13*
X461373Y17784D03*
D23*
X455874Y17784D03*
D37*
X447835Y17784D03*
D23*
X443174Y17784D03*
D13*
X436837Y17784D03*
D10*
X433446Y17784D03*
D13*
X430893Y17784D03*
D24*
X423705Y17784D03*
D10*
X420746Y17784D03*
D13*
X418193Y17784D03*
X410573Y17784D03*
X404655Y17784D03*
X398737Y17784D03*
X391117Y17784D03*
D10*
X388564Y17784D03*
D24*
X385605Y17784D03*
D23*
X378836Y17784D03*
X374594Y17784D03*
D31*
X365704Y17784D03*
D13*
X357233Y17784D03*
D24*
X352585Y17784D03*
D13*
X343695Y17784D03*
X335237Y17784D03*
D24*
X327185Y17784D03*
D31*
X319146Y17784D03*
D24*
X314485Y17784D03*
D13*
X307297Y17784D03*
D24*
X296705Y17784D03*
D10*
X293746Y17784D03*
D23*
X290774Y17784D03*
D13*
X493555Y18630D03*
X486773Y18630D03*
X480855Y18630D03*
X474073Y18630D03*
X468155Y18630D03*
X461373Y18630D03*
D24*
X456725Y18630D03*
D13*
X448673Y18630D03*
X430893Y18630D03*
X424137Y18630D03*
X418193Y18630D03*
X411437Y18630D03*
D12*
X405074Y18630D03*
D13*
X398737Y18630D03*
X391955Y18630D03*
D10*
X380106Y18630D03*
D12*
X373756Y18630D03*
D13*
X366555Y18630D03*
X358097Y18630D03*
D23*
X351734Y18630D03*
D13*
X343695Y18630D03*
D24*
X334805Y18630D03*
D30*
X327185Y18630D03*
D13*
X319997Y18630D03*
X314053Y18630D03*
X306433Y18630D03*
X297137Y18630D03*
D23*
X290774Y18630D03*
D16*
X492717Y19477D03*
D22*
X487205Y19477D03*
D15*
X481274Y19477D03*
D16*
X474073Y19477D03*
X468155Y19477D03*
X461373Y19477D03*
D15*
X457576Y19477D03*
D16*
X449537Y19477D03*
X430893Y19477D03*
X424975Y19477D03*
X417355Y19477D03*
X410573Y19477D03*
X404655Y19477D03*
X398737Y19477D03*
X391955Y19477D03*
X374175Y19477D03*
D14*
X366974Y19477D03*
D16*
X358097Y19477D03*
X352153Y19477D03*
D14*
X344114Y19477D03*
D22*
X334805Y19477D03*
D16*
X320835Y19477D03*
X313215Y19477D03*
X307297Y19477D03*
D15*
X297556Y19477D03*
D16*
X290355Y19477D03*
D13*
X493555Y20324D03*
D24*
X487205Y20324D03*
D13*
X480855Y20324D03*
D39*
X470695Y20324D03*
D38*
X459684Y20324D03*
D70*
X445714Y20324D03*
D73*
X433014Y20324D03*
D13*
X424975Y20324D03*
X417355Y20324D03*
X411437Y20324D03*
X404655Y20324D03*
X398737Y20324D03*
D70*
X388996Y20324D03*
D28*
X375445Y20324D03*
D13*
X366555Y20324D03*
X358097Y20324D03*
X351315Y20324D03*
X343695Y20324D03*
X335237Y20324D03*
X320835Y20324D03*
X313215Y20324D03*
X306433Y20324D03*
X297975Y20324D03*
X290355Y20324D03*
X493555Y21170D03*
X486773Y21170D03*
X480855Y21170D03*
D10*
X474086Y21170D03*
D38*
X469844Y21170D03*
D28*
X460103Y21170D03*
D27*
X446146Y21170D03*
D38*
X434284Y21170D03*
D13*
X424975Y21170D03*
X417355Y21170D03*
X410573Y21170D03*
X404655Y21170D03*
X398737Y21170D03*
D27*
X388564Y21170D03*
D28*
X377147Y21170D03*
D13*
X366555Y21170D03*
X358097Y21170D03*
D23*
X351734Y21170D03*
D13*
X343695Y21170D03*
D30*
X334805Y21170D03*
D13*
X320835Y21170D03*
X313215Y21170D03*
D30*
X306865Y21170D03*
D13*
X297975Y21170D03*
X290355Y21170D03*
D14*
X493136Y22017D03*
D16*
X487637Y22017D03*
D14*
X481274Y22017D03*
D16*
X468155Y22017D03*
X461373Y22017D03*
D15*
X457576Y22017D03*
D16*
X449537Y22017D03*
X442755Y22017D03*
X435973Y22017D03*
X424975Y22017D03*
D15*
X417774Y22017D03*
D16*
X411437Y22017D03*
X404655Y22017D03*
X398737Y22017D03*
X391955Y22017D03*
X385173Y22017D03*
X379255Y22017D03*
X366555Y22017D03*
X358097Y22017D03*
D14*
X351734Y22017D03*
D16*
X343695Y22017D03*
D32*
X334805Y22017D03*
D14*
X320416Y22017D03*
D16*
X313215Y22017D03*
D32*
X306865Y22017D03*
D14*
X297556Y22017D03*
D16*
X290355Y22017D03*
D23*
X493136Y22864D03*
D13*
X486773Y22864D03*
X480855Y22864D03*
X468155Y22864D03*
D12*
X460954Y22864D03*
D24*
X456725Y22864D03*
D13*
X448673Y22864D03*
D12*
X442336Y22864D03*
D30*
X436405Y22864D03*
D23*
X424556Y22864D03*
D13*
X417355Y22864D03*
X410573Y22864D03*
X404655Y22864D03*
X398737Y22864D03*
X391955Y22864D03*
D30*
X385605Y22864D03*
D13*
X379255Y22864D03*
X366555Y22864D03*
X358097Y22864D03*
D23*
X351734Y22864D03*
D13*
X343695Y22864D03*
X335237Y22864D03*
D23*
X320416Y22864D03*
D13*
X314053Y22864D03*
X306433Y22864D03*
D23*
X297556Y22864D03*
D13*
X290355Y22864D03*
D23*
X493136Y23710D03*
D10*
X490164Y23710D03*
D31*
X486786Y23710D03*
D23*
X481274Y23710D03*
D13*
X474073Y23710D03*
D10*
X471546Y23710D03*
D23*
X468574Y23710D03*
D13*
X461373Y23710D03*
D23*
X455874Y23710D03*
X448254Y23710D03*
D24*
X444025Y23710D03*
D13*
X435973Y23710D03*
D10*
X433446Y23710D03*
D13*
X430893Y23710D03*
D24*
X423705Y23710D03*
D31*
X419044Y23710D03*
X410586Y23710D03*
D28*
X405087Y23710D03*
D37*
X399575Y23710D03*
D13*
X391117Y23710D03*
D10*
X388564Y23710D03*
D13*
X386037Y23710D03*
X379255Y23710D03*
D31*
X375026Y23710D03*
X367406Y23710D03*
D11*
X364015Y23710D03*
D13*
X358097Y23710D03*
D12*
X351734Y23710D03*
D23*
X344114Y23710D03*
D11*
X341155Y23710D03*
D31*
X335224Y23710D03*
D10*
X331846Y23710D03*
D31*
X319146Y23710D03*
D24*
X314485Y23710D03*
D71*
X305595Y23710D03*
D13*
X297137Y23710D03*
D28*
X291625Y23710D03*
D74*
X487624Y24557D03*
D40*
X471533Y24557D03*
D16*
X461373Y24557D03*
D15*
X455036Y24557D03*
D19*
X445714Y24557D03*
D68*
X433865Y24557D03*
X421165Y24557D03*
D40*
X408033Y24557D03*
D35*
X400845Y24557D03*
D69*
X388564Y24557D03*
D19*
X376296Y24557D03*
X366136Y24557D03*
D16*
X358097Y24557D03*
X351315Y24557D03*
D40*
X343695Y24557D03*
D68*
X334805Y24557D03*
X317025Y24557D03*
D69*
X304744Y24557D03*
D35*
X295003Y24557D03*
D16*
X290355Y24557D03*
D12*
X493136Y25404D03*
D23*
X488894Y25404D03*
X482976Y25404D03*
D37*
X470695Y25404D03*
D13*
X460535Y25404D03*
D12*
X455036Y25404D03*
D23*
X445714Y25404D03*
D31*
X433446Y25404D03*
D24*
X421165Y25404D03*
D30*
X411005Y25404D03*
D23*
X406776Y25404D03*
D24*
X400845Y25404D03*
D31*
X388564Y25404D03*
D37*
X376715Y25404D03*
D39*
X366555Y25404D03*
D12*
X358516Y25404D03*
X351734Y25404D03*
D39*
X343695Y25404D03*
X334373Y25404D03*
D24*
X317025Y25404D03*
D30*
X306865Y25404D03*
D13*
X303055Y25404D03*
D31*
X294584Y25404D03*
D13*
X290355Y25404D03*
X461373Y26250D03*
D12*
X366974Y26250D03*
D13*
X343695Y26250D03*
D30*
X334805Y26250D03*
D16*
X461373Y27097D03*
X366555Y27097D03*
X343695Y27097D03*
X335237Y27097D03*
D13*
X461373Y27944D03*
D23*
X366974Y27944D03*
D13*
X342857Y27944D03*
D10*
X340304Y27944D03*
D23*
X333954Y27944D03*
D13*
X461373Y28790D03*
D28*
X341587Y28790D03*
D31*
X332684Y28790D03*
D14*
X460954Y29637D03*
D34*
X342006Y29637D03*
X332684Y29637D03*
D20*
X330995Y29637D03*
M02*
