G04 EAGLE Gerber RS-274X export*
G75*
%MOMM*%
%FSLAX34Y34*%
%LPD*%
%INSoldermask Top*%
%IPPOS*%
%AMOC8*
5,1,8,0,0,1.08239X$1,22.5*%
G01*
%ADD10C,2.082800*%
%ADD11C,2.108200*%
%ADD12C,1.711200*%
%ADD13R,1.711200X1.711200*%
%ADD14C,1.524000*%
%ADD15C,1.854200*%
%ADD16R,1.854200X1.854200*%
%ADD17R,2.235200X2.235200*%
%ADD18C,2.235200*%
%ADD19C,1.417600*%


D10*
X508000Y241300D03*
X508000Y266700D03*
X508000Y292100D03*
X508000Y317500D03*
X508000Y342900D03*
X508000Y368300D03*
X508000Y419100D03*
X508000Y444500D03*
X508000Y469900D03*
X508000Y495300D03*
X508000Y520700D03*
X508000Y546100D03*
X25400Y546100D03*
X25400Y520700D03*
X25400Y495300D03*
X25400Y469900D03*
X25400Y444500D03*
X25400Y419100D03*
X25400Y393700D03*
X25400Y368300D03*
X25400Y327660D03*
X25400Y302260D03*
X25400Y276860D03*
X25400Y251460D03*
X25400Y226060D03*
X25400Y200660D03*
X25400Y175260D03*
X25400Y149860D03*
X25400Y124460D03*
X25400Y99060D03*
X508000Y215900D03*
X508000Y190500D03*
X229100Y547500D03*
X229100Y572900D03*
X254500Y547500D03*
X279900Y547500D03*
X254500Y572900D03*
X279900Y572900D03*
D11*
X119380Y182880D03*
X144780Y182880D03*
X170180Y182880D03*
X195580Y182880D03*
X220980Y182880D03*
X246380Y182880D03*
X271780Y182880D03*
X93980Y182880D03*
X119380Y309880D03*
X144780Y309880D03*
X170180Y309880D03*
X195580Y309880D03*
X220980Y309880D03*
X246380Y309880D03*
X271780Y309880D03*
X93980Y309880D03*
D12*
X438150Y383540D03*
D13*
X438150Y358140D03*
D12*
X438150Y408940D03*
X438150Y434340D03*
X438150Y459740D03*
X438150Y485140D03*
D14*
X127000Y57404D02*
X127000Y44196D01*
X152400Y44196D02*
X152400Y57404D01*
X177800Y57404D02*
X177800Y44196D01*
X177800Y120396D02*
X177800Y133604D01*
X127000Y133604D02*
X127000Y120396D01*
X152400Y120396D02*
X152400Y133604D01*
D15*
X170380Y246380D03*
D16*
X195380Y246380D03*
D17*
X421640Y76200D03*
D18*
X471640Y76200D03*
D17*
X292100Y76200D03*
D18*
X342100Y76200D03*
D19*
X165100Y342900D03*
X304800Y342900D03*
X322548Y540966D03*
X62647Y44869D03*
X381809Y40636D03*
X403820Y240429D03*
X92277Y231963D03*
X143919Y265827D03*
X329320Y474933D03*
X135453Y444456D03*
X456308Y326781D03*
X393700Y381000D03*
X139700Y520700D03*
X381000Y419100D03*
X177800Y533400D03*
M02*
